SplineFontDB: 3.2
FontName: WeatherIcons-Regular
FullName: Weather Icons Regular
FamilyName: Weather Icons
Weight: Book
Copyright: Weather Icons licensed under SIL OFL 1.1 - Code licensed under MIT License - Documentation licensed under CC BY 3.0
Version: 1.100;PS 001.100;hotconv 1.0.70;makeotf.lib2.5.58329
ItalicAngle: 0
UnderlinePosition: -113
UnderlineWidth: 57
Ascent: 1755
Descent: 293
InvalidEm: 0
sfntRevision: 0x00011999
LayerCount: 2
Layer: 0 1 "Back" 1
Layer: 1 1 "Fore" 0
XUID: [1021 980 -2131573637 29270]
StyleMap: 0x0040
FSType: 4
OS2Version: 3
OS2_WeightWidthSlopeOnly: 0
OS2_UseTypoMetrics: 0
CreationTime: 1439907910
ModificationTime: 1678756702
PfmFamily: 81
TTFWeight: 400
TTFWidth: 5
LineGap: 0
VLineGap: 0
Panose: 0 0 5 0 0 0 0 0 0 0
OS2TypoAscent: 1755
OS2TypoAOffset: 0
OS2TypoDescent: -293
OS2TypoDOffset: 0
OS2TypoLinegap: 0
OS2WinAscent: 2245
OS2WinAOffset: 0
OS2WinDescent: 718
OS2WinDOffset: 0
HheadAscent: 2245
HheadAOffset: 0
HheadDescent: -718
HheadDOffset: 0
OS2SubXSize: 1330
OS2SubYSize: 1229
OS2SubXOff: 0
OS2SubYOff: 153
OS2SupXSize: 1330
OS2SupYSize: 1229
OS2SupXOff: 0
OS2SupYOff: 717
OS2StrikeYSize: 57
OS2StrikeYPos: 1229
OS2Vendor: 'UKWN'
OS2CodePages: 00000001.00000000
OS2UnicodeRanges: 00000000.00000000.00000000.00000000
DEI: 91125
TtTable: prep
PUSHW_1
 511
SCANCTRL
PUSHB_1
 1
SCANTYPE
SVTCA[y-axis]
MPPEM
PUSHB_1
 8
LT
IF
PUSHB_2
 1
 1
INSTCTRL
EIF
PUSHB_2
 70
 6
CALL
IF
POP
PUSHB_1
 16
EIF
MPPEM
PUSHB_1
 20
GT
IF
POP
PUSHB_1
 128
EIF
SCVTCI
PUSHB_1
 6
CALL
NOT
IF
EIF
PUSHB_1
 20
CALL
EndTTInstrs
TtTable: fpgm
PUSHB_1
 0
FDEF
PUSHB_1
 0
SZP0
MPPEM
PUSHB_1
 76
LT
IF
PUSHB_1
 74
SROUND
EIF
PUSHB_1
 0
SWAP
MIAP[rnd]
RTG
PUSHB_1
 6
CALL
IF
RTDG
EIF
MPPEM
PUSHB_1
 76
LT
IF
RDTG
EIF
DUP
MDRP[rp0,rnd,grey]
PUSHB_1
 1
SZP0
MDAP[no-rnd]
RTG
ENDF
PUSHB_1
 1
FDEF
DUP
MDRP[rp0,min,white]
PUSHB_1
 12
CALL
ENDF
PUSHB_1
 2
FDEF
MPPEM
GT
IF
RCVT
SWAP
EIF
POP
ENDF
PUSHB_1
 3
FDEF
ROUND[Black]
RTG
DUP
PUSHB_1
 64
LT
IF
POP
PUSHB_1
 64
EIF
ENDF
PUSHB_1
 4

StartChar: .notdef
Encoding: 65536 -1 0
Width: 748
GlyphClass: 1
Flags: W
LayerCount: 2
Fore
SplineSet
68 0 m 1,0,-1
 68 1365 l 1,1,-1
 612 1365 l 1,2,-1
 612 0 l 1,3,-1
 68 0 l 1,0,-1
136 68 m 1,4,-1
 544 68 l 1,5,-1
 544 1297 l 1,6,-1
 136 1297 l 1,7,-1
 136 68 l 1,4,-1
EndSplineSet
EndChar

StartChar: uni25FC
Encoding: 9724 9724 18
Width: 571
GlyphClass: 2
Flags: W
LayerCount: 2
Fore
SplineSet
0 0 m 1024,0,-1
EndSplineSet
EndChar

StartChar: uniF000
Encoding: 61440 61440 19
Width: 3126
GlyphClass: 2
Flags: W
LayerCount: 2
Fore
SplineSet
0 90 m 0,0,1
 0 52 0 52 29 26 c 0,2,3
 56 -1 56 -1 94 -1 c 2,4,-1
 721 -1 l 2,5,6
 762 -1 762 -1 793.5 -31 c 128,-1,7
 825 -61 825 -61 825 -104 c 128,-1,8
 825 -147 825 -147 793.5 -178 c 128,-1,9
 762 -209 762 -209 721 -209 c 128,-1,10
 680 -209 680 -209 648 -177 c 0,11,12
 619 -151 619 -151 583 -151 c 0,13,14
 545 -151 545 -151 519 -176.5 c 128,-1,15
 493 -202 493 -202 493 -240 c 128,-1,16
 493 -278 493 -278 519 -304 c 0,17,18
 604 -389 604 -389 721 -389 c 0,19,20
 839 -389 839 -389 922 -305.5 c 128,-1,21
 1005 -222 1005 -222 1005 -104 c 128,-1,22
 1005 14 1005 14 922 98 c 128,-1,23
 839 182 839 182 721 182 c 2,24,-1
 94 182 l 2,25,26
 56 182 56 182 28 154.5 c 128,-1,27
 0 127 0 127 0 90 c 0,0,1
0 411 m 0,28,29
 0 376 0 376 29 350 c 0,30,31
 56 323 56 323 94 323 c 2,32,-1
 1264 323 l 2,33,34
 1382 323 1382 323 1465.5 406.5 c 128,-1,35
 1549 490 1549 490 1549 608 c 128,-1,36
 1549 726 1549 726 1466 808 c 128,-1,37
 1383 890 1383 890 1264 890 c 0,38,39
 1143 890 1143 890 1063 809 c 0,40,41
 1038 783 1038 783 1038 744 c 128,-1,42
 1038 705 1038 705 1062.5 680.5 c 128,-1,43
 1087 656 1087 656 1126 656 c 0,44,45
 1164 656 1164 656 1192 681 c 0,46,47
 1222 711 1222 711 1264 711 c 128,-1,48
 1306 711 1306 711 1336.5 681 c 128,-1,49
 1367 651 1367 651 1367 608 c 128,-1,50
 1367 565 1367 565 1336.5 534 c 128,-1,51
 1306 503 1306 503 1264 503 c 2,52,-1
 94 503 l 2,53,54
 56 503 56 503 28 475.5 c 128,-1,55
 0 448 0 448 0 411 c 0,28,29
283 662 m 0,56,57
 283 649 283 649 301 649 c 2,58,-1
 454 649 l 2,59,60
 465 649 465 649 475 664 c 0,61,62
 511 751 511 751 586.5 807.5 c 128,-1,63
 662 864 662 864 757 871 c 1,64,-1
 813 879 l 2,65,66
 833 879 833 879 833 897 c 2,67,-1
 840 952 l 1,68,69
 857 1125 857 1125 986 1241 c 128,-1,70
 1115 1357 1115 1357 1290 1357 c 0,71,72
 1466 1357 1466 1357 1595.5 1241.5 c 128,-1,73
 1725 1126 1725 1126 1743 952 c 2,74,-1
 1750 890 l 2,75,76
 1750 871 1750 871 1769 871 c 2,77,-1
 1943 871 l 2,78,79
 2087 871 2087 871 2188.5 770.5 c 128,-1,80
 2290 670 2290 670 2290 528 c 0,81,82
 2290 385 2290 385 2188.5 283.5 c 128,-1,83
 2087 182 2087 182 1943 182 c 2,84,-1
 1207 182 l 2,85,86
 1187 182 1187 182 1187 163 c 2,87,-1
 1187 17 l 2,88,89
 1187 -1 1187 -1 1207 -1 c 2,90,-1
 1943 -1 l 2,91,92
 2086 -1 2086 -1 2207.5 70 c 128,-1,93
 2329 141 2329 141 2399.5 263 c 128,-1,94
 2470 385 2470 385 2470 528 c 0,95,96
 2470 646 2470 646 2425 744 c 1,97,98
 2546 903 2546 903 2546 1097 c 0,99,100
 2546 1247 2546 1247 2470.5 1376 c 128,-1,101
 2395 1505 2395 1505 2266 1580.5 c 128,-1,102
 2137 1656 2137 1656 1987 1656 c 0,103,104
 1740 1656 1740 1656 1575 1471 c 1,105,106
 1447 1536 1447 1536 1290 1536 c 0,107,108
 1065 1536 1065 1536 892 1396.5 c 128,-1,109
 719 1257 719 1257 672 1040 c 1,110,111
 536 1008 536 1008 431.5 909 c 128,-1,112
 327 810 327 810 286 675 c 1,113,-1
 286 671 l 2,114,115
 283 666 283 666 283 662 c 0,56,57
1155 1838 m 128,-1,117
 1155 1801 1155 1801 1184 1774 c 2,118,-1
 1249 1705 l 2,119,120
 1275 1679 1275 1679 1314 1679 c 0,121,122
 1354 1679 1354 1679 1379.5 1703.5 c 128,-1,123
 1405 1728 1405 1728 1405 1768 c 0,124,125
 1405 1806 1405 1806 1381 1832 c 2,126,-1
 1311 1901 l 2,127,128
 1286 1929 1286 1929 1248 1929 c 128,-1,129
 1210 1929 1210 1929 1182.5 1902 c 128,-1,116
 1155 1875 1155 1875 1155 1838 c 128,-1,117
1723 1368 m 1,130,131
 1838 1477 1838 1477 1987 1477 c 0,132,133
 2142 1477 2142 1477 2254.5 1365 c 128,-1,134
 2367 1253 2367 1253 2367 1097 c 0,135,136
 2367 993 2367 993 2312 902 c 1,137,138
 2159 1055 2159 1055 1943 1055 c 2,139,-1
 1907 1055 l 1,140,141
 1869 1228 1869 1228 1723 1368 c 1,130,131
1896 1927 m 2,142,143
 1896 1890 1896 1890 1922.5 1864.5 c 128,-1,144
 1949 1839 1949 1839 1987 1839 c 128,-1,145
 2025 1839 2025 1839 2052 1864.5 c 128,-1,146
 2079 1890 2079 1890 2079 1927 c 2,147,-1
 2079 2145 l 2,148,149
 2079 2183 2079 2183 2052 2210 c 128,-1,150
 2025 2237 2025 2237 1987 2237 c 128,-1,151
 1949 2237 1949 2237 1922.5 2210 c 128,-1,152
 1896 2183 1896 2183 1896 2145 c 2,153,-1
 1896 1927 l 2,142,143
2488 1685 m 0,154,155
 2488 1646 2488 1646 2512 1621 c 0,156,157
 2539 1594 2539 1594 2577 1593.5 c 128,-1,158
 2615 1593 2615 1593 2638 1621 c 2,159,-1
 2794 1774 l 2,160,161
 2821 1801 2821 1801 2821 1839 c 0,162,163
 2821 1876 2821 1876 2794 1903 c 128,-1,164
 2767 1930 2767 1930 2729 1930 c 128,-1,165
 2691 1930 2691 1930 2665 1904 c 2,166,-1
 2512 1747 l 2,167,168
 2488 1722 2488 1722 2488 1685 c 0,154,155
2570 423 m 0,169,170
 2570 386 2570 386 2597 359 c 2,171,-1
 2665 290 l 1,172,173
 2697 264 2697 264 2731 264 c 0,174,175
 2762 264 2762 264 2794 290 c 0,176,177
 2821 317 2821 317 2821 354 c 0,178,179
 2821 389 2821 389 2794 419 c 2,180,-1
 2726 488 l 2,181,182
 2700 514 2700 514 2664 514 c 0,183,184
 2624 514 2624 514 2597 487.5 c 128,-1,185
 2570 461 2570 461 2570 423 c 0,169,170
2731 1097 m 128,-1,187
 2731 1059 2731 1059 2758 1034 c 1,188,189
 2782 1006 2782 1006 2819 1006 c 2,190,-1
 3035 1006 l 2,191,192
 3073 1006 3073 1006 3100 1033 c 128,-1,193
 3127 1060 3127 1060 3127 1097 c 128,-1,194
 3127 1134 3127 1134 3099.5 1161.5 c 128,-1,195
 3072 1189 3072 1189 3035 1189 c 2,196,-1
 2819 1189 l 2,197,198
 2781 1189 2781 1189 2756 1162 c 128,-1,186
 2731 1135 2731 1135 2731 1097 c 128,-1,187
EndSplineSet
EndChar

StartChar: uniF001
Encoding: 61441 61441 20
Width: 3105
GlyphClass: 2
Flags: W
LayerCount: 2
Fore
SplineSet
0 94 m 0,0,1
 0 55 0 55 26 29 c 1,2,3
 96 0 96 0 120 0 c 2,4,-1
 960 0 l 2,5,6
 998 0 998 0 1024.5 27.5 c 128,-1,7
 1051 55 1051 55 1051 93 c 0,8,9
 1051 130 1051 130 1024.5 155.5 c 128,-1,10
 998 181 998 181 960 181 c 2,11,-1
 120 181 l 2,12,13
 78 181 78 181 39 155.5 c 128,-1,14
 0 130 0 130 0 94 c 0,0,1
149 414 m 128,-1,16
 149 376 149 376 176 351 c 1,17,18
 200 323 200 323 238 323 c 2,19,-1
 1241 323 l 2,20,21
 1279 323 1279 323 1306 349.5 c 128,-1,22
 1333 376 1333 376 1333 414 c 128,-1,23
 1333 452 1333 452 1306 479 c 128,-1,24
 1279 506 1279 506 1241 506 c 2,25,-1
 238 506 l 2,26,27
 201 506 201 506 175 479 c 128,-1,15
 149 452 149 452 149 414 c 128,-1,16
261 667 m 0,28,29
 261 653 261 653 279 653 c 2,30,-1
 427 653 l 2,31,32
 446 653 446 653 450 667 c 0,33,34
 491 752 491 752 566 807.5 c 128,-1,35
 641 863 641 863 735 874 c 1,36,-1
 793 874 l 2,37,38
 810 874 810 874 810 894 c 2,39,-1
 818 954 l 1,40,41
 829 1068 829 1068 892 1161.5 c 128,-1,42
 955 1255 955 1255 1055.5 1308 c 128,-1,43
 1156 1361 1156 1361 1271 1361 c 0,44,45
 1445 1361 1445 1361 1575 1244 c 128,-1,46
 1705 1127 1705 1127 1723 954 c 1,47,-1
 1731 894 l 2,48,49
 1731 874 1731 874 1750 874 c 2,50,-1
 1921 874 l 2,51,52
 2063 874 2063 874 2166.5 772 c 128,-1,53
 2270 670 2270 670 2270 530 c 0,54,55
 2270 386 2270 386 2167 283.5 c 128,-1,56
 2064 181 2064 181 1921 181 c 2,57,-1
 1186 181 l 2,58,59
 1168 181 1168 181 1168 161 c 2,60,-1
 1168 19 l 2,61,62
 1168 0 1168 0 1186 0 c 2,63,-1
 1921 0 l 2,64,65
 2065 0 2065 0 2187 71 c 128,-1,66
 2309 142 2309 142 2380 264 c 128,-1,67
 2451 386 2451 386 2451 530 c 0,68,69
 2451 646 2451 646 2405 744 c 1,70,71
 2529 898 2529 898 2529 1094 c 0,72,73
 2529 1244 2529 1244 2453.5 1373 c 128,-1,74
 2378 1502 2378 1502 2248.5 1577.5 c 128,-1,75
 2119 1653 2119 1653 1968 1653 c 0,76,77
 1851 1653 1851 1653 1744.5 1605.5 c 128,-1,78
 1638 1558 1638 1558 1559 1472 c 1,79,80
 1427 1541 1427 1541 1271 1541 c 0,81,82
 1045 1541 1045 1541 870 1401 c 128,-1,83
 695 1261 695 1261 647 1043 c 1,84,85
 511 1009 511 1009 407.5 909.5 c 128,-1,86
 304 810 304 810 263 674 c 0,87,88
 261 672 261 672 261 667 c 0,28,29
337 -246 m 0,89,90
 337 -284 337 -284 365 -309 c 0,91,92
 390 -336 390 -336 427 -336 c 2,93,-1
 1432 -336 l 2,94,95
 1469 -336 1469 -336 1495 -309.5 c 128,-1,96
 1521 -283 1521 -283 1521 -246 c 0,97,98
 1521 -206 1521 -206 1495.5 -179.5 c 128,-1,99
 1470 -153 1470 -153 1432 -153 c 2,100,-1
 427 -153 l 2,101,102
 389 -153 389 -153 363 -179.5 c 128,-1,103
 337 -206 337 -206 337 -246 c 0,89,90
1135 1835 m 0,104,105
 1135 1795 1135 1795 1161 1771 c 2,106,-1
 1229 1701 l 2,107,108
 1255 1675 1255 1675 1293 1675 c 0,109,110
 1334 1675 1334 1675 1359.5 1700.5 c 128,-1,111
 1385 1726 1385 1726 1385 1766 c 0,112,113
 1385 1803 1385 1803 1359 1829 c 2,114,-1
 1290 1898 l 2,115,116
 1263 1925 1263 1925 1229 1925 c 0,117,118
 1189 1925 1189 1925 1162 1898.5 c 128,-1,119
 1135 1872 1135 1872 1135 1835 c 0,104,105
1707 1368 m 1,120,121
 1813 1469 1813 1469 1968 1469 c 0,122,123
 2124 1469 2124 1469 2233.5 1359.5 c 128,-1,124
 2343 1250 2343 1250 2343 1094 c 0,125,126
 2343 987 2343 987 2294 901 c 1,127,128
 2143 1053 2143 1053 1921 1053 c 2,129,-1
 1889 1053 l 1,130,131
 1843 1237 1843 1237 1707 1368 c 1,120,121
1878 1925 m 2,132,133
 1878 1887 1878 1887 1904.5 1862 c 128,-1,134
 1931 1837 1931 1837 1968 1837 c 0,135,136
 2008 1837 2008 1837 2032.5 1861.5 c 128,-1,137
 2057 1886 2057 1886 2057 1925 c 2,138,-1
 2057 2143 l 2,139,140
 2057 2182 2057 2182 2032 2208.5 c 128,-1,141
 2007 2235 2007 2235 1968 2235 c 0,142,143
 1931 2235 1931 2235 1904.5 2208 c 128,-1,144
 1878 2181 1878 2181 1878 2143 c 2,145,-1
 1878 1925 l 2,132,133
2467 1681 m 0,146,147
 2467 1642 2467 1642 2494 1617 c 1,148,149
 2514 1591 2514 1591 2558 1591 c 0,150,151
 2601 1591 2601 1591 2621 1617 c 1,152,-1
 2777 1771 l 2,153,154
 2803 1795 2803 1795 2803 1837 c 0,155,156
 2803 1874 2803 1874 2776.5 1900.5 c 128,-1,157
 2750 1927 2750 1927 2712 1927 c 128,-1,158
 2674 1927 2674 1927 2647 1902 c 2,159,-1
 2494 1744 l 2,160,161
 2467 1718 2467 1718 2467 1681 c 0,146,147
2552 416 m 128,-1,163
 2552 377 2552 377 2577 352 c 2,164,-1
 2647 285 l 1,165,166
 2686 256 2686 256 2712 256 c 128,-1,167
 2738 256 2738 256 2777 285 c 1,168,169
 2803 311 2803 311 2803 349 c 0,170,171
 2803 386 2803 386 2777 414 c 2,172,-1
 2709 479 l 2,173,174
 2679 507 2679 507 2640 507 c 0,175,176
 2602 507 2602 507 2577 481 c 128,-1,162
 2552 455 2552 455 2552 416 c 128,-1,163
2706 1090 m 0,177,178
 2706 1051 2706 1051 2735 1025 c 0,179,180
 2764 998 2764 998 2799 998 c 2,181,-1
 3016 998 l 2,182,183
 3052 998 3052 998 3078.5 1025 c 128,-1,184
 3105 1052 3105 1052 3105 1090 c 0,185,186
 3105 1126 3105 1126 3079 1150.5 c 128,-1,187
 3053 1175 3053 1175 3016 1175 c 2,188,-1
 2799 1175 l 2,189,190
 2760 1175 2760 1175 2733 1150.5 c 128,-1,191
 2706 1126 2706 1126 2706 1090 c 0,177,178
EndSplineSet
EndChar

StartChar: uniF002
Encoding: 61442 61442 21
Width: 2867
GlyphClass: 2
Flags: W
LayerCount: 2
Fore
SplineSet
0 528 m 0,0,1
 0 384 0 384 70.5 262 c 128,-1,2
 141 140 141 140 262 69.5 c 128,-1,3
 383 -1 383 -1 526 -1 c 2,4,-1
 1681 -1 l 2,5,6
 1824 -1 1824 -1 1946 69.5 c 128,-1,7
 2068 140 2068 140 2139 262 c 128,-1,8
 2210 384 2210 384 2210 528 c 0,9,10
 2210 634 2210 634 2165 741 c 1,11,12
 2287 890 2287 890 2287 1094 c 0,13,14
 2287 1208 2287 1208 2243 1311.5 c 128,-1,15
 2199 1415 2199 1415 2124 1490 c 128,-1,16
 2049 1565 2049 1565 1945.5 1609 c 128,-1,17
 1842 1653 1842 1653 1728 1653 c 0,18,19
 1491 1653 1491 1653 1314 1467 c 1,20,21
 1190 1537 1190 1537 1026 1537 c 0,22,23
 801 1537 801 1537 628 1397.5 c 128,-1,24
 455 1258 455 1258 406 1040 c 1,25,26
 227 999 227 999 113.5 856 c 128,-1,27
 0 713 0 713 0 528 c 0,0,1
182 528 m 0,28,29
 182 662 182 662 271.5 759 c 128,-1,30
 361 856 361 856 496 872 c 1,31,-1
 549 875 l 2,32,33
 569 875 569 875 569 894 c 2,34,-1
 576 952 l 2,35,36
 598 1125 598 1125 726 1241.5 c 128,-1,37
 854 1358 854 1358 1026 1358 c 0,38,39
 1202 1358 1202 1358 1332.5 1241 c 128,-1,40
 1463 1124 1463 1124 1479 952 c 1,41,-1
 1487 890 l 2,42,43
 1491 872 1491 872 1509 872 c 2,44,-1
 1681 872 l 2,45,46
 1822 872 1822 872 1924 770 c 128,-1,47
 2026 668 2026 668 2026 528 c 0,48,49
 2026 383 2026 383 1924.5 280.5 c 128,-1,50
 1823 178 1823 178 1681 178 c 2,51,-1
 526 178 l 2,52,53
 386 178 386 178 284 281.5 c 128,-1,54
 182 385 182 385 182 528 c 0,28,29
897 1837 m 0,55,56
 897 1798 897 1798 923 1770 c 2,57,-1
 993 1702 l 1,58,59
 1033 1672 1033 1672 1061 1675 c 0,60,61
 1094 1675 1094 1675 1120 1702.5 c 128,-1,62
 1146 1730 1146 1730 1146 1769 c 128,-1,63
 1146 1808 1146 1808 1118 1832 c 1,64,-1
 1055 1902 l 1,65,66
 1026 1928 1026 1928 990 1928 c 0,67,68
 951 1928 951 1928 924 1901.5 c 128,-1,69
 897 1875 897 1875 897 1837 c 0,55,56
1467 1365 m 1,70,71
 1578 1472 1578 1472 1728 1472 c 0,72,73
 1886 1472 1886 1472 1996.5 1362 c 128,-1,74
 2107 1252 2107 1252 2107 1094 c 0,75,76
 2107 994 2107 994 2053 898 c 1,77,78
 1898 1051 1898 1051 1681 1051 c 2,79,-1
 1647 1051 l 1,80,81
 1607 1225 1607 1225 1467 1365 c 1,70,71
1640 1928 m 2,82,83
 1640 1887 1640 1887 1665 1862 c 128,-1,84
 1690 1837 1690 1837 1728 1837 c 0,85,86
 1769 1837 1769 1837 1794 1862 c 128,-1,87
 1819 1887 1819 1887 1819 1928 c 2,88,-1
 1819 2146 l 2,89,90
 1819 2184 1819 2184 1793.5 2209 c 128,-1,91
 1768 2234 1768 2234 1728 2234 c 0,92,93
 1690 2234 1690 2234 1665 2209 c 128,-1,94
 1640 2184 1640 2184 1640 2146 c 2,95,-1
 1640 1928 l 2,82,83
2229 1683 m 0,96,97
 2229 1642 2229 1642 2253 1617 c 1,98,99
 2287 1591 2287 1591 2319 1591 c 0,100,101
 2348 1591 2348 1591 2382 1617 c 1,102,-1
 2535 1770 l 2,103,104
 2561 1799 2561 1799 2561 1838 c 0,105,106
 2561 1876 2561 1876 2535 1902 c 128,-1,107
 2509 1928 2509 1928 2472 1928 c 0,108,109
 2434 1928 2434 1928 2410 1902 c 2,110,-1
 2253 1749 l 1,111,112
 2229 1720 2229 1720 2229 1683 c 0,96,97
2314 421 m 128,-1,114
 2314 383 2314 383 2341 354 c 2,115,-1
 2410 287 l 2,116,117
 2434 261 2434 261 2472 261 c 128,-1,118
 2510 261 2510 261 2535.5 287.5 c 128,-1,119
 2561 314 2561 314 2561 354 c 0,120,121
 2561 390 2561 390 2535 416 c 2,122,-1
 2466 485 l 2,123,124
 2440 511 2440 511 2405 511 c 0,125,126
 2367 511 2367 511 2340.5 485 c 128,-1,113
 2314 459 2314 459 2314 421 c 128,-1,114
2470 1094 m 128,-1,128
 2470 1057 2470 1057 2498 1032 c 0,129,130
 2524 1006 2524 1006 2563 1006 c 2,131,-1
 2781 1006 l 2,132,133
 2818 1006 2818 1006 2842.5 1031 c 128,-1,134
 2867 1056 2867 1056 2867 1094 c 128,-1,135
 2867 1132 2867 1132 2842.5 1158.5 c 128,-1,136
 2818 1185 2818 1185 2781 1185 c 2,137,-1
 2563 1185 l 2,138,139
 2525 1185 2525 1185 2497.5 1158 c 128,-1,127
 2470 1131 2470 1131 2470 1094 c 128,-1,128
EndSplineSet
EndChar

StartChar: uniF003
Encoding: 61443 61443 22
Width: 3132
GlyphClass: 2
Flags: W
LayerCount: 2
Fore
SplineSet
0 85 m 0,0,1
 0 48 0 48 27 22.5 c 128,-1,2
 54 -3 54 -3 94 -3 c 2,3,-1
 2090 -3 l 2,4,5
 2128 -3 2128 -3 2155 22.5 c 128,-1,6
 2182 48 2182 48 2182 85 c 0,7,8
 2182 123 2182 123 2155 149.5 c 128,-1,9
 2128 176 2128 176 2090 176 c 2,10,-1
 94 176 l 2,11,12
 54 176 54 176 27 149.5 c 128,-1,13
 0 123 0 123 0 85 c 0,0,1
280 419 m 128,-1,15
 280 382 280 382 307 357 c 0,16,17
 334 328 334 328 371 328 c 2,18,-1
 2368 328 l 2,19,20
 2405 328 2405 328 2430.5 354.5 c 128,-1,21
 2456 381 2456 381 2456 419 c 0,22,23
 2456 456 2456 456 2431 481.5 c 128,-1,24
 2406 507 2406 507 2368 507 c 2,25,-1
 371 507 l 2,26,27
 333 507 333 507 306.5 481.5 c 128,-1,14
 280 456 280 456 280 419 c 128,-1,15
293 675 m 0,28,29
 293 661 293 661 310 661 c 2,30,-1
 463 661 l 2,31,32
 474 661 474 661 485 678 c 0,33,34
 523 761 523 761 598.5 814 c 128,-1,35
 674 867 674 867 765 874 c 1,36,-1
 823 882 l 2,37,38
 841 882 841 882 841 901 c 2,39,-1
 848 955 l 1,40,41
 865 1128 865 1128 994.5 1244 c 128,-1,42
 1124 1360 1124 1360 1299 1360 c 0,43,44
 1472 1360 1472 1360 1601.5 1245 c 128,-1,45
 1731 1130 1731 1130 1749 959 c 1,46,-1
 1757 897 l 2,47,48
 1757 879 1757 879 1777 879 c 2,49,-1
 1949 879 l 2,50,51
 2052 879 2052 879 2136.5 824 c 128,-1,52
 2221 769 2221 769 2262 678 c 0,53,54
 2273 661 2273 661 2283 661 c 2,55,-1
 2437 661 l 2,56,57
 2458 661 2458 661 2451 685 c 2,58,-1
 2430 744 l 1,59,60
 2551 894 2551 894 2551 1097 c 0,61,62
 2551 1210 2551 1210 2507 1313 c 128,-1,63
 2463 1416 2463 1416 2389 1491 c 128,-1,64
 2315 1566 2315 1566 2211 1610 c 128,-1,65
 2107 1654 2107 1654 1993 1654 c 0,66,67
 1746 1654 1746 1654 1585 1475 c 1,68,69
 1450 1542 1450 1542 1299 1542 c 0,70,71
 1075 1542 1075 1542 900.5 1401.5 c 128,-1,72
 726 1261 726 1261 677 1042 c 1,73,74
 392 967 392 967 295 685 c 0,75,76
 293 682 293 682 293 675 c 0,28,29
466 -243 m 0,77,78
 466 -281 466 -281 495 -307 c 1,79,80
 520 -335 520 -335 558 -335 c 2,81,-1
 2557 -335 l 2,82,83
 2594 -335 2594 -335 2621 -308 c 128,-1,84
 2648 -281 2648 -281 2648 -243 c 0,85,86
 2648 -206 2648 -206 2621.5 -181.5 c 128,-1,87
 2595 -157 2595 -157 2557 -157 c 2,88,-1
 558 -157 l 2,89,90
 520 -157 520 -157 493 -181.5 c 128,-1,91
 466 -206 466 -206 466 -243 c 0,77,78
1167 1834 m 0,92,93
 1167 1796 1167 1796 1192 1771 c 2,94,-1
 1261 1703 l 2,95,96
 1288 1674 1288 1674 1323 1674 c 0,97,98
 1359 1674 1359 1674 1386.5 1700.5 c 128,-1,99
 1414 1727 1414 1727 1414 1766 c 0,100,101
 1414 1804 1414 1804 1387 1833 c 2,102,-1
 1319 1898 l 2,103,104
 1293 1926 1293 1926 1255 1926 c 0,105,106
 1216 1926 1216 1926 1191.5 1899.5 c 128,-1,107
 1167 1873 1167 1873 1167 1834 c 0,92,93
1734 1367 m 1,108,109
 1842 1475 1842 1475 1993 1475 c 0,110,111
 2150 1475 2150 1475 2260.5 1364 c 128,-1,112
 2371 1253 2371 1253 2371 1097 c 0,113,114
 2371 993 2371 993 2319 905 c 1,115,116
 2167 1057 2167 1057 1949 1057 c 2,117,-1
 1913 1057 l 1,118,119
 1868 1245 1868 1245 1734 1367 c 1,108,109
1905 1925 m 2,120,121
 1905 1888 1905 1888 1930.5 1862.5 c 128,-1,122
 1956 1837 1956 1837 1993 1837 c 0,123,124
 2033 1837 2033 1837 2060 1862.5 c 128,-1,125
 2087 1888 2087 1888 2087 1925 c 2,126,-1
 2087 2143 l 2,127,128
 2087 2180 2087 2180 2059 2207 c 128,-1,129
 2031 2234 2031 2234 1993 2234 c 0,130,131
 1956 2234 1956 2234 1930.5 2207.5 c 128,-1,132
 1905 2181 1905 2181 1905 2143 c 2,133,-1
 1905 1925 l 2,120,121
2491 1682 m 0,134,135
 2491 1646 2491 1646 2517 1618 c 0,136,137
 2576 1561 2576 1561 2648 1618 c 1,138,-1
 2800 1771 l 2,139,140
 2826 1799 2826 1799 2826 1839 c 0,141,142
 2826 1876 2826 1876 2800 1902 c 128,-1,143
 2774 1928 2774 1928 2737 1928 c 0,144,145
 2699 1928 2699 1928 2673 1902 c 2,146,-1
 2517 1745 l 2,147,148
 2491 1717 2491 1717 2491 1682 c 0,134,135
2577 424 m 128,-1,150
 2577 386 2577 386 2605 360 c 2,151,-1
 2673 291 l 2,152,153
 2699 265 2699 265 2735 265 c 0,154,155
 2768 265 2768 265 2800 291 c 1,156,157
 2826 319 2826 319 2826 359 c 0,158,159
 2826 395 2826 395 2800 419 c 2,160,-1
 2731 489 l 2,161,162
 2703 515 2703 515 2667 515 c 0,163,164
 2629 515 2629 515 2603 488.5 c 128,-1,149
 2577 462 2577 462 2577 424 c 128,-1,150
2735 1097 m 0,165,166
 2735 1058 2735 1058 2763 1033 c 1,167,168
 2787 1006 2787 1006 2826 1006 c 2,169,-1
 3045 1006 l 2,170,171
 3082 1006 3082 1006 3107.5 1032.5 c 128,-1,172
 3133 1059 3133 1059 3133 1097 c 128,-1,173
 3133 1135 3133 1135 3107.5 1161 c 128,-1,174
 3082 1187 3082 1187 3045 1187 c 2,175,-1
 2826 1187 l 2,176,177
 2788 1187 2788 1187 2761.5 1160.5 c 128,-1,178
 2735 1134 2735 1134 2735 1097 c 0,165,166
EndSplineSet
EndChar

StartChar: uniF004
Encoding: 61444 61444 23
Width: 2884
GlyphClass: 2
Flags: W
LayerCount: 2
Fore
SplineSet
0 530 m 0,0,1
 0 316 0 316 149 162.5 c 128,-1,2
 298 9 298 9 512 -1 c 0,3,4
 531 -1 531 -1 531 17 c 2,5,-1
 531 160 l 2,6,7
 531 179 531 179 512 179 c 0,8,9
 375 186 375 186 278.5 288.5 c 128,-1,10
 182 391 182 391 182 530 c 0,11,12
 182 663 182 663 272.5 761 c 128,-1,13
 363 859 363 859 497 875 c 1,14,-1
 554 879 l 2,15,16
 575 879 575 879 575 898 c 2,17,-1
 582 957 l 2,18,19
 599 1130 599 1130 728.5 1246.5 c 128,-1,20
 858 1363 858 1363 1034 1363 c 0,21,22
 1208 1363 1208 1363 1339.5 1246.5 c 128,-1,23
 1471 1130 1471 1130 1489 957 c 1,24,-1
 1497 895 l 2,25,26
 1497 875 1497 875 1515 875 c 2,27,-1
 1688 875 l 2,28,29
 1831 875 1831 875 1935.5 772.5 c 128,-1,30
 2040 670 2040 670 2040 530 c 0,31,32
 2040 391 2040 391 1943 288.5 c 128,-1,33
 1846 186 1846 186 1709 179 c 0,34,35
 1688 179 1688 179 1688 160 c 2,36,-1
 1688 17 l 2,37,38
 1688 -1 1688 -1 1709 -1 c 0,39,40
 1923 6 1923 6 2071 160.5 c 128,-1,41
 2219 315 2219 315 2219 530 c 0,42,43
 2219 649 2219 649 2175 744 c 1,44,45
 2301 898 2301 898 2301 1099 c 0,46,47
 2301 1250 2301 1250 2225 1379.5 c 128,-1,48
 2149 1509 2149 1509 2019.5 1585 c 128,-1,49
 1890 1661 1890 1661 1739 1661 c 0,50,51
 1489 1661 1489 1661 1323 1474 c 1,52,53
 1195 1544 1195 1544 1034 1544 c 0,54,55
 808 1544 808 1544 632.5 1404 c 128,-1,56
 457 1264 457 1264 407 1045 c 1,57,58
 230 1003 230 1003 115 859 c 128,-1,59
 0 715 0 715 0 530 c 0,0,1
569 -223 m 1,60,61
 585 -258 585 -258 618 -271 c 0,62,63
 650 -287 650 -287 685.5 -273.5 c 128,-1,64
 721 -260 721 -260 733 -226 c 0,65,66
 749 -191 749 -191 735.5 -157 c 128,-1,67
 722 -123 722 -123 688 -110 c 1,68,69
 656 -93 656 -93 621.5 -107 c 128,-1,70
 587 -121 587 -121 571 -157 c 0,71,72
 556 -184 556 -184 569 -223 c 1,60,61
638 80 m 0,73,74
 638 58 638 58 648 39 c 0,75,76
 679 -10 679 -10 743 -10 c 0,77,78
 794 -10 794 -10 817 59 c 2,79,-1
 928 402 l 2,80,81
 941 441 941 441 920.5 473.5 c 128,-1,82
 900 506 900 506 862 513 c 1,83,84
 827 524 827 524 794.5 506.5 c 128,-1,85
 762 489 762 489 751 453 c 2,86,-1
 641 109 l 2,87,88
 638 94 638 94 638 80 c 0,73,74
837 -519 m 0,89,90
 837 -540 837 -540 842 -550 c 0,91,92
 856 -585 856 -585 890 -598 c 0,93,94
 905 -606 905 -606 927 -606 c 0,95,96
 937 -606 937 -606 959 -600 c 0,97,98
 994 -587 994 -587 1009.5 -551.5 c 128,-1,99
 1025 -516 1025 -516 1009 -481 c 128,-1,100
 993 -446 993 -446 961 -432.5 c 128,-1,101
 929 -419 929 -419 895 -433 c 0,102,103
 864 -445 864 -445 850.5 -470.5 c 128,-1,104
 837 -496 837 -496 837 -519 c 0,89,90
902 1843 m 0,105,106
 902 1803 902 1803 928 1779 c 2,107,-1
 997 1710 l 2,108,109
 1023 1684 1023 1684 1055 1681 c 0,110,111
 1088 1676 1088 1676 1120.5 1705.5 c 128,-1,112
 1153 1735 1153 1735 1153 1774 c 0,113,114
 1153 1812 1153 1812 1127 1838 c 2,115,-1
 1059 1906 l 2,116,117
 1029 1933 1029 1933 993 1933 c 0,118,119
 954 1933 954 1933 928 1907 c 128,-1,120
 902 1881 902 1881 902 1843 c 0,105,106
915 -232 m 0,121,122
 915 -258 915 -258 932 -283 c 128,-1,123
 949 -308 949 -308 983 -318 c 0,124,125
 1001 -322 1001 -322 1009 -322 c 0,126,127
 1033 -322 1033 -322 1050 -314 c 0,128,129
 1082 -301 1082 -301 1096 -253 c 2,130,-1
 1288 402 l 2,131,132
 1299 440 1299 440 1282 471.5 c 128,-1,133
 1265 503 1265 503 1229 513 c 0,134,135
 1191 524 1191 524 1158.5 507 c 128,-1,136
 1126 490 1126 490 1115 453 c 2,137,-1
 919 -207 l 2,138,139
 915 -227 915 -227 915 -232 c 0,121,122
1283 -191 m 0,140,141
 1283 -211 1283 -211 1290 -224 c 0,142,143
 1304 -257 1304 -257 1338 -271 c 0,144,145
 1355 -279 1355 -279 1375 -279 c 0,146,147
 1385 -279 1385 -279 1407 -273 c 0,148,149
 1443 -259 1443 -259 1456 -226 c 0,150,151
 1469 -191 1469 -191 1456 -158.5 c 128,-1,152
 1443 -126 1443 -126 1411 -110 c 0,153,154
 1375 -93 1375 -93 1341 -107 c 128,-1,155
 1307 -121 1307 -121 1290 -157 c 0,156,157
 1283 -170 1283 -170 1283 -191 c 0,140,141
1360 83 m 0,158,159
 1360 58 1360 58 1376.5 34.5 c 128,-1,160
 1393 11 1393 11 1426 1 c 0,161,162
 1440 -2 1440 -2 1453 -2 c 0,163,164
 1515 -2 1515 -2 1537 63 c 2,165,-1
 1647 402 l 2,166,167
 1659 439 1659 439 1640 471 c 128,-1,168
 1621 503 1621 503 1585 513 c 0,169,170
 1547 524 1547 524 1516.5 507 c 128,-1,171
 1486 490 1486 490 1474 453 c 2,172,-1
 1365 112 l 2,173,174
 1360 90 1360 90 1360 83 c 0,158,159
1474 1371 m 1,175,176
 1581 1474 1581 1474 1739 1474 c 0,177,178
 1895 1474 1895 1474 2006 1364.5 c 128,-1,179
 2117 1255 2117 1255 2117 1099 c 0,180,181
 2117 999 2117 999 2062 902 c 1,182,183
 1909 1056 1909 1056 1688 1056 c 2,184,-1
 1655 1056 l 1,185,186
 1608 1241 1608 1241 1474 1371 c 1,175,176
1647 1933 m 2,187,188
 1647 1895 1647 1895 1674 1868 c 128,-1,189
 1701 1841 1701 1841 1739 1841 c 0,190,191
 1776 1841 1776 1841 1801.5 1868 c 128,-1,192
 1827 1895 1827 1895 1827 1933 c 2,193,-1
 1827 2153 l 2,194,195
 1827 2191 1827 2191 1801.5 2218 c 128,-1,196
 1776 2245 1776 2245 1739 2245 c 0,197,198
 1701 2245 1701 2245 1674 2218 c 128,-1,199
 1647 2191 1647 2191 1647 2153 c 2,200,-1
 1647 1933 l 2,187,188
2239 1689 m 128,-1,202
 2239 1650 2239 1650 2266 1625 c 1,203,204
 2290 1597 2290 1597 2327.5 1597.5 c 128,-1,205
 2365 1598 2365 1598 2392 1625 c 2,206,-1
 2546 1779 l 2,207,208
 2575 1803 2575 1803 2575 1843 c 0,209,210
 2575 1881 2575 1881 2547.5 1908 c 128,-1,211
 2520 1935 2520 1935 2482 1935 c 0,212,213
 2447 1935 2447 1935 2421 1906 c 2,214,-1
 2266 1753 l 2,215,201
 2239 1728 2239 1728 2239 1689 c 128,-1,202
2325 419 m 0,216,217
 2325 383 2325 383 2351 355 c 2,218,-1
 2421 288 l 1,219,220
 2444 259 2444 259 2485 259 c 0,221,222
 2523 259 2523 259 2546 288 c 1,223,224
 2575 314 2575 314 2575 352 c 128,-1,225
 2575 390 2575 390 2546 417 c 2,226,-1
 2477 483 l 2,227,228
 2452 511 2452 511 2415 511 c 128,-1,229
 2378 511 2378 511 2351.5 484 c 128,-1,230
 2325 457 2325 457 2325 419 c 0,216,217
2481 1099 m 0,231,232
 2481 1061 2481 1061 2509 1035 c 0,233,234
 2537 1007 2537 1007 2575 1007 c 2,235,-1
 2792 1007 l 2,236,237
 2830 1007 2830 1007 2857.5 1034 c 128,-1,238
 2885 1061 2885 1061 2885 1099 c 0,239,240
 2885 1136 2885 1136 2858 1161.5 c 128,-1,241
 2831 1187 2831 1187 2792 1187 c 2,242,-1
 2575 1187 l 2,243,244
 2535 1187 2535 1187 2508 1161.5 c 128,-1,245
 2481 1136 2481 1136 2481 1099 c 0,231,232
EndSplineSet
EndChar

StartChar: uniF005
Encoding: 61445 61445 24
Width: 2868
GlyphClass: 2
Flags: W
LayerCount: 2
Fore
SplineSet
0 528 m 0,0,1
 0 315 0 315 148.5 162 c 128,-1,2
 297 9 297 9 511 -1 c 0,3,4
 529 -1 529 -1 529 17 c 2,5,-1
 529 163 l 2,6,7
 529 182 529 182 511 182 c 0,8,9
 372 193 372 193 277 292.5 c 128,-1,10
 182 392 182 392 182 528 c 0,11,12
 182 662 182 662 272.5 761.5 c 128,-1,13
 363 861 363 861 496 872 c 1,14,-1
 552 880 l 2,15,16
 573 880 573 880 573 898 c 2,17,-1
 579 952 l 2,18,19
 596 1125 596 1125 725.5 1241.5 c 128,-1,20
 855 1358 855 1358 1031 1358 c 0,21,22
 1205 1358 1205 1358 1334.5 1242 c 128,-1,23
 1464 1126 1464 1126 1483 952 c 2,24,-1
 1490 890 l 2,25,26
 1490 872 1490 872 1510 872 c 2,27,-1
 1681 872 l 2,28,29
 1826 872 1826 872 1928.5 771 c 128,-1,30
 2031 670 2031 670 2031 528 c 0,31,32
 2031 392 2031 392 1936 292.5 c 128,-1,33
 1841 193 1841 193 1702 182 c 0,34,35
 1681 182 1681 182 1681 163 c 2,36,-1
 1681 17 l 2,37,38
 1681 -1 1681 -1 1702 -1 c 0,39,40
 1915 6 1915 6 2062.5 160 c 128,-1,41
 2210 314 2210 314 2210 528 c 0,42,43
 2210 636 2210 636 2160 749 c 1,44,45
 2287 900 2287 900 2287 1098 c 0,46,47
 2287 1212 2287 1212 2242.5 1315.5 c 128,-1,48
 2198 1419 2198 1419 2123 1494 c 128,-1,49
 2048 1569 2048 1569 1944.5 1613 c 128,-1,50
 1841 1657 1841 1657 1728 1657 c 0,51,52
 1481 1657 1481 1657 1314 1472 c 1,53,54
 1177 1538 1177 1538 1031 1538 c 0,55,56
 804 1538 804 1538 629.5 1399 c 128,-1,57
 455 1260 455 1260 406 1040 c 1,58,59
 230 999 230 999 115 855.5 c 128,-1,60
 0 712 0 712 0 528 c 0,0,1
800 -674 m 1,61,-1
 832 -674 l 1,62,-1
 1399 163 l 2,63,64
 1405 170 1405 170 1401.5 177.5 c 128,-1,65
 1398 185 1398 185 1387 185 c 2,66,-1
 1154 185 l 1,67,-1
 1399 634 l 2,68,69
 1411 657 1411 657 1384 657 c 2,70,-1
 1070 657 l 2,71,72
 1057 657 1057 657 1047 642 c 1,73,-1
 817 32 l 1,74,75
 813 10 813 10 832 10 c 2,76,-1
 1063 10 l 1,77,-1
 800 -674 l 1,61,-1
894 1841 m 0,78,79
 894 1801 894 1801 920 1775 c 2,80,-1
 990 1706 l 1,81,82
 1057 1655 1057 1655 1119 1706 c 1,83,84
 1145 1735 1145 1735 1145 1774 c 0,85,86
 1145 1811 1145 1811 1119 1837 c 2,87,-1
 1051 1906 l 2,88,89
 1021 1933 1021 1933 985 1933 c 0,90,91
 948 1933 948 1933 921 1906 c 128,-1,92
 894 1879 894 1879 894 1841 c 0,78,79
1464 1369 m 1,93,94
 1573 1478 1573 1478 1728 1478 c 0,95,96
 1884 1478 1884 1478 1994 1367 c 128,-1,97
 2104 1256 2104 1256 2104 1098 c 0,98,99
 2104 1001 2104 1001 2050 905 c 1,100,101
 1894 1055 1894 1055 1681 1055 c 2,102,-1
 1648 1055 l 1,103,104
 1605 1237 1605 1237 1464 1369 c 1,93,94
1637 1933 m 2,105,106
 1637 1893 1637 1893 1662.5 1867 c 128,-1,107
 1688 1841 1688 1841 1728 1841 c 0,108,109
 1766 1841 1766 1841 1791 1866.5 c 128,-1,110
 1816 1892 1816 1892 1816 1933 c 2,111,-1
 1816 2151 l 2,112,113
 1816 2189 1816 2189 1791 2214 c 128,-1,114
 1766 2239 1766 2239 1728 2239 c 128,-1,115
 1690 2239 1690 2239 1663.5 2214 c 128,-1,116
 1637 2189 1637 2189 1637 2151 c 2,117,-1
 1637 1933 l 2,105,106
2225 1686 m 0,118,119
 2225 1649 2225 1649 2254 1622 c 128,-1,120
 2283 1595 2283 1595 2313 1595 c 0,121,122
 2339 1595 2339 1595 2379 1622 c 1,123,-1
 2533 1775 l 2,124,125
 2560 1804 2560 1804 2560 1842 c 0,126,127
 2560 1881 2560 1881 2533.5 1907 c 128,-1,128
 2507 1933 2507 1933 2469 1933 c 0,129,130
 2434 1933 2434 1933 2407 1906 c 2,131,-1
 2254 1753 l 2,132,133
 2225 1722 2225 1722 2225 1686 c 0,118,119
2312 425 m 128,-1,135
 2312 388 2312 388 2338 360 c 2,136,-1
 2407 290 l 2,137,138
 2433 264 2433 264 2469 264 c 0,139,140
 2507 264 2507 264 2533.5 291 c 128,-1,141
 2560 318 2560 318 2560 358 c 0,142,143
 2560 394 2560 394 2533 419 c 2,144,-1
 2467 489 l 1,145,146
 2437 514 2437 514 2401 514 c 0,147,148
 2364 514 2364 514 2338 488 c 128,-1,134
 2312 462 2312 462 2312 425 c 128,-1,135
2467 1098 m 0,149,150
 2467 1063 2467 1063 2495 1037 c 0,151,152
 2522 1010 2522 1010 2559 1010 c 2,153,-1
 2777 1010 l 2,154,155
 2815 1010 2815 1010 2842 1035.5 c 128,-1,156
 2869 1061 2869 1061 2869 1098 c 0,157,158
 2869 1136 2869 1136 2841.5 1163 c 128,-1,159
 2814 1190 2814 1190 2777 1190 c 2,160,-1
 2559 1190 l 2,161,162
 2522 1190 2522 1190 2494.5 1163 c 128,-1,163
 2467 1136 2467 1136 2467 1098 c 0,149,150
EndSplineSet
EndChar

StartChar: uniF006
Encoding: 61446 61446 25
Width: 2885
GlyphClass: 2
Flags: W
LayerCount: 2
Fore
SplineSet
0 523 m 0,0,1
 0 311 0 311 146 160 c 128,-1,2
 292 9 292 9 506 -1 c 0,3,4
 525 -1 525 -1 525 17 c 2,5,-1
 525 159 l 2,6,7
 525 178 525 178 506 178 c 0,8,9
 369 185 369 185 275 284.5 c 128,-1,10
 181 384 181 384 181 523 c 0,11,12
 181 658 181 658 271 757 c 128,-1,13
 361 856 361 856 495 867 c 1,14,-1
 551 875 l 2,15,16
 568 875 568 875 568 890 c 2,17,-1
 576 949 l 2,18,19
 596 1124 596 1124 723.5 1239 c 128,-1,20
 851 1354 851 1354 1026 1354 c 128,-1,21
 1201 1354 1201 1354 1331.5 1239 c 128,-1,22
 1462 1124 1462 1124 1479 952 c 2,23,-1
 1486 890 l 2,24,25
 1490 872 1490 872 1509 872 c 2,26,-1
 1680 872 l 2,27,28
 1822 872 1822 872 1924 769.5 c 128,-1,29
 2026 667 2026 667 2026 523 c 0,30,31
 2026 384 2026 384 1932 284.5 c 128,-1,32
 1838 185 1838 185 1701 178 c 0,33,34
 1680 178 1680 178 1680 159 c 2,35,-1
 1680 17 l 2,36,37
 1680 -1 1680 -1 1701 -1 c 0,38,39
 1914 6 1914 6 2060 158 c 128,-1,40
 2206 310 2206 310 2206 523 c 0,41,42
 2206 631 2206 631 2165 737 c 1,43,44
 2289 891 2289 891 2289 1094 c 0,45,46
 2289 1207 2289 1207 2245 1310.5 c 128,-1,47
 2201 1414 2201 1414 2126 1489 c 128,-1,48
 2051 1564 2051 1564 1947.5 1608.5 c 128,-1,49
 1844 1653 1844 1653 1730 1653 c 0,50,51
 1484 1653 1484 1653 1318 1467 c 1,52,53
 1175 1537 1175 1537 1026 1537 c 0,54,55
 800 1537 800 1537 627.5 1397 c 128,-1,56
 455 1257 455 1257 406 1037 c 1,57,58
 226 996 226 996 113 852.5 c 128,-1,59
 0 709 0 709 0 523 c 0,0,1
571 -227 m 0,60,61
 571 -254 571 -254 588.5 -281 c 128,-1,62
 606 -308 606 -308 639 -318 c 0,63,64
 676 -329 676 -329 707.5 -314 c 128,-1,65
 739 -299 739 -299 750 -254 c 2,66,-1
 765 -189 l 2,67,68
 773 -153 773 -153 754.5 -121.5 c 128,-1,69
 736 -90 736 -90 699 -79 c 0,70,71
 663 -68 663 -68 631 -87 c 128,-1,72
 599 -106 599 -106 589 -144 c 2,73,-1
 574 -207 l 2,74,75
 571 -216 571 -216 571 -227 c 0,60,61
653 82 m 0,76,77
 653 47 653 47 679 21 c 0,78,79
 704 -6 704 -6 739 -6 c 0,80,81
 777 -6 777 -6 803.5 19.5 c 128,-1,82
 830 45 830 45 830 82 c 128,-1,83
 830 119 830 119 803.5 144.5 c 128,-1,84
 777 170 777 170 739 170 c 0,85,86
 702 170 702 170 677.5 145 c 128,-1,87
 653 120 653 120 653 82 c 0,76,77
718 325 m 0,88,89
 716 300 716 300 732 276.5 c 128,-1,90
 748 253 748 253 783 242 c 0,91,92
 816 232 816 232 849.5 249.5 c 128,-1,93
 883 267 883 267 894 304 c 2,94,-1
 923 400 l 2,95,96
 935 439 935 439 916 469.5 c 128,-1,97
 897 500 897 500 858 511 c 0,98,99
 823 522 823 522 790.5 504 c 128,-1,100
 758 486 758 486 747 451 c 2,101,-1
 721 353 l 1,102,103
 718 326 718 326 718 325 c 0,88,89
841 -560 m 0,104,105
 841 -587 841 -587 858 -612.5 c 128,-1,106
 875 -638 875 -638 910 -648 c 0,107,108
 924 -651 924 -651 936 -651 c 0,109,110
 1005 -651 1005 -651 1021 -586 c 2,111,-1
 1035 -523 l 2,112,113
 1045 -482 1045 -482 1026 -450 c 128,-1,114
 1007 -418 1007 -418 970 -411 c 1,115,116
 936 -400 936 -400 903 -418.5 c 128,-1,117
 870 -437 870 -437 859 -473 c 2,118,-1
 845 -536 l 2,119,120
 841 -554 841 -554 841 -560 c 0,104,105
901 1834 m 128,-1,122
 901 1796 901 1796 927 1770 c 2,123,-1
 997 1702 l 2,124,125
 1019 1677 1019 1677 1054.5 1674.5 c 128,-1,126
 1090 1672 1090 1672 1121 1702 c 0,127,128
 1147 1728 1147 1728 1147 1765 c 0,129,130
 1147 1803 1147 1803 1121 1829 c 2,131,-1
 1054 1898 l 2,132,133
 1029 1923 1029 1923 991 1926 c 0,134,135
 954 1926 954 1926 927.5 1899 c 128,-1,121
 901 1872 901 1872 901 1834 c 128,-1,122
925 -250 m 0,136,137
 925 -286 925 -286 951 -312 c 128,-1,138
 977 -338 977 -338 1013 -338 c 0,139,140
 1051 -338 1051 -338 1076 -313 c 128,-1,141
 1101 -288 1101 -288 1101 -250 c 0,142,143
 1101 -213 1101 -213 1076 -188 c 128,-1,144
 1051 -163 1051 -163 1013 -163 c 128,-1,145
 975 -163 975 -163 950 -188 c 128,-1,146
 925 -213 925 -213 925 -250 c 0,136,137
991 -8 m 0,147,148
 989 -32 989 -32 1005.5 -58 c 128,-1,149
 1022 -84 1022 -84 1054 -90 c 0,150,151
 1091 -100 1091 -100 1122 -84 c 128,-1,152
 1153 -68 1153 -68 1166 -24 c 2,153,-1
 1194 72 l 2,154,155
 1205 107 1205 107 1186.5 139 c 128,-1,156
 1168 171 1168 171 1130 182 c 0,157,158
 1095 193 1095 193 1062 173.5 c 128,-1,159
 1029 154 1029 154 1018 117 c 2,160,-1
 994 21 l 2,161,162
 991 8 991 8 991 -8 c 0,147,148
1286 -237 m 0,163,164
 1286 -264 1286 -264 1302 -288.5 c 128,-1,165
 1318 -313 1318 -313 1351 -323 c 0,166,167
 1356 -323 1356 -323 1366 -325 c 128,-1,168
 1376 -327 1376 -327 1381 -327 c 0,169,170
 1446 -327 1446 -327 1462 -257 c 2,171,-1
 1477 -193 l 2,172,173
 1488 -159 1488 -159 1469.5 -126 c 128,-1,174
 1451 -93 1451 -93 1415 -82 c 0,175,176
 1375 -72 1375 -72 1342.5 -90.5 c 128,-1,177
 1310 -109 1310 -109 1299 -147 c 1,178,-1
 1289 -210 l 2,179,180
 1289 -212 1289 -212 1287.5 -222 c 128,-1,181
 1286 -232 1286 -232 1286 -237 c 0,163,164
1365 78 m 0,182,183
 1365 41 1365 41 1391 17 c 0,184,185
 1415 -9 1415 -9 1453 -9 c 128,-1,186
 1491 -9 1491 -9 1516 16 c 128,-1,187
 1541 41 1541 41 1541 78 c 0,188,189
 1541 116 1541 116 1516 141 c 128,-1,190
 1491 166 1491 166 1453 166 c 128,-1,191
 1415 166 1415 166 1390 141 c 128,-1,192
 1365 116 1365 116 1365 78 c 0,182,183
1430 325 m 0,193,194
 1430 298 1430 298 1447 273.5 c 128,-1,195
 1464 249 1464 249 1499 239 c 0,196,197
 1502 239 1502 239 1512 237 c 128,-1,198
 1522 235 1522 235 1527 235 c 0,199,200
 1544 235 1544 235 1566 245 c 0,201,202
 1599 262 1599 262 1609 301 c 2,203,-1
 1635 397 l 2,204,205
 1645 433 1645 433 1627.5 464.5 c 128,-1,206
 1610 496 1610 496 1574 507 c 0,207,208
 1537 518 1537 518 1505.5 501 c 128,-1,209
 1474 484 1474 484 1463 447 c 2,210,-1
 1433 350 l 2,211,212
 1433 347 1433 347 1431.5 338.5 c 128,-1,213
 1430 330 1430 330 1430 325 c 0,193,194
1467 1361 m 1,214,215
 1573 1467 1573 1467 1730 1467 c 0,216,217
 1888 1467 1888 1467 1999 1358.5 c 128,-1,218
 2110 1250 2110 1250 2110 1094 c 0,219,220
 2110 988 2110 988 2053 894 c 1,221,222
 1896 1051 1896 1051 1680 1051 c 2,223,-1
 1647 1051 l 1,224,225
 1602 1226 1602 1226 1467 1361 c 1,214,215
1643 1923 m 2,226,227
 1643 1886 1643 1886 1667.5 1861.5 c 128,-1,228
 1692 1837 1692 1837 1730 1837 c 0,229,230
 1769 1837 1769 1837 1796 1861.5 c 128,-1,231
 1823 1886 1823 1886 1823 1923 c 2,232,-1
 1823 2143 l 2,233,234
 1823 2180 1823 2180 1795.5 2207 c 128,-1,235
 1768 2234 1768 2234 1730 2234 c 0,236,237
 1693 2234 1693 2234 1668 2207.5 c 128,-1,238
 1643 2181 1643 2181 1643 2143 c 2,239,-1
 1643 1923 l 2,226,227
2232 1681 m 128,-1,241
 2232 1641 2232 1641 2256 1617 c 0,242,243
 2313 1560 2313 1560 2385 1617 c 1,244,-1
 2538 1770 l 2,245,246
 2565 1797 2565 1797 2565 1837 c 0,247,248
 2565 1875 2565 1875 2538.5 1901.5 c 128,-1,249
 2512 1928 2512 1928 2474 1928 c 0,250,251
 2437 1928 2437 1928 2409 1902 c 2,252,-1
 2256 1744 l 2,253,240
 2232 1721 2232 1721 2232 1681 c 128,-1,241
2315 417 m 128,-1,255
 2315 380 2315 380 2344 354 c 2,256,-1
 2409 287 l 1,257,258
 2441 261 2441 261 2474 261 c 0,259,260
 2506 261 2506 261 2538 287 c 0,261,262
 2565 312 2565 312 2565 350 c 0,263,264
 2565 386 2565 386 2538 416 c 2,265,-1
 2469 481 l 2,266,267
 2445 508 2445 508 2408 508 c 128,-1,268
 2371 508 2371 508 2344 481 c 0,269,254
 2315 454 2315 454 2315 417 c 128,-1,255
2473 1094 m 0,270,271
 2473 1056 2473 1056 2501 1031 c 0,272,273
 2530 1002 2530 1002 2567 1002 c 2,274,-1
 2783 1002 l 2,275,276
 2820 1002 2820 1002 2845.5 1029 c 128,-1,277
 2871 1056 2871 1056 2871 1094 c 128,-1,278
 2871 1132 2871 1132 2845.5 1158.5 c 128,-1,279
 2820 1185 2820 1185 2783 1185 c 2,280,-1
 2567 1185 l 2,281,282
 2529 1185 2529 1185 2501 1158 c 128,-1,283
 2473 1131 2473 1131 2473 1094 c 0,270,271
EndSplineSet
EndChar

StartChar: uniF007
Encoding: 61447 61447 26
Width: 2885
GlyphClass: 2
Flags: W
LayerCount: 2
Fore
SplineSet
0 527 m 0,0,1
 0 347 0 347 107 205.5 c 128,-1,2
 214 64 214 64 382 17 c 0,3,4
 397 15 397 15 408 25 c 2,5,-1
 533 175 l 1,6,7
 390 175 390 175 288 278.5 c 128,-1,8
 186 382 186 382 186 527 c 0,9,10
 186 660 186 660 276.5 758 c 128,-1,11
 367 856 367 856 502 872 c 1,12,-1
 554 875 l 2,13,14
 575 875 575 875 575 895 c 2,15,-1
 583 953 l 1,16,17
 600 1126 600 1126 730 1243 c 128,-1,18
 860 1360 860 1360 1035 1360 c 0,19,20
 1211 1360 1211 1360 1342 1243 c 128,-1,21
 1473 1126 1473 1126 1490 953 c 2,22,-1
 1497 890 l 1,23,24
 1504 872 1504 872 1520 872 c 2,25,-1
 1695 872 l 2,26,27
 1836 872 1836 872 1938 770.5 c 128,-1,28
 2040 669 2040 669 2040 527 c 0,29,30
 2040 392 2040 392 1949.5 291 c 128,-1,31
 1859 190 1859 190 1729 179 c 0,32,33
 1651 170 1651 170 1633 149 c 2,34,-1
 1399 -152 l 2,35,36
 1377 -182 1377 -182 1382 -219 c 128,-1,37
 1387 -256 1387 -256 1415 -279 c 1,38,39
 1439 -306 1439 -306 1478.5 -301 c 128,-1,40
 1518 -296 1518 -296 1542 -263 c 2,41,-1
 1747 -1 l 1,42,43
 1878 12 1878 12 1986.5 86 c 128,-1,44
 2095 160 2095 160 2158 277 c 128,-1,45
 2221 394 2221 394 2221 527 c 0,46,47
 2221 642 2221 642 2176 741 c 1,48,49
 2302 894 2302 894 2302 1096 c 0,50,51
 2302 1209 2302 1209 2257 1313 c 128,-1,52
 2212 1417 2212 1417 2136.5 1492 c 128,-1,53
 2061 1567 2061 1567 1957 1612 c 128,-1,54
 1853 1657 1853 1657 1739 1657 c 0,55,56
 1499 1657 1499 1657 1325 1471 c 1,57,58
 1198 1541 1198 1541 1035 1541 c 0,59,60
 809 1541 809 1541 635 1400.5 c 128,-1,61
 461 1260 461 1260 414 1041 c 1,62,63
 233 1000 233 1000 116.5 856 c 128,-1,64
 0 712 0 712 0 527 c 0,0,1
416 -352 m 0,65,66
 428 -387 428 -387 465 -403 c 0,67,68
 500 -419 500 -419 536 -404 c 128,-1,69
 572 -389 572 -389 585 -354 c 0,70,71
 600 -321 600 -321 585.5 -287.5 c 128,-1,72
 571 -254 571 -254 538 -238 c 0,73,74
 503 -222 503 -222 467.5 -236 c 128,-1,75
 432 -250 432 -250 419 -285 c 0,76,77
 406 -326 406 -326 416 -352 c 0,65,66
609 -59 m 2,78,-1
 609 -71 l 2,79,80
 612 -106 612 -106 641 -130 c 0,81,82
 669 -154 669 -154 708 -151 c 128,-1,83
 747 -148 747 -148 769 -120 c 2,84,-1
 1002 181 l 2,85,86
 1025 210 1025 210 1022 248.5 c 128,-1,87
 1019 287 1019 287 991 309 c 0,88,89
 962 333 962 333 923.5 329 c 128,-1,90
 885 325 885 325 859 296 c 2,91,-1
 630 -3 l 2,92,93
 609 -29 609 -29 609 -59 c 2,78,-1
664 -578 m 0,94,95
 664 -588 664 -588 670 -610 c 0,96,97
 684 -645 684 -645 719 -659 c 0,98,99
 737 -666 737 -666 757 -666 c 0,100,101
 772 -666 772 -666 790 -661 c 0,102,103
 824 -648 824 -648 837 -614 c 0,104,105
 853 -579 853 -579 839.5 -543 c 128,-1,106
 826 -507 826 -507 792 -494 c 0,107,108
 757 -478 757 -478 720.5 -492.5 c 128,-1,109
 684 -507 684 -507 672 -541 c 0,110,111
 664 -558 664 -558 664 -578 c 0,94,95
842 -325 m 2,112,-1
 842 -336 l 2,113,114
 845 -372 845 -372 877 -398 c 1,115,116
 901 -424 901 -424 941 -419.5 c 128,-1,117
 981 -415 981 -415 1005 -383 c 2,118,-1
 1447 175 l 2,119,120
 1469 207 1469 207 1465 243.5 c 128,-1,121
 1461 280 1461 280 1432 306 c 0,122,123
 1403 329 1403 329 1366 324.5 c 128,-1,124
 1329 320 1329 320 1306 291 c 2,125,-1
 862 -270 l 2,126,127
 842 -294 842 -294 842 -325 c 2,112,-1
904 1839 m 0,128,129
 904 1800 904 1800 933 1776 c 1,130,-1
 998 1706 l 2,131,132
 1023 1681 1023 1681 1056 1678 c 0,133,134
 1089 1673 1089 1673 1121.5 1702 c 128,-1,135
 1154 1731 1154 1731 1154 1770 c 0,136,137
 1154 1806 1154 1806 1128 1834 c 2,138,-1
 1059 1903 l 2,139,140
 1035 1929 1035 1929 997 1929 c 0,141,142
 958 1929 958 1929 931 1903 c 128,-1,143
 904 1877 904 1877 904 1839 c 0,128,129
1218 -447 m 0,144,145
 1218 -466 1218 -466 1225 -480 c 0,146,147
 1239 -515 1239 -515 1273 -529 c 0,148,149
 1290 -537 1290 -537 1310 -537 c 0,150,151
 1320 -537 1320 -537 1342 -531 c 0,152,153
 1378 -517 1378 -517 1391 -482 c 0,154,155
 1407 -447 1407 -447 1393.5 -411.5 c 128,-1,156
 1380 -376 1380 -376 1346 -363 c 0,157,158
 1311 -347 1311 -347 1274.5 -361 c 128,-1,159
 1238 -375 1238 -375 1225 -409 c 0,160,161
 1218 -427 1218 -427 1218 -447 c 0,144,145
1475 1368 m 1,162,163
 1588 1471 1588 1471 1739 1471 c 0,164,165
 1897 1471 1897 1471 2009 1361.5 c 128,-1,166
 2121 1252 2121 1252 2121 1096 c 0,167,168
 2121 990 2121 990 2066 898 c 1,169,170
 1911 1053 1911 1053 1695 1053 c 2,171,-1
 1659 1053 l 1,172,173
 1615 1237 1615 1237 1475 1368 c 1,162,163
1648 1929 m 2,174,175
 1648 1892 1648 1892 1674.5 1866.5 c 128,-1,176
 1701 1841 1701 1841 1739 1841 c 0,177,178
 1778 1841 1778 1841 1805 1866.5 c 128,-1,179
 1832 1892 1832 1892 1832 1929 c 2,180,-1
 1832 2150 l 2,181,182
 1832 2187 1832 2187 1804.5 2214 c 128,-1,183
 1777 2241 1777 2241 1739 2241 c 0,184,185
 1702 2241 1702 2241 1675 2214.5 c 128,-1,186
 1648 2188 1648 2188 1648 2150 c 2,187,-1
 1648 1929 l 2,174,175
2243 1686 m 128,-1,189
 2243 1648 2243 1648 2267 1622 c 0,190,191
 2295 1595 2295 1595 2332.5 1594.5 c 128,-1,192
 2370 1594 2370 1594 2393 1622 c 1,193,-1
 2552 1776 l 2,194,195
 2578 1802 2578 1802 2578 1841 c 0,196,197
 2578 1879 2578 1879 2550.5 1906.5 c 128,-1,198
 2523 1934 2523 1934 2486 1934 c 0,199,200
 2451 1934 2451 1934 2422 1907 c 2,201,-1
 2267 1750 l 2,202,188
 2243 1724 2243 1724 2243 1686 c 128,-1,189
2326 416 m 128,-1,204
 2326 378 2326 378 2352 352 c 2,205,-1
 2422 285 l 2,206,207
 2448 259 2448 259 2480 256 c 2,208,-1
 2486 256 l 2,209,210
 2514 256 2514 256 2552 285 c 1,211,212
 2578 311 2578 311 2578 347 c 0,213,214
 2578 385 2578 385 2552 414 c 2,215,-1
 2482 480 l 2,216,217
 2456 507 2456 507 2419 507 c 0,218,219
 2380 507 2380 507 2353 480.5 c 128,-1,203
 2326 454 2326 454 2326 416 c 128,-1,204
2486 1096 m 0,220,221
 2486 1058 2486 1058 2512 1032 c 0,222,223
 2538 1003 2538 1003 2576 1003 c 2,224,-1
 2794 1003 l 2,225,226
 2832 1003 2832 1003 2859 1030.5 c 128,-1,227
 2886 1058 2886 1058 2886 1096 c 0,228,229
 2886 1133 2886 1133 2859 1158.5 c 128,-1,230
 2832 1184 2832 1184 2794 1184 c 2,231,-1
 2576 1184 l 2,232,233
 2538 1184 2538 1184 2512 1158.5 c 128,-1,234
 2486 1133 2486 1133 2486 1096 c 0,220,221
EndSplineSet
EndChar

StartChar: uniF008
Encoding: 61448 61448 27
Width: 2877
GlyphClass: 2
Flags: W
LayerCount: 2
Fore
SplineSet
0 529 m 0,0,1
 0 316 0 316 148.5 162.5 c 128,-1,2
 297 9 297 9 512 -1 c 0,3,4
 530 -1 530 -1 530 17 c 2,5,-1
 530 160 l 2,6,7
 530 178 530 178 512 178 c 0,8,9
 375 185 375 185 278.5 287.5 c 128,-1,10
 182 390 182 390 182 529 c 0,11,12
 182 661 182 661 272.5 759 c 128,-1,13
 363 857 363 857 497 873 c 1,14,-1
 553 878 l 2,15,16
 574 878 574 878 574 896 c 2,17,-1
 581 954 l 2,18,19
 598 1127 598 1127 727.5 1244 c 128,-1,20
 857 1361 857 1361 1032 1361 c 0,21,22
 1206 1361 1206 1361 1337 1244 c 128,-1,23
 1468 1127 1468 1127 1486 954 c 1,24,-1
 1494 893 l 2,25,26
 1494 873 1494 873 1512 873 c 2,27,-1
 1685 873 l 2,28,29
 1827 873 1827 873 1930.5 771 c 128,-1,30
 2034 669 2034 669 2034 529 c 0,31,32
 2034 390 2034 390 1938 287.5 c 128,-1,33
 1842 185 1842 185 1705 178 c 0,34,35
 1685 178 1685 178 1685 160 c 2,36,-1
 1685 17 l 2,37,38
 1685 -1 1685 -1 1705 -1 c 0,39,40
 1918 6 1918 6 2066.5 160.5 c 128,-1,41
 2215 315 2215 315 2215 529 c 0,42,43
 2215 644 2215 644 2170 743 c 1,44,45
 2295 898 2295 898 2295 1096 c 0,46,47
 2295 1248 2295 1248 2219.5 1377.5 c 128,-1,48
 2144 1507 2144 1507 2015 1582 c 128,-1,49
 1886 1657 1886 1657 1735 1657 c 0,50,51
 1486 1657 1486 1657 1321 1471 c 1,52,53
 1190 1541 1190 1541 1032 1541 c 0,54,55
 806 1541 806 1541 631 1400.5 c 128,-1,56
 456 1260 456 1260 407 1042 c 1,57,58
 230 1000 230 1000 115 856.5 c 128,-1,59
 0 713 0 713 0 529 c 0,0,1
576 -202 m 0,60,61
 576 -229 576 -229 593.5 -254.5 c 128,-1,62
 611 -280 611 -280 646 -290 c 0,63,64
 664 -294 664 -294 675 -294 c 0,65,66
 738 -294 738 -294 757 -226 c 2,67,-1
 926 401 l 2,68,69
 937 439 937 439 917.5 472 c 128,-1,70
 898 505 898 505 861 512 c 1,71,72
 826 523 826 523 793.5 505 c 128,-1,73
 761 487 761 487 750 451 c 2,74,-1
 581 -179 l 2,75,76
 576 -199 576 -199 576 -202 c 0,60,61
854 -531 m 0,77,78
 854 -561 854 -561 870 -586.5 c 128,-1,79
 886 -612 886 -612 925 -618 c 0,80,81
 943 -622 943 -622 953 -622 c 0,82,83
 978 -622 978 -622 1001 -603.5 c 128,-1,84
 1024 -585 1024 -585 1030 -552 c 2,85,-1
 1286 401 l 2,86,87
 1296 438 1296 438 1278.5 469.5 c 128,-1,88
 1261 501 1261 501 1225 512 c 0,89,90
 1188 523 1188 523 1155.5 505 c 128,-1,91
 1123 487 1123 487 1113 451 c 2,92,-1
 857 -502 l 1,93,94
 854 -529 854 -529 854 -531 c 0,77,78
899 1840 m 128,-1,96
 899 1802 899 1802 926 1775 c 2,97,-1
 995 1705 l 1,98,99
 1026 1681 1026 1681 1061 1681 c 0,100,101
 1095 1681 1095 1681 1123 1706 c 128,-1,102
 1151 1731 1151 1731 1151 1769 c 0,103,104
 1151 1808 1151 1808 1125 1837 c 2,105,-1
 1057 1906 l 2,106,107
 1028 1933 1028 1933 993 1933 c 0,108,109
 954 1933 954 1933 926.5 1905.5 c 128,-1,95
 899 1878 899 1878 899 1840 c 128,-1,96
1297 -205 m 0,110,111
 1297 -231 1297 -231 1313.5 -255.5 c 128,-1,112
 1330 -280 1330 -280 1363 -290 c 0,113,114
 1381 -294 1381 -294 1390 -294 c 0,115,116
 1418 -294 1418 -294 1442.5 -278.5 c 128,-1,117
 1467 -263 1467 -263 1474 -226 c 2,118,-1
 1643 401 l 2,119,120
 1653 438 1653 438 1635.5 469.5 c 128,-1,121
 1618 501 1618 501 1582 512 c 0,122,123
 1544 523 1544 523 1512.5 505 c 128,-1,124
 1481 487 1481 487 1471 451 c 2,125,-1
 1302 -179 l 2,126,127
 1297 -202 1297 -202 1297 -205 c 0,110,111
1471 1368 m 1,128,129
 1584 1475 1584 1475 1735 1475 c 0,130,131
 1892 1475 1892 1475 2002 1364.5 c 128,-1,132
 2112 1254 2112 1254 2112 1096 c 0,133,134
 2112 996 2112 996 2057 899 c 1,135,136
 1902 1054 1902 1054 1685 1054 c 2,137,-1
 1650 1054 l 1,138,139
 1605 1240 1605 1240 1471 1368 c 1,128,129
1643 1928 m 2,140,141
 1643 1891 1643 1891 1670 1865.5 c 128,-1,142
 1697 1840 1697 1840 1735 1840 c 0,143,144
 1772 1840 1772 1840 1797.5 1865 c 128,-1,145
 1823 1890 1823 1890 1823 1928 c 2,146,-1
 1823 2147 l 2,147,148
 1823 2188 1823 2188 1798 2214 c 128,-1,149
 1773 2240 1773 2240 1735 2240 c 0,150,151
 1695 2240 1695 2240 1669 2213.5 c 128,-1,152
 1643 2187 1643 2187 1643 2147 c 2,153,-1
 1643 1928 l 2,140,141
2233 1685 m 0,154,155
 2233 1646 2233 1646 2262 1622 c 1,156,157
 2284 1597 2284 1597 2320.5 1594.5 c 128,-1,158
 2357 1592 2357 1592 2387 1622 c 2,159,-1
 2541 1775 l 2,160,161
 2569 1802 2569 1802 2569 1842 c 0,162,163
 2569 1881 2569 1881 2542.5 1907 c 128,-1,164
 2516 1933 2516 1933 2477 1933 c 0,165,166
 2444 1933 2444 1933 2415 1906 c 2,167,-1
 2262 1752 l 2,168,169
 2233 1725 2233 1725 2233 1685 c 0,154,155
2320 421 m 128,-1,171
 2320 383 2320 383 2346 354 c 2,172,-1
 2415 287 l 2,173,174
 2443 265 2443 265 2479 265 c 1,175,-1
 2481 263 l 1,176,177
 2517 263 2517 263 2543 289 c 128,-1,178
 2569 315 2569 315 2569 354 c 0,179,180
 2569 392 2569 392 2541 416 c 2,181,-1
 2475 486 l 2,182,183
 2446 512 2446 512 2409 512 c 128,-1,184
 2372 512 2372 512 2346 485.5 c 128,-1,170
 2320 459 2320 459 2320 421 c 128,-1,171
2475 1096 m 128,-1,186
 2475 1058 2475 1058 2503 1033 c 0,187,188
 2531 1005 2531 1005 2569 1005 c 2,189,-1
 2786 1005 l 2,190,191
 2824 1005 2824 1005 2851 1032 c 128,-1,192
 2878 1059 2878 1059 2878 1096 c 0,193,194
 2878 1134 2878 1134 2851 1161.5 c 128,-1,195
 2824 1189 2824 1189 2786 1189 c 2,196,-1
 2569 1189 l 2,197,198
 2531 1189 2531 1189 2503 1161.5 c 128,-1,185
 2475 1134 2475 1134 2475 1096 c 128,-1,186
EndSplineSet
EndChar

StartChar: uniF009
Encoding: 61449 61449 28
Width: 2868
GlyphClass: 2
Flags: W
LayerCount: 2
Fore
SplineSet
0 530 m 0,0,1
 0 317 0 317 148.5 164.5 c 128,-1,2
 297 12 297 12 511 1 c 0,3,4
 529 1 529 1 529 19 c 2,5,-1
 529 162 l 2,6,7
 529 181 529 181 511 181 c 0,8,9
 375 188 375 188 280 289.5 c 128,-1,10
 185 391 185 391 185 530 c 0,11,12
 185 664 185 664 274.5 761 c 128,-1,13
 364 858 364 858 499 874 c 1,14,-1
 552 878 l 2,15,16
 573 878 573 878 573 897 c 2,17,-1
 579 954 l 2,18,19
 596 1127 596 1127 725.5 1243.5 c 128,-1,20
 855 1360 855 1360 1031 1360 c 0,21,22
 1206 1360 1206 1360 1336 1243.5 c 128,-1,23
 1466 1127 1466 1127 1482 954 c 1,24,-1
 1490 893 l 2,25,26
 1490 874 1490 874 1509 874 c 2,27,-1
 1687 874 l 2,28,29
 1827 874 1827 874 1929 772 c 128,-1,30
 2031 670 2031 670 2031 530 c 0,31,32
 2031 394 2031 394 1935.5 293 c 128,-1,33
 1840 192 1840 192 1705 181 c 0,34,35
 1687 181 1687 181 1687 162 c 2,36,-1
 1687 19 l 2,37,38
 1687 1 1687 1 1705 1 c 0,39,40
 1845 5 1845 5 1961 77.5 c 128,-1,41
 2077 150 2077 150 2143.5 269.5 c 128,-1,42
 2210 389 2210 389 2210 530 c 0,43,44
 2210 644 2210 644 2166 739 c 1,45,46
 2287 889 2287 889 2287 1089 c 0,47,48
 2287 1203 2287 1203 2243 1306.5 c 128,-1,49
 2199 1410 2199 1410 2124 1485 c 128,-1,50
 2049 1560 2049 1560 1945.5 1604 c 128,-1,51
 1842 1648 1842 1648 1728 1648 c 0,52,53
 1487 1648 1487 1648 1322 1471 c 1,54,55
 1195 1539 1195 1539 1031 1539 c 0,56,57
 805 1539 805 1539 631.5 1399.5 c 128,-1,58
 458 1260 458 1260 411 1042 c 1,59,60
 231 1001 231 1001 115.5 858 c 128,-1,61
 0 715 0 715 0 530 c 0,0,1
578 -184 m 0,62,63
 578 -213 578 -213 595 -241 c 128,-1,64
 612 -269 612 -269 643 -279 c 0,65,66
 674 -290 674 -290 708.5 -272.5 c 128,-1,67
 743 -255 743 -255 755 -214 c 2,68,-1
 782 -102 l 2,69,70
 793 -69 793 -69 774.5 -35.5 c 128,-1,71
 756 -2 756 -2 720 9 c 0,72,73
 680 19 680 19 648 0 c 128,-1,74
 616 -19 616 -19 609 -57 c 2,75,-1
 579 -163 l 2,76,77
 578 -170 578 -170 578 -184 c 0,62,63
717 319 m 0,78,79
 717 258 717 258 785 235 c 0,80,81
 820 223 820 223 853 240.5 c 128,-1,82
 886 258 886 258 897 297 c 2,83,-1
 923 407 l 2,84,85
 934 440 934 440 916 473 c 128,-1,86
 898 506 898 506 862 518 c 0,87,88
 823 528 823 528 791 509.5 c 128,-1,89
 759 491 759 491 752 454 c 2,90,-1
 720 345 l 2,91,92
 717 332 717 332 717 319 c 0,78,79
847 -522 m 0,93,94
 847 -548 847 -548 865 -575 c 128,-1,95
 883 -602 883 -602 917 -613 c 0,96,97
 918 -613 918 -613 927.5 -614.5 c 128,-1,98
 937 -616 937 -616 943 -616 c 0,99,100
 965 -616 965 -616 982 -608 c 0,101,102
 1012 -595 1012 -595 1026 -546 c 2,103,-1
 1055 -440 l 2,104,105
 1066 -403 1066 -403 1047.5 -370.5 c 128,-1,106
 1029 -338 1029 -338 993 -328 c 0,107,108
 956 -317 956 -317 923.5 -335.5 c 128,-1,109
 891 -354 891 -354 881 -390 c 2,110,-1
 851 -499 l 2,111,112
 847 -515 847 -515 847 -522 c 0,93,94
896 1832 m 0,113,114
 896 1792 896 1792 923 1766 c 2,115,-1
 993 1697 l 2,116,117
 1047 1643 1047 1643 1118 1697 c 1,118,119
 1144 1725 1144 1725 1144 1762 c 128,-1,120
 1144 1799 1144 1799 1118 1827 c 2,121,-1
 1051 1897 l 2,122,123
 1025 1923 1025 1923 987 1923 c 0,124,125
 950 1923 950 1923 923 1896.5 c 128,-1,126
 896 1870 896 1870 896 1832 c 0,113,114
991 -11 m 0,127,128
 991 -38 991 -38 1008 -65 c 128,-1,129
 1025 -92 1025 -92 1058 -102 c 0,130,131
 1095 -113 1095 -113 1126 -97 c 128,-1,132
 1157 -81 1157 -81 1169 -37 c 2,133,-1
 1195 71 l 2,134,135
 1206 108 1206 108 1188.5 140.5 c 128,-1,136
 1171 173 1171 173 1135 184 c 0,137,138
 1095 195 1095 195 1062.5 175.5 c 128,-1,139
 1030 156 1030 156 1023 119 c 2,140,-1
 993 9 l 2,141,142
 991 3 991 3 991 -11 c 0,127,128
1288 -195 m 0,143,144
 1292 -255 1292 -255 1355 -283 c 1,145,-1
 1382 -287 l 2,146,147
 1408 -287 1408 -287 1432.5 -270 c 128,-1,148
 1457 -253 1457 -253 1467 -217 c 2,149,-1
 1498 -109 l 2,150,151
 1508 -71 1508 -71 1488.5 -38.5 c 128,-1,152
 1469 -6 1469 -6 1432 1 c 1,153,154
 1399 12 1399 12 1366 -6.5 c 128,-1,155
 1333 -25 1333 -25 1322 -61 c 2,156,-1
 1293 -170 l 2,157,158
 1292 -174 1292 -174 1291 -179 c 128,-1,159
 1290 -184 1290 -184 1289 -187.5 c 128,-1,160
 1288 -191 1288 -191 1288 -195 c 0,143,144
1437 313 m 0,161,162
 1437 287 1437 287 1453.5 261.5 c 128,-1,163
 1470 236 1470 236 1502 227 c 1,164,-1
 1529 224 l 2,165,166
 1560 224 1560 224 1584 243 c 128,-1,167
 1608 262 1608 262 1614 293 c 2,168,-1
 1643 399 l 2,169,170
 1654 437 1654 437 1636 468.5 c 128,-1,171
 1618 500 1618 500 1582 510 c 0,172,173
 1545 521 1545 521 1513.5 503.5 c 128,-1,174
 1482 486 1482 486 1472 450 c 2,175,-1
 1440 337 l 2,176,177
 1437 324 1437 324 1437 313 c 0,161,162
1472 1365 m 1,178,179
 1578 1467 1578 1467 1728 1467 c 0,180,181
 1885 1467 1885 1467 1996 1356.5 c 128,-1,182
 2107 1246 2107 1246 2107 1089 c 0,183,184
 2107 999 2107 999 2057 901 c 1,185,186
 1904 1054 1904 1054 1687 1054 c 2,187,-1
 1651 1054 l 1,188,189
 1608 1235 1608 1235 1472 1365 c 1,178,179
1637 1923 m 2,190,191
 1637 1883 1637 1883 1662.5 1857.5 c 128,-1,192
 1688 1832 1688 1832 1728 1832 c 128,-1,193
 1768 1832 1768 1832 1793.5 1857.5 c 128,-1,194
 1819 1883 1819 1883 1819 1923 c 2,195,-1
 1819 2138 l 2,196,197
 1819 2178 1819 2178 1793.5 2204 c 128,-1,198
 1768 2230 1768 2230 1728 2230 c 128,-1,199
 1688 2230 1688 2230 1662.5 2204 c 128,-1,200
 1637 2178 1637 2178 1637 2138 c 2,201,-1
 1637 1923 l 2,190,191
2229 1678 m 0,202,203
 2229 1638 2229 1638 2253 1613 c 1,204,205
 2286 1586 2286 1586 2319 1586 c 0,206,207
 2349 1586 2349 1586 2382 1613 c 1,208,-1
 2535 1766 l 2,209,210
 2561 1795 2561 1795 2561 1833 c 128,-1,211
 2561 1871 2561 1871 2535 1897 c 128,-1,212
 2509 1923 2509 1923 2472 1923 c 128,-1,213
 2435 1923 2435 1923 2407 1897 c 2,214,-1
 2253 1744 l 2,215,216
 2229 1716 2229 1716 2229 1678 c 0,202,203
2313 416 m 128,-1,218
 2313 379 2313 379 2341 349 c 2,219,-1
 2407 281 l 2,220,221
 2440 248 2440 248 2473 248 c 0,222,223
 2504 248 2504 248 2535 281 c 0,224,225
 2564 310 2564 310 2563 346.5 c 128,-1,226
 2562 383 2562 383 2535 410 c 2,227,-1
 2466 480 l 2,228,229
 2440 506 2440 506 2405 506 c 0,230,231
 2367 506 2367 506 2340 479.5 c 128,-1,217
 2313 453 2313 453 2313 416 c 128,-1,218
2470 1089 m 0,232,233
 2470 1053 2470 1053 2496 1027 c 128,-1,234
 2522 1001 2522 1001 2558 1001 c 2,235,-1
 2776 1001 l 2,236,237
 2817 1001 2817 1001 2843 1026 c 128,-1,238
 2869 1051 2869 1051 2869 1089 c 0,239,240
 2869 1129 2869 1129 2842.5 1155 c 128,-1,241
 2816 1181 2816 1181 2776 1181 c 2,242,-1
 2558 1181 l 2,243,244
 2521 1181 2521 1181 2495.5 1154 c 128,-1,245
 2470 1127 2470 1127 2470 1089 c 0,232,233
EndSplineSet
EndChar

StartChar: uniF00A
Encoding: 61450 61450 29
Width: 2864
GlyphClass: 2
Flags: W
LayerCount: 2
Fore
SplineSet
0 525 m 0,0,1
 0 387 0 387 68 268 c 128,-1,2
 136 149 136 149 253.5 77 c 128,-1,3
 371 5 371 5 510 1 c 0,4,5
 528 1 528 1 528 19 c 2,6,-1
 528 161 l 2,7,8
 528 181 528 181 510 181 c 0,9,10
 374 188 374 188 277.5 289.5 c 128,-1,11
 181 391 181 391 181 525 c 0,12,13
 181 657 181 657 271.5 755 c 128,-1,14
 362 853 362 853 495 869 c 2,15,-1
 551 875 l 2,16,17
 570 875 570 875 570 895 c 2,18,-1
 578 949 l 1,19,20
 595 1124 595 1124 723.5 1240.5 c 128,-1,21
 852 1357 852 1357 1027 1357 c 0,22,23
 1201 1357 1201 1357 1331.5 1240.5 c 128,-1,24
 1462 1124 1462 1124 1479 952 c 1,25,-1
 1487 890 l 2,26,27
 1487 872 1487 872 1505 872 c 2,28,-1
 1677 872 l 2,29,30
 1821 872 1821 872 1923 769.5 c 128,-1,31
 2025 667 2025 667 2025 525 c 0,32,33
 2025 391 2025 391 1928.5 289.5 c 128,-1,34
 1832 188 1832 188 1697 181 c 0,35,36
 1677 181 1677 181 1677 161 c 2,37,-1
 1677 19 l 2,38,39
 1677 1 1677 1 1697 1 c 0,40,41
 1909 8 1909 8 2057 161 c 128,-1,42
 2205 314 2205 314 2205 525 c 0,43,44
 2205 646 2205 646 2159 742 c 1,45,46
 2285 893 2285 893 2285 1094 c 0,47,48
 2285 1244 2285 1244 2210 1372.5 c 128,-1,49
 2135 1501 2135 1501 2006 1576 c 128,-1,50
 1877 1651 1877 1651 1727 1651 c 0,51,52
 1481 1651 1481 1651 1314 1466 c 1,53,54
 1184 1536 1184 1536 1027 1536 c 0,55,56
 802 1536 802 1536 628 1396.5 c 128,-1,57
 454 1257 454 1257 405 1040 c 1,58,59
 226 996 226 996 113 853 c 128,-1,60
 0 710 0 710 0 525 c 0,0,1
677 93 m 0,61,62
 677 55 677 55 702.5 28 c 128,-1,63
 728 1 728 1 765 1 c 128,-1,64
 802 1 802 1 827.5 28 c 128,-1,65
 853 55 853 55 853 93 c 0,66,67
 853 129 853 129 827.5 155 c 128,-1,68
 802 181 802 181 765 181 c 128,-1,69
 728 181 728 181 702.5 155 c 128,-1,70
 677 129 677 129 677 93 c 0,61,62
677 -294 m 0,71,72
 677 -327 677 -327 703 -355 c 0,73,74
 731 -381 731 -381 765 -381 c 0,75,76
 803 -381 803 -381 828 -356 c 128,-1,77
 853 -331 853 -331 853 -294 c 0,78,79
 853 -256 853 -256 827.5 -231 c 128,-1,80
 802 -206 802 -206 765 -206 c 128,-1,81
 728 -206 728 -206 702.5 -231 c 128,-1,82
 677 -256 677 -256 677 -294 c 0,71,72
895 1832 m 0,83,84
 895 1793 895 1793 921 1769 c 2,85,-1
 991 1699 l 2,86,87
 1017 1673 1017 1673 1048 1672 c 0,88,89
 1081 1667 1081 1667 1113 1695.5 c 128,-1,90
 1145 1724 1145 1724 1145 1763 c 128,-1,91
 1145 1802 1145 1802 1119 1831 c 2,92,-1
 1051 1896 l 2,93,94
 1027 1923 1027 1923 989 1923 c 0,95,96
 949 1923 949 1923 922 1896.5 c 128,-1,97
 895 1870 895 1870 895 1832 c 0,83,84
1016 -112 m 0,98,99
 1016 -148 1016 -148 1042 -176 c 0,100,101
 1068 -202 1068 -202 1104 -202 c 0,102,103
 1142 -202 1142 -202 1168.5 -176 c 128,-1,104
 1195 -150 1195 -150 1195 -112 c 0,105,106
 1195 -75 1195 -75 1168.5 -48.5 c 128,-1,107
 1142 -22 1142 -22 1104 -22 c 0,108,109
 1068 -22 1068 -22 1042 -48.5 c 128,-1,110
 1016 -75 1016 -75 1016 -112 c 0,98,99
1016 272 m 0,111,112
 1016 236 1016 236 1042 210 c 128,-1,113
 1068 184 1068 184 1104 184 c 0,114,115
 1142 184 1142 184 1168.5 209.5 c 128,-1,116
 1195 235 1195 235 1195 272 c 128,-1,117
 1195 309 1195 309 1168.5 335 c 128,-1,118
 1142 361 1142 361 1104 361 c 0,119,120
 1068 361 1068 361 1042 335 c 128,-1,121
 1016 309 1016 309 1016 272 c 0,111,112
1016 -502 m 0,122,123
 1016 -537 1016 -537 1042 -563 c 0,124,125
 1069 -590 1069 -590 1104 -590 c 0,126,127
 1142 -590 1142 -590 1168.5 -565 c 128,-1,128
 1195 -540 1195 -540 1195 -502 c 128,-1,129
 1195 -464 1195 -464 1168.5 -437.5 c 128,-1,130
 1142 -411 1142 -411 1104 -411 c 0,131,132
 1069 -411 1069 -411 1042.5 -438 c 128,-1,133
 1016 -465 1016 -465 1016 -502 c 0,122,123
1360 93 m 0,134,135
 1360 55 1360 55 1386 28 c 128,-1,136
 1412 1 1412 1 1449 1 c 128,-1,137
 1486 1 1486 1 1511.5 28 c 128,-1,138
 1537 55 1537 55 1537 93 c 0,139,140
 1537 129 1537 129 1511.5 155 c 128,-1,141
 1486 181 1486 181 1449 181 c 128,-1,142
 1412 181 1412 181 1386 155 c 128,-1,143
 1360 129 1360 129 1360 93 c 0,134,135
1360 -294 m 0,144,145
 1360 -328 1360 -328 1385 -355 c 0,146,147
 1413 -381 1413 -381 1449 -381 c 0,148,149
 1487 -381 1487 -381 1512 -356 c 128,-1,150
 1537 -331 1537 -331 1537 -294 c 0,151,152
 1537 -256 1537 -256 1511.5 -231 c 128,-1,153
 1486 -206 1486 -206 1449 -206 c 0,154,155
 1411 -206 1411 -206 1385.5 -231.5 c 128,-1,156
 1360 -257 1360 -257 1360 -294 c 0,144,145
1464 1365 m 1,157,158
 1574 1471 1574 1471 1727 1471 c 0,159,160
 1882 1471 1882 1471 1992 1360 c 128,-1,161
 2102 1249 2102 1249 2102 1094 c 0,162,163
 2102 994 2102 994 2048 898 c 1,164,165
 1895 1051 1895 1051 1677 1051 c 2,166,-1
 1643 1051 l 1,167,168
 1596 1238 1596 1238 1464 1365 c 1,157,158
1635 1921 m 2,169,170
 1635 1884 1635 1884 1662 1859 c 128,-1,171
 1689 1834 1689 1834 1727 1834 c 128,-1,172
 1765 1834 1765 1834 1790 1859 c 128,-1,173
 1815 1884 1815 1884 1815 1921 c 2,174,-1
 1815 2139 l 2,175,176
 1815 2177 1815 2177 1789.5 2204 c 128,-1,177
 1764 2231 1764 2231 1727 2231 c 128,-1,178
 1690 2231 1690 2231 1662.5 2203.5 c 128,-1,179
 1635 2176 1635 2176 1635 2139 c 2,180,-1
 1635 1921 l 2,169,170
2223 1679 m 0,181,182
 2223 1642 2223 1642 2250 1616 c 0,183,184
 2274 1591 2274 1591 2309.5 1588.5 c 128,-1,185
 2345 1586 2345 1586 2376 1616 c 2,186,-1
 2529 1769 l 2,187,188
 2557 1797 2557 1797 2557 1834 c 0,189,190
 2557 1872 2557 1872 2529.5 1899 c 128,-1,191
 2502 1926 2502 1926 2465 1926 c 0,192,193
 2430 1926 2430 1926 2403 1899 c 2,194,-1
 2250 1743 l 2,195,196
 2223 1718 2223 1718 2223 1679 c 0,181,182
2309 421 m 0,197,198
 2309 381 2309 381 2335 355 c 2,199,-1
 2403 288 l 1,200,201
 2442 262 2442 262 2471 262 c 0,202,203
 2504 262 2504 262 2530.5 289.5 c 128,-1,204
 2557 317 2557 317 2557 355 c 0,205,206
 2557 391 2557 391 2529 417 c 2,207,-1
 2463 486 l 2,208,209
 2435 512 2435 512 2398 512 c 128,-1,210
 2361 512 2361 512 2335 485.5 c 128,-1,211
 2309 459 2309 459 2309 421 c 0,197,198
2463 1094 m 0,212,213
 2463 1056 2463 1056 2491 1031 c 0,214,215
 2518 1002 2518 1002 2557 1002 c 2,216,-1
 2773 1002 l 2,217,218
 2810 1002 2810 1002 2837 1029 c 128,-1,219
 2864 1056 2864 1056 2864 1094 c 128,-1,220
 2864 1132 2864 1132 2837 1158.5 c 128,-1,221
 2810 1185 2810 1185 2773 1185 c 2,222,-1
 2557 1185 l 2,223,224
 2519 1185 2519 1185 2491 1158 c 128,-1,225
 2463 1131 2463 1131 2463 1094 c 0,212,213
EndSplineSet
EndChar

StartChar: uniF00B
Encoding: 61451 61451 30
Width: 2864
GlyphClass: 2
Flags: W
LayerCount: 2
Fore
SplineSet
0 529 m 0,0,1
 0 390 0 390 68 270.5 c 128,-1,2
 136 151 136 151 253 79 c 128,-1,3
 370 7 370 7 509 1 c 0,4,5
 528 1 528 1 528 19 c 2,6,-1
 528 161 l 2,7,8
 528 181 528 181 509 181 c 0,9,10
 373 188 373 188 277 289.5 c 128,-1,11
 181 391 181 391 181 529 c 0,12,13
 181 661 181 661 271 758.5 c 128,-1,14
 361 856 361 856 494 872 c 1,15,-1
 550 875 l 2,16,17
 570 875 570 875 570 894 c 2,18,-1
 578 952 l 1,19,20
 595 1125 595 1125 723.5 1241 c 128,-1,21
 852 1357 852 1357 1027 1357 c 0,22,23
 1199 1357 1199 1357 1329.5 1240.5 c 128,-1,24
 1460 1124 1460 1124 1479 952 c 2,25,-1
 1486 890 l 2,26,27
 1486 872 1486 872 1504 872 c 2,28,-1
 1677 872 l 2,29,30
 1818 872 1818 872 1921.5 770 c 128,-1,31
 2025 668 2025 668 2025 529 c 0,32,33
 2025 391 2025 391 1929 289.5 c 128,-1,34
 1833 188 1833 188 1696 181 c 0,35,36
 1677 181 1677 181 1677 161 c 2,37,-1
 1677 19 l 2,38,39
 1677 1 1677 1 1696 1 c 0,40,41
 1835 5 1835 5 1952 77.5 c 128,-1,42
 2069 150 2069 150 2136 270 c 128,-1,43
 2203 390 2203 390 2203 529 c 0,44,45
 2203 647 2203 647 2159 742 c 1,46,47
 2283 894 2283 894 2283 1094 c 0,48,49
 2283 1245 2283 1245 2208 1373.5 c 128,-1,50
 2133 1502 2133 1502 2005 1576.5 c 128,-1,51
 1877 1651 1877 1651 1727 1651 c 0,52,53
 1479 1651 1479 1651 1314 1466 c 1,54,55
 1183 1536 1183 1536 1027 1536 c 0,56,57
 802 1536 802 1536 628 1396.5 c 128,-1,58
 454 1257 454 1257 405 1040 c 1,59,60
 229 998 229 998 114.5 855 c 128,-1,61
 0 712 0 712 0 529 c 0,0,1
630 435 m 0,62,63
 630 374 630 374 675 331 c 128,-1,64
 720 288 720 288 783 288 c 0,65,66
 847 288 847 288 890 330.5 c 128,-1,67
 933 373 933 373 933 435 c 0,68,69
 933 474 933 474 895.5 542 c 128,-1,70
 858 610 858 610 826 648 c 0,71,72
 792 684 792 684 783 693 c 1,73,-1
 745 650 l 2,74,75
 702 604 702 604 666 540 c 128,-1,76
 630 476 630 476 630 435 c 0,62,63
895 1834 m 0,77,78
 895 1793 895 1793 921 1769 c 2,79,-1
 990 1699 l 1,80,81
 1057 1649 1057 1649 1119 1699 c 1,82,83
 1145 1730 1145 1730 1145 1767 c 128,-1,84
 1145 1804 1145 1804 1119 1830 c 2,85,-1
 1051 1899 l 2,86,87
 1021 1926 1021 1926 986 1926 c 0,88,89
 947 1926 947 1926 921 1899 c 128,-1,90
 895 1872 895 1872 895 1834 c 0,77,78
947 13 m 0,91,92
 947 -92 947 -92 1019.5 -163.5 c 128,-1,93
 1092 -235 1092 -235 1195 -235 c 0,94,95
 1299 -235 1299 -235 1372 -162 c 128,-1,96
 1445 -89 1445 -89 1445 13 c 0,97,98
 1445 99 1445 99 1359 223 c 1,99,100
 1285 320 1285 320 1223 382 c 0,101,102
 1210 391 1210 391 1195 406 c 1,103,-1
 1170 382 l 2,104,105
 1113 330 1113 330 1034 225 c 0,106,107
 947 104 947 104 947 13 c 0,91,92
1104 719 m 0,108,109
 1104 679 1104 679 1134.5 650 c 128,-1,110
 1165 621 1165 621 1208 621 c 0,111,112
 1249 621 1249 621 1278 650 c 128,-1,113
 1307 679 1307 679 1307 719 c 0,114,115
 1307 785 1307 785 1208 890 c 1,116,-1
 1182 863 l 2,117,118
 1153 831 1153 831 1128.5 788.5 c 128,-1,119
 1104 746 1104 746 1104 719 c 0,108,109
1464 1365 m 1,120,121
 1570 1471 1570 1471 1727 1471 c 0,122,123
 1883 1471 1883 1471 1992.5 1361 c 128,-1,124
 2102 1251 2102 1251 2102 1094 c 0,125,126
 2102 1000 2102 1000 2047 898 c 1,127,128
 1892 1051 1892 1051 1677 1051 c 2,129,-1
 1642 1051 l 1,130,131
 1596 1237 1596 1237 1464 1365 c 1,120,121
1635 1926 m 2,132,133
 1635 1888 1635 1888 1662.5 1861 c 128,-1,134
 1690 1834 1690 1834 1727 1834 c 128,-1,135
 1764 1834 1764 1834 1789 1861 c 128,-1,136
 1814 1888 1814 1888 1814 1926 c 2,137,-1
 1814 2143 l 2,138,139
 1814 2181 1814 2181 1789.5 2206 c 128,-1,140
 1765 2231 1765 2231 1727 2231 c 128,-1,141
 1689 2231 1689 2231 1662 2206 c 128,-1,142
 1635 2181 1635 2181 1635 2143 c 2,143,-1
 1635 1926 l 2,132,133
2223 1679 m 0,144,145
 2223 1640 2223 1640 2250 1616 c 0,146,147
 2278 1590 2278 1590 2310 1590 c 0,148,149
 2338 1590 2338 1590 2375 1616 c 1,150,-1
 2528 1769 l 2,151,152
 2557 1798 2557 1798 2557 1835 c 0,153,154
 2557 1874 2557 1874 2530 1900 c 128,-1,155
 2503 1926 2503 1926 2465 1926 c 0,156,157
 2430 1926 2430 1926 2403 1899 c 2,158,-1
 2250 1746 l 2,159,160
 2223 1719 2223 1719 2223 1679 c 0,144,145
2309 423 m 0,161,162
 2309 383 2309 383 2334 355 c 1,163,-1
 2403 293 l 1,164,165
 2426 264 2426 264 2466 264 c 0,166,167
 2505 264 2505 264 2528 293 c 1,168,169
 2557 319 2557 319 2557 355 c 0,170,171
 2557 390 2557 390 2528 417 c 2,172,-1
 2463 486 l 2,173,174
 2435 512 2435 512 2398 512 c 0,175,176
 2360 512 2360 512 2334.5 486 c 128,-1,177
 2309 460 2309 460 2309 423 c 0,161,162
2463 1094 m 0,178,179
 2463 1058 2463 1058 2490 1032 c 0,180,181
 2518 1006 2518 1006 2557 1006 c 2,182,-1
 2773 1006 l 2,183,184
 2811 1006 2811 1006 2837.5 1031.5 c 128,-1,185
 2864 1057 2864 1057 2864 1094 c 0,186,187
 2864 1132 2864 1132 2837 1158.5 c 128,-1,188
 2810 1185 2810 1185 2773 1185 c 2,189,-1
 2557 1185 l 2,190,191
 2519 1185 2519 1185 2491 1158 c 128,-1,192
 2463 1131 2463 1131 2463 1094 c 0,178,179
EndSplineSet
EndChar

StartChar: uniF00C
Encoding: 61452 61452 31
Width: 2541
GlyphClass: 2
Flags: W
LayerCount: 2
Fore
SplineSet
0 899 m 0,0,1
 0 856 0 856 30 828 c 128,-1,2
 60 800 60 800 107 800 c 2,3,-1
 287 800 l 2,4,5
 330 800 330 800 360.5 828.5 c 128,-1,6
 391 857 391 857 391 899 c 0,7,8
 391 945 391 945 361 975 c 128,-1,9
 331 1005 331 1005 287 1005 c 2,10,-1
 107 1005 l 2,11,12
 60 1005 60 1005 30 975.5 c 128,-1,13
 0 946 0 946 0 899 c 0,0,1
189 239 m 0,14,15
 189 84 189 84 302 -29.5 c 128,-1,16
 415 -143 415 -143 570 -143 c 2,17,-1
 1302 -143 l 2,18,19
 1457 -143 1457 -143 1567.5 -31 c 128,-1,20
 1678 81 1678 81 1678 239 c 0,21,22
 1678 316 1678 316 1656 370 c 1,23,24
 1789 455 1789 455 1866.5 596.5 c 128,-1,25
 1944 738 1944 738 1944 899 c 0,26,27
 1944 1029 1944 1029 1893 1147.5 c 128,-1,28
 1842 1266 1842 1266 1756.5 1351.5 c 128,-1,29
 1671 1437 1671 1437 1552.5 1488 c 128,-1,30
 1434 1539 1434 1539 1305 1539 c 0,31,32
 1130 1539 1130 1539 982.5 1453 c 128,-1,33
 835 1367 835 1367 750.5 1220 c 128,-1,34
 666 1073 666 1073 666 899 c 2,35,-1
 666 863 l 1,36,37
 506 772 506 772 455 597 c 1,38,39
 334 559 334 559 261.5 462 c 128,-1,40
 189 365 189 365 189 239 c 0,14,15
355 1750 m 0,41,42
 355 1705 355 1705 383 1678 c 2,43,-1
 555 1498 l 1,44,45
 630 1441 630 1441 705 1498 c 1,46,47
 735 1528 735 1528 735 1573 c 0,48,49
 735 1616 735 1616 705 1648 c 2,50,-1
 529 1823 l 2,51,52
 495 1854 495 1854 455 1854 c 0,53,54
 410 1854 410 1854 382.5 1824 c 128,-1,55
 355 1794 355 1794 355 1750 c 0,41,42
400 239 m 0,56,57
 400 306 400 306 443 354 c 128,-1,58
 486 402 486 402 552 408 c 2,59,-1
 618 417 l 2,60,61
 639 417 639 417 639 441 c 2,62,-1
 649 501 l 1,63,64
 660 593 660 593 727 655 c 128,-1,65
 794 717 794 717 885 717 c 0,66,67
 978 717 978 717 1046.5 655 c 128,-1,68
 1115 593 1115 593 1126 501 c 2,69,-1
 1135 432 l 1,70,71
 1145 408 1145 408 1161 408 c 2,72,-1
 1302 408 l 2,73,74
 1371 408 1371 408 1421.5 358 c 128,-1,75
 1472 308 1472 308 1472 239 c 0,76,77
 1472 167 1472 167 1421.5 116 c 128,-1,78
 1371 65 1371 65 1302 65 c 2,79,-1
 570 65 l 2,80,81
 498 65 498 65 449 116 c 128,-1,82
 400 167 400 167 400 239 c 0,56,57
872 921 m 1,83,84
 883 1096 883 1096 1007 1215 c 128,-1,85
 1131 1334 1131 1334 1305 1334 c 0,86,87
 1483 1334 1483 1334 1608 1207 c 128,-1,88
 1733 1080 1733 1080 1733 899 c 0,89,90
 1733 787 1733 787 1678.5 691.5 c 128,-1,91
 1624 596 1624 596 1531 537 c 1,92,93
 1437 615 1437 615 1314 615 c 1,94,95
 1267 755 1267 755 1150 838 c 128,-1,96
 1033 921 1033 921 885 921 c 2,97,-1
 872 921 l 1,83,84
1201 1854 m 2,98,99
 1201 1810 1201 1810 1231.5 1779.5 c 128,-1,100
 1262 1749 1262 1749 1305 1749 c 0,101,102
 1349 1749 1349 1749 1379.5 1779.5 c 128,-1,103
 1410 1810 1410 1810 1410 1854 c 2,104,-1
 1410 2104 l 2,105,106
 1410 2146 1410 2146 1379.5 2174.5 c 128,-1,107
 1349 2203 1349 2203 1305 2203 c 0,108,109
 1262 2203 1262 2203 1231.5 2174.5 c 128,-1,110
 1201 2146 1201 2146 1201 2104 c 2,111,-1
 1201 1854 l 2,98,99
1875 230 m 128,-1,113
 1875 187 1875 187 1904 155 c 2,114,-1
 2079 -18 l 2,115,116
 2146 -86 2146 -86 2229 -18 c 0,117,118
 2257 9 2257 9 2257 54 c 0,119,120
 2257 97 2257 97 2229 125 c 2,121,-1
 2049 304 l 2,122,123
 2020 331 2020 331 1976 331 c 128,-1,124
 1932 331 1932 331 1903.5 302 c 128,-1,112
 1875 273 1875 273 1875 230 c 128,-1,113
1875 1575 m 0,125,126
 1875 1530 1875 1530 1904 1498 c 0,127,128
 1933 1469 1933 1469 1976 1469 c 0,129,130
 2020 1469 2020 1469 2049 1498 c 2,131,-1
 2229 1678 l 2,132,133
 2257 1705 2257 1705 2257 1750 c 0,134,135
 2257 1794 2257 1794 2226.5 1824 c 128,-1,136
 2196 1854 2196 1854 2152 1854 c 0,137,138
 2110 1854 2110 1854 2079 1823 c 2,139,-1
 1904 1648 l 2,140,141
 1875 1619 1875 1619 1875 1575 c 0,125,126
2151 899 m 0,142,143
 2151 856 2151 856 2181 828 c 128,-1,144
 2211 800 2211 800 2258 800 c 2,145,-1
 2438 800 l 2,146,147
 2481 800 2481 800 2511.5 828.5 c 128,-1,148
 2542 857 2542 857 2542 899 c 0,149,150
 2542 945 2542 945 2512 975 c 128,-1,151
 2482 1005 2482 1005 2438 1005 c 2,152,-1
 2258 1005 l 2,153,154
 2211 1005 2211 1005 2181 975.5 c 128,-1,155
 2151 946 2151 946 2151 899 c 0,142,143
EndSplineSet
EndChar

StartChar: uniF00D
Encoding: 61453 61453 32
Width: 2267
GlyphClass: 2
Flags: W
LayerCount: 2
Fore
SplineSet
0 771 m 0,0,1
 0 810 0 810 27 837 c 0,2,3
 55 863 55 863 91 863 c 2,4,-1
 309 863 l 2,5,6
 346 863 346 863 370.5 836 c 128,-1,7
 395 809 395 809 395 771 c 128,-1,8
 395 733 395 733 370.5 706.5 c 128,-1,9
 346 680 346 680 309 680 c 2,10,-1
 91 680 l 2,11,12
 54 680 54 680 27 707 c 128,-1,13
 0 734 0 734 0 771 c 0,0,1
305 32 m 0,14,15
 305 69 305 69 330 97 c 2,16,-1
 487 249 l 2,17,18
 511 274 511 274 550 274 c 0,19,20
 588 274 588 274 613.5 250 c 128,-1,21
 639 226 639 226 639 189 c 0,22,23
 639 150 639 150 613 121 c 2,24,-1
 461 -31 l 1,25,26
 396 -82 396 -82 330 -31 c 1,27,28
 305 -4 305 -4 305 32 c 0,14,15
305 1509 m 0,29,30
 305 1546 305 1546 330 1574 c 1,31,32
 361 1600 361 1600 398 1600 c 0,33,34
 433 1600 433 1600 461 1574 c 2,35,-1
 613 1417 l 2,36,37
 639 1393 639 1393 639 1354 c 0,38,39
 639 1316 639 1316 613.5 1290.5 c 128,-1,40
 588 1265 588 1265 550 1265 c 0,41,42
 511 1265 511 1265 487 1291 c 2,43,-1
 330 1443 l 2,44,45
 305 1470 305 1470 305 1509 c 0,29,30
577 771 m 0,46,47
 577 920 577 920 652 1048.5 c 128,-1,48
 727 1177 727 1177 855.5 1252 c 128,-1,49
 984 1327 984 1327 1133 1327 c 0,50,51
 1245 1327 1245 1327 1348 1282.5 c 128,-1,52
 1451 1238 1451 1238 1525.5 1163.5 c 128,-1,53
 1600 1089 1600 1089 1644 986 c 128,-1,54
 1688 883 1688 883 1688 771 c 0,55,56
 1688 621 1688 621 1613.5 493 c 128,-1,57
 1539 365 1539 365 1411 290.5 c 128,-1,58
 1283 216 1283 216 1133 216 c 128,-1,59
 983 216 983 216 855 290.5 c 128,-1,60
 727 365 727 365 652 493 c 128,-1,61
 577 621 577 621 577 771 c 0,46,47
758 771 m 0,62,63
 758 615 758 615 867.5 504.5 c 128,-1,64
 977 394 977 394 1133 394 c 128,-1,65
 1289 394 1289 394 1399.5 504.5 c 128,-1,66
 1510 615 1510 615 1510 771 c 0,67,68
 1510 925 1510 925 1399.5 1034 c 128,-1,69
 1289 1143 1289 1143 1133 1143 c 0,70,71
 978 1143 978 1143 868 1034 c 128,-1,72
 758 925 758 925 758 771 c 0,62,63
1042 -58 m 2,73,74
 1042 -20 1042 -20 1068.5 6 c 128,-1,75
 1095 32 1095 32 1133 32 c 0,76,77
 1172 32 1172 32 1198 6 c 128,-1,78
 1224 -20 1224 -20 1224 -58 c 2,79,-1
 1224 -270 l 2,80,81
 1224 -309 1224 -309 1197.5 -336 c 128,-1,82
 1171 -363 1171 -363 1133 -363 c 128,-1,83
 1095 -363 1095 -363 1068.5 -336 c 128,-1,84
 1042 -309 1042 -309 1042 -270 c 2,85,-1
 1042 -58 l 2,73,74
1042 1595 m 2,86,-1
 1042 1813 l 2,87,88
 1042 1850 1042 1850 1069 1877 c 128,-1,89
 1096 1904 1096 1904 1133 1904 c 128,-1,90
 1170 1904 1170 1904 1197 1877 c 128,-1,91
 1224 1850 1224 1850 1224 1813 c 2,92,-1
 1224 1595 l 2,93,94
 1224 1558 1224 1558 1197.5 1533.5 c 128,-1,95
 1171 1509 1171 1509 1133 1509 c 128,-1,96
 1095 1509 1095 1509 1068.5 1533.5 c 128,-1,97
 1042 1558 1042 1558 1042 1595 c 2,86,-1
1631 189 m 0,98,99
 1631 226 1631 226 1655 249 c 0,100,101
 1679 274 1679 274 1715 274 c 0,102,103
 1754 274 1754 274 1779 249 c 2,104,-1
 1935 97 l 2,105,106
 1961 69 1961 69 1961 32 c 128,-1,107
 1961 -5 1961 -5 1935 -31 c 1,108,109
 1871 -81 1871 -81 1807 -31 c 1,110,-1
 1655 121 l 2,111,112
 1631 148 1631 148 1631 189 c 0,98,99
1631 1354 m 0,113,114
 1631 1394 1631 1394 1655 1417 c 2,115,-1
 1807 1574 l 2,116,117
 1835 1600 1835 1600 1870 1600 c 0,118,119
 1908 1600 1908 1600 1934.5 1573 c 128,-1,120
 1961 1546 1961 1546 1961 1509 c 0,121,122
 1961 1469 1961 1469 1935 1443 c 2,123,-1
 1779 1291 l 2,124,125
 1750 1265 1750 1265 1715 1265 c 0,126,127
 1679 1265 1679 1265 1655 1290.5 c 128,-1,128
 1631 1316 1631 1316 1631 1354 c 0,113,114
1872 771 m 128,-1,130
 1872 809 1872 809 1898 837 c 0,131,132
 1924 863 1924 863 1959 863 c 2,133,-1
 2175 863 l 2,134,135
 2212 863 2212 863 2239.5 835.5 c 128,-1,136
 2267 808 2267 808 2267 771 c 128,-1,137
 2267 734 2267 734 2239.5 707 c 128,-1,138
 2212 680 2212 680 2175 680 c 2,139,-1
 1959 680 l 2,140,141
 1922 680 1922 680 1897 706.5 c 128,-1,129
 1872 733 1872 733 1872 771 c 128,-1,130
EndSplineSet
EndChar

StartChar: uniF00E
Encoding: 61454 61454 33
Width: 2883
GlyphClass: 2
Flags: W
LayerCount: 2
Fore
SplineSet
0 530 m 0,0,1
 0 351 0 351 106.5 210 c 128,-1,2
 213 69 213 69 382 22 c 1,3,-1
 312 -159 l 2,4,5
 304 -182 304 -182 327 -182 c 2,6,-1
 554 -182 l 1,7,-1
 402 -631 l 1,8,-1
 433 -631 l 1,9,-1
 898 -27 l 2,10,11
 904 -20 904 -20 900 -12.5 c 128,-1,12
 896 -5 896 -5 885 -5 c 2,13,-1
 651 -5 l 1,14,-1
 917 491 l 2,15,16
 929 514 929 514 902 514 c 2,17,-1
 586 514 l 2,18,19
 571 514 571 514 561 498 c 2,20,-1
 447 191 l 1,21,22
 332 220 332 220 257 314.5 c 128,-1,23
 182 409 182 409 182 530 c 0,24,25
 182 665 182 665 272 763 c 128,-1,26
 362 861 362 861 497 877 c 1,27,-1
 551 880 l 2,28,29
 570 880 570 880 575 895 c 2,30,-1
 583 958 l 1,31,32
 600 1131 600 1131 729.5 1248.5 c 128,-1,33
 859 1366 859 1366 1035 1366 c 0,34,35
 1209 1366 1209 1366 1340.5 1248.5 c 128,-1,36
 1472 1131 1472 1131 1490 958 c 2,37,-1
 1498 895 l 2,38,39
 1498 877 1498 877 1517 877 c 2,40,-1
 1689 877 l 2,41,42
 1832 877 1832 877 1935 774.5 c 128,-1,43
 2038 672 2038 672 2038 530 c 0,44,45
 2038 391 2038 391 1942.5 288.5 c 128,-1,46
 1847 186 1847 186 1710 179 c 0,47,48
 1689 179 1689 179 1689 160 c 2,49,-1
 1689 17 l 2,50,51
 1689 -1 1689 -1 1710 -1 c 0,52,53
 1851 3 1851 3 1968.5 75.5 c 128,-1,54
 2086 148 2086 148 2154 268.5 c 128,-1,55
 2222 389 2222 389 2222 530 c 0,56,57
 2222 647 2222 647 2176 745 c 1,58,59
 2298 899 2298 899 2298 1096 c 0,60,61
 2298 1248 2298 1248 2222.5 1377.5 c 128,-1,62
 2147 1507 2147 1507 2017.5 1582.5 c 128,-1,63
 1888 1658 1888 1658 1736 1658 c 0,64,65
 1621 1658 1621 1658 1512.5 1610 c 128,-1,66
 1404 1562 1404 1562 1325 1477 c 1,67,68
 1196 1546 1196 1546 1035 1546 c 0,69,70
 808 1546 808 1546 632.5 1405.5 c 128,-1,71
 457 1265 457 1265 408 1046 c 1,72,73
 231 1005 231 1005 115.5 860 c 128,-1,74
 0 715 0 715 0 530 c 0,0,1
873 -528 m 0,75,76
 873 -552 873 -552 890 -578 c 128,-1,77
 907 -604 907 -604 939 -614 c 0,78,79
 957 -618 957 -618 966 -618 c 0,80,81
 990 -618 990 -618 1007 -610 c 0,82,83
 1041 -597 1041 -597 1053 -549 c 2,84,-1
 1082 -439 l 2,85,86
 1092 -399 1092 -399 1073 -367.5 c 128,-1,87
 1054 -336 1054 -336 1016 -328 c 0,88,89
 983 -317 983 -317 950 -336 c 128,-1,90
 917 -355 917 -355 905 -391 c 2,91,-1
 878 -502 l 2,92,93
 873 -524 873 -524 873 -528 c 0,75,76
898 1841 m 0,94,95
 898 1804 898 1804 925 1777 c 2,96,-1
 994 1707 l 2,97,98
 1019 1682 1019 1682 1053 1679 c 0,99,100
 1086 1674 1086 1674 1118 1703 c 128,-1,101
 1150 1732 1150 1732 1150 1771 c 0,102,103
 1150 1808 1150 1808 1123 1835 c 2,104,-1
 1056 1905 l 2,105,106
 1030 1931 1030 1931 992 1931 c 0,107,108
 952 1931 952 1931 925 1905 c 128,-1,109
 898 1879 898 1879 898 1841 c 0,94,95
1016 -16 m 0,110,111
 1015 -42 1015 -42 1031 -66.5 c 128,-1,112
 1047 -91 1047 -91 1082 -101 c 0,113,114
 1116 -112 1116 -112 1148.5 -94.5 c 128,-1,115
 1181 -77 1181 -77 1193 -35 c 2,116,-1
 1225 75 l 2,117,118
 1236 110 1236 110 1216.5 142.5 c 128,-1,119
 1197 175 1197 175 1159 186 c 0,120,121
 1123 197 1123 197 1090.5 178.5 c 128,-1,122
 1058 160 1058 160 1047 122 c 2,123,-1
 1021 10 l 2,124,125
 1016 -12 1016 -12 1016 -16 c 0,110,111
1318 -195 m 0,126,127
 1318 -218 1318 -218 1329 -237 c 0,128,129
 1350 -271 1350 -271 1387 -283 c 0,130,131
 1405 -289 1405 -289 1417 -289 c 0,132,133
 1437 -289 1437 -289 1450 -281 c 0,134,135
 1482 -269 1482 -269 1498 -217 c 2,136,-1
 1525 -109 l 2,137,138
 1536 -71 1536 -71 1518 -39.5 c 128,-1,139
 1500 -8 1500 -8 1464 2 c 0,140,141
 1427 13 1427 13 1394.5 -5 c 128,-1,142
 1362 -23 1362 -23 1351 -59 c 2,143,-1
 1321 -170 l 2,144,145
 1318 -184 1318 -184 1318 -195 c 0,126,127
1464 319 m 0,147,148
 1464 291 1464 291 1481.5 265.5 c 128,-1,149
 1499 240 1499 240 1534 230 c 0,150,151
 1561 221 1561 221 1599 235 c 0,152,153
 1631 249 1631 249 1645 296 c 2,154,-1
 1674 403 l 2,155,156
 1684 443 1684 443 1665.5 474.5 c 128,-1,157
 1647 506 1647 506 1609 514 c 0,158,159
 1573 525 1573 525 1541 507.5 c 128,-1,160
 1509 490 1509 490 1498 454 c 2,161,-1
 1467 341 l 2,162,146
 1464 320 1464 320 1464 319 c 0,147,148
1475 1369 m 1,163,164
 1582 1472 1582 1472 1736 1472 c 0,165,166
 1893 1472 1893 1472 2003.5 1362.5 c 128,-1,167
 2114 1253 2114 1253 2114 1096 c 0,168,169
 2114 991 2114 991 2064 903 c 1,170,171
 1910 1057 1910 1057 1689 1057 c 2,172,-1
 1656 1057 l 1,173,174
 1609 1247 1609 1247 1475 1369 c 1,163,164
1645 1931 m 2,175,176
 1645 1893 1645 1893 1671.5 1866 c 128,-1,177
 1698 1839 1698 1839 1736 1839 c 128,-1,178
 1774 1839 1774 1839 1799.5 1865.5 c 128,-1,179
 1825 1892 1825 1892 1825 1931 c 2,180,-1
 1825 2151 l 2,181,182
 1825 2190 1825 2190 1799.5 2216.5 c 128,-1,183
 1774 2243 1774 2243 1736 2243 c 128,-1,184
 1698 2243 1698 2243 1671.5 2216 c 128,-1,185
 1645 2189 1645 2189 1645 2151 c 2,186,-1
 1645 1931 l 2,175,176
2240 1687 m 128,-1,188
 2240 1648 2240 1648 2265 1623 c 0,189,190
 2287 1598 2287 1598 2323.5 1595.5 c 128,-1,191
 2360 1593 2360 1593 2391 1623 c 2,192,-1
 2545 1777 l 2,193,194
 2573 1803 2573 1803 2573 1841 c 128,-1,195
 2573 1879 2573 1879 2545 1905 c 0,196,197
 2519 1933 2519 1933 2481 1933 c 0,198,199
 2444 1933 2444 1933 2419 1905 c 2,200,-1
 2265 1751 l 2,201,187
 2240 1726 2240 1726 2240 1687 c 128,-1,188
2323 416 m 0,202,203
 2323 379 2323 379 2350 352 c 2,204,-1
 2419 285 l 2,205,206
 2448 258 2448 258 2485 258 c 1,207,-1
 2487 256 l 1,208,209
 2522 256 2522 256 2545 285 c 1,210,211
 2573 311 2573 311 2573 349 c 0,212,213
 2573 386 2573 386 2545 414 c 2,214,-1
 2479 480 l 2,215,216
 2450 509 2450 509 2414 509 c 0,217,218
 2376 509 2376 509 2349.5 481.5 c 128,-1,219
 2323 454 2323 454 2323 416 c 0,202,203
2479 1096 m 0,220,221
 2479 1057 2479 1057 2507 1033 c 1,222,223
 2532 1005 2532 1005 2571 1005 c 2,224,-1
 2791 1005 l 2,225,226
 2829 1005 2829 1005 2856 1031.5 c 128,-1,227
 2883 1058 2883 1058 2883 1096 c 128,-1,228
 2883 1134 2883 1134 2856.5 1159.5 c 128,-1,229
 2830 1185 2830 1185 2791 1185 c 2,230,-1
 2571 1185 l 2,231,232
 2532 1185 2532 1185 2505.5 1159.5 c 128,-1,233
 2479 1134 2479 1134 2479 1096 c 0,220,221
EndSplineSet
EndChar

StartChar: uniF010
Encoding: 61456 61456 34
Width: 2875
GlyphClass: 2
Flags: W
LayerCount: 2
Fore
SplineSet
0 528 m 0,0,1
 0 351 0 351 105 212 c 128,-1,2
 210 73 210 73 379 22 c 1,3,-1
 311 -159 l 2,4,5
 304 -181 304 -181 326 -181 c 2,6,-1
 552 -181 l 1,7,-1
 419 -602 l 1,8,-1
 450 -602 l 1,9,-1
 895 -27 l 2,10,11
 901 -20 901 -20 896.5 -12.5 c 128,-1,12
 892 -5 892 -5 881 -5 c 2,13,-1
 649 -5 l 1,14,-1
 913 489 l 2,15,16
 924 512 924 512 898 512 c 2,17,-1
 584 512 l 2,18,19
 569 512 569 512 559 497 c 1,20,-1
 445 190 l 1,21,22
 331 219 331 219 256 314 c 128,-1,23
 181 409 181 409 181 528 c 0,24,25
 181 661 181 661 271.5 759 c 128,-1,26
 362 857 362 857 496 873 c 2,27,-1
 552 880 l 2,28,29
 573 880 573 880 573 899 c 2,30,-1
 579 953 l 2,31,32
 596 1126 596 1126 726 1243 c 128,-1,33
 856 1360 856 1360 1031 1360 c 0,34,35
 1205 1360 1205 1360 1335.5 1243 c 128,-1,36
 1466 1126 1466 1126 1485 953 c 2,37,-1
 1491 891 l 2,38,39
 1491 873 1491 873 1510 873 c 2,40,-1
 1682 873 l 2,41,42
 1827 873 1827 873 1929.5 772 c 128,-1,43
 2032 671 2032 671 2032 528 c 0,44,45
 2032 392 2032 392 1937 292.5 c 128,-1,46
 1842 193 1842 193 1703 182 c 0,47,48
 1682 182 1682 182 1682 163 c 2,49,-1
 1682 17 l 2,50,51
 1682 -1 1682 -1 1703 -1 c 0,52,53
 1916 6 1916 6 2064.5 160 c 128,-1,54
 2213 314 2213 314 2213 528 c 0,55,56
 2213 646 2213 646 2167 742 c 1,57,58
 2293 895 2293 895 2293 1096 c 0,59,60
 2293 1246 2293 1246 2217.5 1375 c 128,-1,61
 2142 1504 2142 1504 2013 1579.5 c 128,-1,62
 1884 1655 1884 1655 1733 1655 c 0,63,64
 1486 1655 1486 1655 1319 1470 c 1,65,66
 1190 1539 1190 1539 1031 1539 c 0,67,68
 805 1539 805 1539 630 1399 c 128,-1,69
 455 1259 455 1259 406 1041 c 1,70,71
 229 1000 229 1000 114.5 856.5 c 128,-1,72
 0 713 0 713 0 528 c 0,0,1
863 -494 m 0,73,74
 861 -518 861 -518 877.5 -541 c 128,-1,75
 894 -564 894 -564 927 -576 c 0,76,77
 938 -579 938 -579 949 -579 c 0,78,79
 976 -579 976 -579 1003 -563 c 128,-1,80
 1030 -547 1030 -547 1039 -513 c 2,81,-1
 1283 401 l 2,82,83
 1293 438 1293 438 1276 469.5 c 128,-1,84
 1259 501 1259 501 1224 512 c 0,85,86
 1187 523 1187 523 1154.5 505 c 128,-1,87
 1122 487 1122 487 1112 451 c 2,88,-1
 866 -466 l 2,89,90
 863 -479 863 -479 863 -494 c 0,73,74
898 1837 m 128,-1,92
 898 1799 898 1799 925 1774 c 2,93,-1
 993 1704 l 2,94,95
 1020 1677 1020 1677 1058 1676.5 c 128,-1,96
 1096 1676 1096 1676 1119 1704 c 1,97,98
 1149 1728 1149 1728 1149 1768 c 0,99,100
 1149 1806 1149 1806 1122 1831 c 2,101,-1
 1055 1901 l 2,102,103
 1027 1927 1027 1927 990 1927 c 0,104,105
 950 1927 950 1927 924 1901 c 128,-1,91
 898 1875 898 1875 898 1837 c 128,-1,92
1306 -168 m 0,106,107
 1306 -187 1306 -187 1318 -208 c 0,108,109
 1338 -240 1338 -240 1371 -254 c 0,110,111
 1382 -259 1382 -259 1403 -259 c 0,112,113
 1427 -259 1427 -259 1438 -253 c 0,114,115
 1470 -240 1470 -240 1482 -191 c 2,116,-1
 1641 401 l 2,117,118
 1651 439 1651 439 1633 470 c 128,-1,119
 1615 501 1615 501 1579 512 c 0,120,121
 1542 523 1542 523 1510.5 505 c 128,-1,122
 1479 487 1479 487 1469 451 c 2,123,-1
 1310 -144 l 2,124,125
 1310 -148 1310 -148 1308 -156 c 128,-1,126
 1306 -164 1306 -164 1306 -168 c 0,106,107
1469 1367 m 1,127,128
 1576 1470 1576 1470 1733 1470 c 0,129,130
 1889 1470 1889 1470 1999.5 1361 c 128,-1,131
 2110 1252 2110 1252 2110 1096 c 0,132,133
 2110 996 2110 996 2055 899 c 1,134,135
 1896 1056 1896 1056 1682 1056 c 2,136,-1
 1649 1056 l 1,137,138
 1600 1244 1600 1244 1469 1367 c 1,127,128
1641 1927 m 2,139,140
 1641 1890 1641 1890 1668.5 1862.5 c 128,-1,141
 1696 1835 1696 1835 1733 1835 c 0,142,143
 1771 1835 1771 1835 1796 1862 c 128,-1,144
 1821 1889 1821 1889 1821 1927 c 2,145,-1
 1821 2146 l 2,146,147
 1821 2184 1821 2184 1796 2211 c 128,-1,148
 1771 2238 1771 2238 1733 2238 c 0,149,150
 1696 2238 1696 2238 1668.5 2211 c 128,-1,151
 1641 2184 1641 2184 1641 2146 c 2,152,-1
 1641 1927 l 2,139,140
2231 1683 m 128,-1,154
 2231 1644 2231 1644 2259 1619 c 1,155,156
 2282 1592 2282 1592 2319.5 1592 c 128,-1,157
 2357 1592 2357 1592 2384 1619 c 2,158,-1
 2538 1774 l 2,159,160
 2566 1799 2566 1799 2566 1837 c 128,-1,161
 2566 1875 2566 1875 2539 1902 c 128,-1,162
 2512 1929 2512 1929 2474 1929 c 0,163,164
 2439 1929 2439 1929 2413 1901 c 2,165,-1
 2259 1747 l 2,166,153
 2231 1722 2231 1722 2231 1683 c 128,-1,154
2317 418 m 0,167,168
 2317 382 2317 382 2343 354 c 2,169,-1
 2413 287 l 2,170,171
 2433 264 2433 264 2471 261 c 1,172,-1
 2472 260 l 2,173,174
 2474 260 2474 260 2477 259.5 c 128,-1,175
 2480 259 2480 259 2482 259 c 0,176,177
 2512 259 2512 259 2538 287 c 0,178,179
 2566 313 2566 313 2566 351 c 0,180,181
 2566 388 2566 388 2538 416 c 2,182,-1
 2469 481 l 2,183,184
 2443 510 2443 510 2407 510 c 0,185,186
 2370 510 2370 510 2343.5 483 c 128,-1,187
 2317 456 2317 456 2317 418 c 0,167,168
2472 1096 m 128,-1,189
 2472 1059 2472 1059 2501 1032 c 0,190,191
 2530 1003 2530 1003 2566 1003 c 2,192,-1
 2783 1003 l 2,193,194
 2820 1003 2820 1003 2847.5 1030.5 c 128,-1,195
 2875 1058 2875 1058 2875 1096 c 0,196,197
 2875 1133 2875 1133 2848 1158.5 c 128,-1,198
 2821 1184 2821 1184 2783 1184 c 2,199,-1
 2566 1184 l 2,200,201
 2526 1184 2526 1184 2499 1158.5 c 128,-1,188
 2472 1133 2472 1133 2472 1096 c 128,-1,189
EndSplineSet
EndChar

StartChar: uniF011
Encoding: 61457 61457 35
Width: 2428
GlyphClass: 2
Flags: W
LayerCount: 2
Fore
SplineSet
0 90 m 0,0,1
 0 130 0 130 27 157 c 0,2,3
 55 183 55 183 91 183 c 2,4,-1
 669 183 l 2,5,6
 787 183 787 183 870.5 98.5 c 128,-1,7
 954 14 954 14 954 -104 c 0,8,9
 954 -223 954 -223 871 -306.5 c 128,-1,10
 788 -390 788 -390 669 -390 c 128,-1,11
 550 -390 550 -390 466 -306 c 0,12,13
 441 -281 441 -281 441 -242 c 128,-1,14
 441 -203 441 -203 465.5 -177.5 c 128,-1,15
 490 -152 490 -152 530 -152 c 0,16,17
 567 -152 567 -152 595 -178 c 0,18,19
 627 -209 627 -209 669 -209 c 128,-1,20
 711 -209 711 -209 742 -178.5 c 128,-1,21
 773 -148 773 -148 773 -104 c 0,22,23
 773 -62 773 -62 742 -31.5 c 128,-1,24
 711 -1 711 -1 669 -1 c 2,25,-1
 91 -1 l 2,26,27
 54 -1 54 -1 27 25.5 c 128,-1,28
 0 52 0 52 0 90 c 0,0,1
0 414 m 0,29,30
 0 453 0 453 27 480 c 0,31,32
 55 506 55 506 91 506 c 2,33,-1
 1216 506 l 2,34,35
 1258 506 1258 506 1289 537 c 128,-1,36
 1320 568 1320 568 1320 611 c 128,-1,37
 1320 654 1320 654 1289 684.5 c 128,-1,38
 1258 715 1258 715 1216 715 c 0,39,40
 1172 715 1172 715 1143 685 c 1,41,42
 1114 661 1114 661 1075 661 c 128,-1,43
 1036 661 1036 661 1011.5 685.5 c 128,-1,44
 987 710 987 710 987 749 c 0,45,46
 987 789 987 789 1011 814 c 0,47,48
 1092 895 1092 895 1216 895 c 0,49,50
 1335 895 1335 895 1418.5 812 c 128,-1,51
 1502 729 1502 729 1502 611 c 128,-1,52
 1502 493 1502 493 1418.5 409.5 c 128,-1,53
 1335 326 1335 326 1216 326 c 2,54,-1
 91 326 l 2,55,56
 53 326 53 326 26.5 351.5 c 128,-1,57
 0 377 0 377 0 414 c 0,29,30
229 666 m 0,58,59
 229 653 229 653 246 653 c 2,60,-1
 400 653 l 2,61,62
 413 653 413 653 423 669 c 0,63,64
 459 756 459 756 535 813 c 128,-1,65
 611 870 611 870 705 877 c 1,66,-1
 761 885 l 2,67,68
 782 885 782 885 782 903 c 2,69,-1
 790 958 l 1,70,71
 807 1131 807 1131 936.5 1248.5 c 128,-1,72
 1066 1366 1066 1366 1242 1366 c 0,73,74
 1419 1366 1419 1366 1549 1249.5 c 128,-1,75
 1679 1133 1679 1133 1697 958 c 1,76,-1
 1705 895 l 2,77,78
 1705 877 1705 877 1723 877 c 2,79,-1
 1896 877 l 2,80,81
 2041 877 2041 877 2144.5 775 c 128,-1,82
 2248 673 2248 673 2248 530 c 128,-1,83
 2248 387 2248 387 2144.5 285 c 128,-1,84
 2041 183 2041 183 1896 183 c 2,85,-1
 1159 183 l 2,86,87
 1139 183 1139 183 1139 165 c 2,88,-1
 1139 17 l 2,89,90
 1139 -1 1139 -1 1159 -1 c 2,91,-1
 1896 -1 l 2,92,93
 2041 -1 2041 -1 2163.5 70 c 128,-1,94
 2286 141 2286 141 2357.5 263.5 c 128,-1,95
 2429 386 2429 386 2429 530 c 0,96,97
 2429 675 2429 675 2357.5 797 c 128,-1,98
 2286 919 2286 919 2163.5 990 c 128,-1,99
 2041 1061 2041 1061 1896 1061 c 2,100,-1
 1863 1061 l 1,101,102
 1813 1274 1813 1274 1639.5 1410 c 128,-1,103
 1466 1546 1466 1546 1242 1546 c 0,104,105
 1016 1546 1016 1546 842 1405.5 c 128,-1,106
 668 1265 668 1265 621 1046 c 1,107,108
 484 1014 484 1014 378 914.5 c 128,-1,109
 272 815 272 815 231 679 c 1,110,-1
 231 675 l 2,111,112
 229 670 229 670 229 666 c 0,58,59
EndSplineSet
EndChar

StartChar: uniF012
Encoding: 61458 61458 36
Width: 2539
GlyphClass: 2
Flags: W
LayerCount: 2
Fore
SplineSet
0 87 m 0,0,1
 0 126 0 126 27 152 c 128,-1,2
 54 178 54 178 94 178 c 2,3,-1
 1051 178 l 2,4,5
 1089 178 1089 178 1114 152.5 c 128,-1,6
 1139 127 1139 127 1139 87 c 0,7,8
 1139 49 1139 49 1113.5 23.5 c 128,-1,9
 1088 -2 1088 -2 1051 -2 c 2,10,-1
 94 -2 l 2,11,12
 54 -2 54 -2 27 23.5 c 128,-1,13
 0 49 0 49 0 87 c 0,0,1
281 413 m 0,14,15
 281 451 281 451 310 477 c 0,16,17
 333 501 333 501 373 501 c 2,18,-1
 1333 501 l 2,19,20
 1370 501 1370 501 1394.5 476 c 128,-1,21
 1419 451 1419 451 1419 413 c 128,-1,22
 1419 375 1419 375 1394.5 348 c 128,-1,23
 1370 321 1370 321 1333 321 c 2,24,-1
 373 321 l 2,25,26
 336 321 336 321 308.5 348.5 c 128,-1,27
 281 376 281 376 281 413 c 0,14,15
347 662 m 0,28,29
 347 647 347 647 365 647 c 2,30,-1
 517 647 l 2,31,32
 532 647 532 647 542 662 c 0,33,34
 578 749 578 749 653 806 c 128,-1,35
 728 863 728 863 821 870 c 1,36,-1
 879 877 l 2,37,38
 897 877 897 877 897 896 c 2,39,-1
 904 951 l 1,40,41
 922 1125 922 1125 1052.5 1241 c 128,-1,42
 1183 1357 1183 1357 1359 1357 c 0,43,44
 1533 1357 1533 1357 1661 1242.5 c 128,-1,45
 1789 1128 1789 1128 1811 954 c 2,46,-1
 1819 891 l 2,47,48
 1819 874 1819 874 1838 874 c 2,49,-1
 2009 874 l 2,50,51
 2154 874 2154 874 2256.5 772 c 128,-1,52
 2359 670 2359 670 2359 525 c 0,53,54
 2359 385 2359 385 2255 281.5 c 128,-1,55
 2151 178 2151 178 2009 178 c 2,56,-1
 1274 178 l 2,57,58
 1255 178 1255 178 1255 160 c 2,59,-1
 1255 17 l 2,60,61
 1255 -2 1255 -2 1274 -2 c 2,62,-1
 2009 -2 l 2,63,64
 2117 -2 2117 -2 2215.5 39.5 c 128,-1,65
 2314 81 2314 81 2384.5 152 c 128,-1,66
 2455 223 2455 223 2497 320.5 c 128,-1,67
 2539 418 2539 418 2539 525 c 0,68,69
 2539 669 2539 669 2468.5 790.5 c 128,-1,70
 2398 912 2398 912 2276 982.5 c 128,-1,71
 2154 1053 2154 1053 2009 1053 c 2,72,-1
 1976 1053 l 1,73,74
 1924 1268 1924 1268 1751.5 1404.5 c 128,-1,75
 1579 1541 1579 1541 1359 1541 c 0,76,77
 1132 1541 1132 1541 957.5 1399.5 c 128,-1,78
 783 1258 783 1258 736 1038 c 1,79,80
 598 1007 598 1007 494 908.5 c 128,-1,81
 390 810 390 810 349 672 c 1,82,-1
 349 670 l 2,83,84
 347 666 347 666 347 662 c 0,28,29
469 -243 m 0,85,86
 469 -204 469 -204 497 -179 c 0,87,88
 521 -154 521 -154 560 -154 c 2,89,-1
 1519 -154 l 2,90,91
 1558 -154 1558 -154 1584.5 -179.5 c 128,-1,92
 1611 -205 1611 -205 1611 -243 c 128,-1,93
 1611 -281 1611 -281 1584 -308 c 128,-1,94
 1557 -335 1557 -335 1519 -335 c 2,95,-1
 560 -335 l 2,96,97
 523 -335 523 -335 496 -308 c 128,-1,98
 469 -281 469 -281 469 -243 c 0,85,86
EndSplineSet
EndChar

StartChar: uniF013
Encoding: 61459 61459 37
Width: 2370
GlyphClass: 2
Flags: W
LayerCount: 2
Fore
SplineSet
0 454 m 0,0,1
 0 613 0 613 99 736.5 c 128,-1,2
 198 860 198 860 353 895 c 1,3,4
 394 1083 394 1083 543 1202.5 c 128,-1,5
 692 1322 692 1322 886 1322 c 0,6,7
 1075 1322 1075 1322 1223.5 1205.5 c 128,-1,8
 1372 1089 1372 1089 1416 907 c 1,9,-1
 1445 907 l 2,10,11
 1633 907 1633 907 1766 774.5 c 128,-1,12
 1899 642 1899 642 1899 454 c 128,-1,13
 1899 266 1899 266 1766 132.5 c 128,-1,14
 1633 -1 1633 -1 1445 -1 c 2,15,-1
 455 -1 l 2,16,17
 363 -1 363 -1 278.5 35 c 128,-1,18
 194 71 194 71 133 132 c 128,-1,19
 72 193 72 193 36 277.5 c 128,-1,20
 0 362 0 362 0 454 c 0,0,1
155 454 m 0,21,22
 155 332 155 332 243 244.5 c 128,-1,23
 331 157 331 157 455 157 c 2,24,-1
 1445 157 l 2,25,26
 1569 157 1569 157 1657 244.5 c 128,-1,27
 1745 332 1745 332 1745 454 c 128,-1,28
 1745 576 1745 576 1657 663 c 128,-1,29
 1569 750 1569 750 1445 750 c 2,30,-1
 1297 750 l 2,31,32
 1281 750 1281 750 1281 766 c 2,33,-1
 1274 818 l 1,34,35
 1258 969 1258 969 1147.5 1068.5 c 128,-1,36
 1037 1168 1037 1168 886 1168 c 128,-1,37
 735 1168 735 1168 623.5 1068 c 128,-1,38
 512 968 512 968 498 818 c 1,39,-1
 491 773 l 2,40,41
 491 757 491 757 474 757 c 2,42,-1
 426 750 l 1,43,44
 311 740 311 740 233 655 c 128,-1,45
 155 570 155 570 155 454 c 0,21,22
1099 1384 m 0,46,47
 1083 1369 1083 1369 1107 1362 c 0,48,49
 1176 1332 1176 1332 1222 1303 c 1,50,51
 1240 1298 1240 1298 1246 1306 c 0,52,53
 1343 1398 1343 1398 1472 1398 c 128,-1,54
 1601 1398 1601 1398 1695.5 1311.5 c 128,-1,55
 1790 1225 1790 1225 1801 1098 c 1,56,-1
 1811 1030 l 1,57,-1
 1962 1030 l 2,58,59
 2066 1030 2066 1030 2141 955.5 c 128,-1,60
 2216 881 2216 881 2216 778 c 0,61,62
 2216 682 2216 682 2150 611 c 128,-1,63
 2084 540 2084 540 1987 529 c 0,64,65
 1971 529 1971 529 1971 512 c 2,66,-1
 1971 391 l 2,67,68
 1971 374 1971 374 1987 374 c 0,69,70
 2148 384 2148 384 2259 501 c 128,-1,71
 2370 618 2370 618 2370 778 c 0,72,73
 2370 947 2370 947 2250.5 1066.5 c 128,-1,74
 2131 1186 2131 1186 1962 1186 c 2,75,-1
 1946 1186 l 1,76,77
 1904 1346 1904 1346 1770.5 1449.5 c 128,-1,78
 1637 1553 1637 1553 1472 1553 c 0,79,80
 1246 1553 1246 1553 1099 1384 c 0,46,47
EndSplineSet
EndChar

StartChar: uniF014
Encoding: 61460 61460 38
Width: 2641
GlyphClass: 2
Flags: W
LayerCount: 2
Fore
SplineSet
0 86 m 0,0,1
 0 125 0 125 27 151 c 128,-1,2
 54 177 54 177 94 177 c 2,3,-1
 2085 177 l 2,4,5
 2125 177 2125 177 2150.5 151.5 c 128,-1,6
 2176 126 2176 126 2176 86 c 0,7,8
 2176 49 2176 49 2149.5 24 c 128,-1,9
 2123 -1 2123 -1 2085 -1 c 2,10,-1
 94 -1 l 2,11,12
 54 -1 54 -1 27 24 c 128,-1,13
 0 49 0 49 0 86 c 0,0,1
279 421 m 0,14,15
 279 460 279 460 307 485 c 0,16,17
 331 509 331 509 370 509 c 2,18,-1
 2362 509 l 2,19,20
 2399 509 2399 509 2424 483.5 c 128,-1,21
 2449 458 2449 458 2449 421 c 0,22,23
 2449 383 2449 383 2424 356.5 c 128,-1,24
 2399 330 2399 330 2362 330 c 2,25,-1
 370 330 l 2,26,27
 332 330 332 330 305.5 357 c 128,-1,28
 279 384 279 384 279 421 c 0,14,15
293 675 m 0,29,30
 293 661 293 661 309 661 c 2,31,-1
 462 661 l 2,32,33
 472 661 472 661 483 678 c 0,34,35
 521 761 521 761 596.5 814 c 128,-1,36
 672 867 672 867 762 874 c 1,37,-1
 821 882 l 2,38,39
 839 882 839 882 839 901 c 2,40,-1
 846 954 l 1,41,42
 863 1127 863 1127 992.5 1242.5 c 128,-1,43
 1122 1358 1122 1358 1296 1358 c 0,44,45
 1469 1358 1469 1358 1597.5 1244 c 128,-1,46
 1726 1130 1726 1130 1744 958 c 1,47,-1
 1752 897 l 2,48,49
 1752 879 1752 879 1773 879 c 2,50,-1
 1943 879 l 2,51,52
 2046 879 2046 879 2130.5 824 c 128,-1,53
 2215 769 2215 769 2256 678 c 0,54,55
 2267 661 2267 661 2278 661 c 2,56,-1
 2431 661 l 2,57,58
 2450 661 2450 661 2446 685 c 0,59,60
 2399 849 2399 849 2260 953 c 128,-1,61
 2121 1057 2121 1057 1943 1057 c 2,62,-1
 1909 1057 l 1,63,64
 1856 1270 1856 1270 1685.5 1405.5 c 128,-1,65
 1515 1541 1515 1541 1296 1541 c 0,66,67
 1072 1541 1072 1541 898 1400.5 c 128,-1,68
 724 1260 724 1260 675 1042 c 1,69,70
 539 1010 539 1010 436.5 913 c 128,-1,71
 334 816 334 816 294 681 c 1,72,-1
 294 685 l 1,73,74
 293 682 293 682 293 675 c 0,29,30
465 -241 m 0,75,76
 465 -203 465 -203 493 -178 c 0,77,78
 517 -154 517 -154 557 -154 c 2,79,-1
 2550 -154 l 2,80,81
 2588 -154 2588 -154 2614.5 -179 c 128,-1,82
 2641 -204 2641 -204 2641 -241 c 0,83,84
 2641 -279 2641 -279 2614 -306 c 128,-1,85
 2587 -333 2587 -333 2550 -333 c 2,86,-1
 557 -333 l 2,87,88
 520 -333 520 -333 492.5 -305.5 c 128,-1,89
 465 -278 465 -278 465 -241 c 0,75,76
EndSplineSet
EndChar

StartChar: uniF015
Encoding: 61461 61461 39
Width: 2210
GlyphClass: 2
Flags: W
LayerCount: 2
Fore
SplineSet
0 528 m 0,0,1
 0 315 0 315 148.5 162 c 128,-1,2
 297 9 297 9 511 -1 c 0,3,4
 529 -1 529 -1 529 17 c 2,5,-1
 529 160 l 2,6,7
 529 178 529 178 511 178 c 0,8,9
 374 185 374 185 278 287 c 128,-1,10
 182 389 182 389 182 528 c 0,11,12
 182 660 182 660 272 758 c 128,-1,13
 362 856 362 856 495 872 c 1,14,-1
 552 875 l 2,15,16
 573 875 573 875 573 895 c 2,17,-1
 579 952 l 2,18,19
 596 1125 596 1125 725.5 1241.5 c 128,-1,20
 855 1358 855 1358 1030 1358 c 0,21,22
 1204 1358 1204 1358 1334 1241.5 c 128,-1,23
 1464 1125 1464 1125 1482 952 c 1,24,-1
 1490 890 l 2,25,26
 1490 872 1490 872 1509 872 c 2,27,-1
 1681 872 l 2,28,29
 1823 872 1823 872 1927 770 c 128,-1,30
 2031 668 2031 668 2031 528 c 0,31,32
 2031 389 2031 389 1934.5 287 c 128,-1,33
 1838 185 1838 185 1702 178 c 0,34,35
 1681 178 1681 178 1681 160 c 2,36,-1
 1681 17 l 2,37,38
 1681 -1 1681 -1 1702 -1 c 0,39,40
 1841 3 1841 3 1958 75 c 128,-1,41
 2075 147 2075 147 2142.5 267.5 c 128,-1,42
 2210 388 2210 388 2210 528 c 0,43,44
 2210 671 2210 671 2139 791.5 c 128,-1,45
 2068 912 2068 912 1946 981.5 c 128,-1,46
 1824 1051 1824 1051 1681 1051 c 2,47,-1
 1647 1051 l 1,48,49
 1595 1265 1595 1265 1422.5 1401 c 128,-1,50
 1250 1537 1250 1537 1030 1537 c 0,51,52
 805 1537 805 1537 630 1397.5 c 128,-1,53
 455 1258 455 1258 406 1040 c 1,54,55
 229 999 229 999 114.5 855.5 c 128,-1,56
 0 712 0 712 0 528 c 0,0,1
581 -240 m 0,57,58
 596 -274 596 -274 630 -289 c 0,59,60
 662 -305 662 -305 696.5 -291 c 128,-1,61
 731 -277 731 -277 744 -243 c 0,62,63
 760 -208 760 -208 746.5 -174.5 c 128,-1,64
 733 -141 733 -141 698 -128 c 1,65,66
 666 -111 666 -111 632.5 -125 c 128,-1,67
 599 -139 599 -139 583 -175 c 0,68,69
 568 -201 568 -201 581 -240 c 0,57,58
648 61 m 0,70,71
 648 36 648 36 664.5 12.5 c 128,-1,72
 681 -11 681 -11 714 -22 c 1,73,74
 745 -40 745 -40 780 -23.5 c 128,-1,75
 815 -7 815 -7 827 40 c 2,76,-1
 923 401 l 2,77,78
 933 441 933 441 914.5 472.5 c 128,-1,79
 896 504 896 504 858 511 c 0,80,81
 845 514 845 514 832 514 c 0,82,83
 806 514 806 514 781.5 498 c 128,-1,84
 757 482 757 482 747 451 c 2,85,-1
 653 89 l 2,86,87
 648 66 648 66 648 61 c 0,70,71
847 -535 m 0,88,89
 847 -554 847 -554 853 -566 c 0,90,91
 867 -601 867 -601 901 -614 c 0,92,93
 916 -622 916 -622 936 -622 c 0,94,95
 946 -622 946 -622 968 -616 c 0,96,97
 1003 -603 1003 -603 1018.5 -568 c 128,-1,98
 1034 -533 1034 -533 1018 -498 c 128,-1,99
 1002 -463 1002 -463 970.5 -449 c 128,-1,100
 939 -435 939 -435 904 -449 c 0,101,102
 874 -462 874 -462 860.5 -487 c 128,-1,103
 847 -512 847 -512 847 -535 c 0,88,89
925 -257 m 0,104,105
 925 -316 925 -316 992 -335 c 0,106,107
 1010 -339 1010 -339 1018 -339 c 0,108,109
 1042 -339 1042 -339 1059 -331 c 0,110,111
 1092 -318 1092 -318 1104 -270 c 2,112,-1
 1282 401 l 2,113,114
 1292 439 1292 439 1275.5 470 c 128,-1,115
 1259 501 1259 501 1223 511 c 0,116,117
 1210 514 1210 514 1194 514 c 0,118,119
 1168 514 1168 514 1142.5 498 c 128,-1,120
 1117 482 1117 482 1111 451 c 2,121,-1
 929 -225 l 2,122,123
 925 -247 925 -247 925 -257 c 0,104,105
1291 -208 m 0,124,125
 1291 -227 1291 -227 1299 -242 c 0,126,127
 1312 -273 1312 -273 1346 -289 c 0,128,129
 1364 -296 1364 -296 1383 -296 c 0,130,131
 1393 -296 1393 -296 1415 -290 c 0,132,133
 1449 -277 1449 -277 1464 -243 c 0,134,135
 1476 -208 1476 -208 1463 -176 c 128,-1,136
 1450 -144 1450 -144 1418 -128 c 0,137,138
 1382 -111 1382 -111 1348.5 -125 c 128,-1,139
 1315 -139 1315 -139 1299 -175 c 0,140,141
 1291 -190 1291 -190 1291 -208 c 0,124,125
1368 66 m 2,142,143
 1368 43 1368 43 1385 18 c 128,-1,144
 1402 -7 1402 -7 1433 -17 c 0,145,146
 1458 -22 1458 -22 1462 -22 c 0,147,148
 1477 -22 1477 -22 1501 -11 c 0,149,150
 1533 4 1533 4 1544 45 c 2,151,-1
 1640 401 l 1,152,153
 1643 428 1643 428 1643 429 c 0,154,155
 1643 454 1643 454 1626.5 478 c 128,-1,156
 1610 502 1610 502 1578 511 c 0,157,158
 1564 514 1564 514 1550 514 c 0,159,160
 1524 514 1524 514 1500 498.5 c 128,-1,161
 1476 483 1476 483 1467 451 c 2,162,-1
 1371 93 l 1,163,-1
 1368 66 l 2,142,143
EndSplineSet
EndChar

StartChar: uniF016
Encoding: 61462 61462 40
Width: 1502
GlyphClass: 2
Flags: W
LayerCount: 2
Fore
SplineSet
0 -283 m 1,0,-1
 42 -283 l 1,1,-1
 776 803 l 2,2,3
 791 832 791 832 760 832 c 2,4,-1
 457 832 l 1,5,-1
 776 1413 l 2,6,7
 790 1442 790 1442 755 1442 c 2,8,-1
 349 1442 l 2,9,10
 332 1442 332 1442 318 1423 c 1,11,-1
 22 634 l 1,12,13
 18 605 18 605 42 605 c 2,14,-1
 335 605 l 1,15,-1
 0 -283 l 1,0,-1
907 392 m 1,16,-1
 936 392 l 1,17,-1
 1493 1210 l 2,18,19
 1501 1223 1501 1223 1497 1231 c 128,-1,20
 1493 1239 1493 1239 1479 1239 c 2,21,-1
 1255 1239 l 1,22,-1
 1488 1669 l 2,23,24
 1507 1701 1507 1701 1469 1701 c 2,25,-1
 1177 1701 l 2,26,27
 1156 1701 1156 1701 1145 1681 c 2,28,-1
 923 1096 l 2,29,30
 918 1082 918 1082 924 1074 c 128,-1,31
 930 1066 930 1066 944 1066 c 2,32,-1
 1162 1066 l 1,33,-1
 907 392 l 1,16,-1
EndSplineSet
EndChar

StartChar: uniF017
Encoding: 61463 61463 41
Width: 2209
GlyphClass: 2
Flags: W
LayerCount: 2
Fore
SplineSet
0 522 m 0,0,1
 0 311 0 311 149 158 c 128,-1,2
 298 5 298 5 510 -2 c 0,3,4
 529 -2 529 -2 529 16 c 2,5,-1
 529 158 l 2,6,7
 529 177 529 177 510 177 c 0,8,9
 375 184 375 184 278 285.5 c 128,-1,10
 181 387 181 387 181 522 c 0,11,12
 181 656 181 656 271.5 755.5 c 128,-1,13
 362 855 362 855 495 866 c 1,14,-1
 551 874 l 2,15,16
 571 874 571 874 571 893 c 2,17,-1
 579 946 l 1,18,19
 595 1121 595 1121 724.5 1239 c 128,-1,20
 854 1357 854 1357 1030 1357 c 0,21,22
 1203 1357 1203 1357 1333 1240 c 128,-1,23
 1463 1123 1463 1123 1482 951 c 2,24,-1
 1489 889 l 2,25,26
 1489 870 1489 870 1509 870 c 2,27,-1
 1680 870 l 2,28,29
 1824 870 1824 870 1927 767 c 128,-1,30
 2030 664 2030 664 2030 522 c 0,31,32
 2030 387 2030 387 1933.5 285.5 c 128,-1,33
 1837 184 1837 184 1701 177 c 0,34,35
 1680 177 1680 177 1680 158 c 2,36,-1
 1680 16 l 2,37,38
 1680 -2 1680 -2 1701 -2 c 0,39,40
 1914 5 1914 5 2061.5 157.5 c 128,-1,41
 2209 310 2209 310 2209 522 c 0,42,43
 2209 665 2209 665 2138 786.5 c 128,-1,44
 2067 908 2067 908 1945 978.5 c 128,-1,45
 1823 1049 1823 1049 1680 1049 c 2,46,-1
 1647 1049 l 1,47,48
 1594 1263 1594 1263 1422 1399.5 c 128,-1,49
 1250 1536 1250 1536 1030 1536 c 0,50,51
 805 1536 805 1536 630 1396 c 128,-1,52
 455 1256 455 1256 406 1039 c 1,53,54
 226 993 226 993 113 850.5 c 128,-1,55
 0 708 0 708 0 522 c 0,0,1
577 -227 m 0,56,57
 577 -254 577 -254 594.5 -281 c 128,-1,58
 612 -308 612 -308 645 -318 c 0,59,60
 682 -329 682 -329 713 -314 c 128,-1,61
 744 -299 744 -299 755 -254 c 2,62,-1
 770 -189 l 2,63,64
 778 -153 778 -153 760 -121.5 c 128,-1,65
 742 -90 742 -90 705 -79 c 0,66,67
 669 -68 669 -68 636.5 -87 c 128,-1,68
 604 -106 604 -106 594 -144 c 2,69,-1
 579 -207 l 2,70,71
 577 -213 577 -213 577 -227 c 0,56,57
658 82 m 0,72,73
 658 48 658 48 685 21 c 0,74,75
 710 -6 710 -6 745 -6 c 0,76,77
 783 -6 783 -6 809 19.5 c 128,-1,78
 835 45 835 45 835 82 c 128,-1,79
 835 119 835 119 809 144.5 c 128,-1,80
 783 170 783 170 745 170 c 0,81,82
 708 170 708 170 683 145 c 128,-1,83
 658 120 658 120 658 82 c 0,72,73
723 325 m 0,84,85
 721 300 721 300 737.5 276.5 c 128,-1,86
 754 253 754 253 789 242 c 0,87,88
 822 232 822 232 855 249.5 c 128,-1,89
 888 267 888 267 899 304 c 2,90,-1
 929 400 l 2,91,92
 941 439 941 439 922 469.5 c 128,-1,93
 903 500 903 500 864 511 c 0,94,95
 829 522 829 522 796.5 504 c 128,-1,96
 764 486 764 486 753 451 c 2,97,-1
 727 353 l 2,98,99
 727 350 727 350 725 340.5 c 128,-1,100
 723 331 723 331 723 325 c 0,84,85
847 -560 m 0,101,102
 847 -588 847 -588 863.5 -613 c 128,-1,103
 880 -638 880 -638 915 -648 c 0,104,105
 928 -651 928 -651 942 -651 c 0,106,107
 1010 -651 1010 -651 1026 -586 c 2,108,-1
 1041 -523 l 2,109,110
 1051 -482 1051 -482 1032 -450 c 128,-1,111
 1013 -418 1013 -418 976 -411 c 1,112,113
 942 -400 942 -400 909 -418.5 c 128,-1,114
 876 -437 876 -437 865 -473 c 2,115,-1
 850 -536 l 2,116,117
 847 -550 847 -550 847 -560 c 0,101,102
930 -250 m 0,118,119
 930 -285 930 -285 957 -312 c 0,120,121
 983 -338 983 -338 1018 -338 c 0,122,123
 1056 -338 1056 -338 1081 -313 c 128,-1,124
 1106 -288 1106 -288 1106 -250 c 0,125,126
 1106 -213 1106 -213 1081 -188 c 128,-1,127
 1056 -163 1056 -163 1018 -163 c 128,-1,128
 980 -163 980 -163 955 -188 c 128,-1,129
 930 -213 930 -213 930 -250 c 0,118,119
997 -8 m 0,130,131
 995 -32 995 -32 1011 -58 c 128,-1,132
 1027 -84 1027 -84 1059 -90 c 0,133,134
 1096 -100 1096 -100 1127 -84 c 128,-1,135
 1158 -68 1158 -68 1171 -24 c 2,136,-1
 1200 72 l 2,137,138
 1211 107 1211 107 1192.5 139 c 128,-1,139
 1174 171 1174 171 1136 182 c 0,140,141
 1101 193 1101 193 1068 173.5 c 128,-1,142
 1035 154 1035 154 1024 117 c 2,143,-1
 1000 21 l 2,144,145
 997 8 997 8 997 -8 c 0,130,131
1291 -237 m 0,146,147
 1291 -263 1291 -263 1307.5 -288 c 128,-1,148
 1324 -313 1324 -313 1357 -323 c 0,149,150
 1362 -323 1362 -323 1371.5 -325 c 128,-1,151
 1381 -327 1381 -327 1386 -327 c 0,152,153
 1451 -327 1451 -327 1467 -257 c 2,154,-1
 1482 -193 l 2,155,156
 1493 -159 1493 -159 1475 -126 c 128,-1,157
 1457 -93 1457 -93 1421 -82 c 0,158,159
 1381 -72 1381 -72 1348.5 -90.5 c 128,-1,160
 1316 -109 1316 -109 1305 -147 c 1,161,-1
 1295 -210 l 2,162,163
 1295 -214 1295 -214 1293 -223 c 128,-1,164
 1291 -232 1291 -232 1291 -237 c 0,146,147
1370 78 m 0,165,166
 1370 42 1370 42 1397 17 c 0,167,168
 1421 -9 1421 -9 1458 -9 c 0,169,170
 1496 -9 1496 -9 1521 16 c 128,-1,171
 1546 41 1546 41 1546 78 c 0,172,173
 1546 116 1546 116 1521 141 c 128,-1,174
 1496 166 1496 166 1458 166 c 128,-1,175
 1420 166 1420 166 1395 141 c 128,-1,176
 1370 116 1370 116 1370 78 c 0,165,166
1435 325 m 0,177,178
 1435 298 1435 298 1452.5 273.5 c 128,-1,179
 1470 249 1470 249 1505 239 c 0,180,181
 1508 239 1508 239 1518 237 c 128,-1,182
 1528 235 1528 235 1533 235 c 0,183,184
 1549 235 1549 235 1571 245 c 0,185,186
 1605 263 1605 263 1615 301 c 2,187,-1
 1641 397 l 2,188,189
 1651 433 1651 433 1633 464.5 c 128,-1,190
 1615 496 1615 496 1579 507 c 0,191,192
 1542 518 1542 518 1511 501 c 128,-1,193
 1480 484 1480 484 1469 447 c 2,194,-1
 1439 350 l 2,195,196
 1439 346 1439 346 1437 337.5 c 128,-1,197
 1435 329 1435 329 1435 325 c 0,177,178
EndSplineSet
EndChar

StartChar: uniF018
Encoding: 61464 61464 42
Width: 2213
GlyphClass: 2
Flags: W
LayerCount: 2
Fore
SplineSet
0 525 m 0,0,1
 0 346 0 346 104.5 206.5 c 128,-1,2
 209 67 209 67 377 16 c 0,3,4
 391 13 391 13 403 24 c 2,5,-1
 527 177 l 1,6,7
 385 177 385 177 284 279 c 128,-1,8
 183 381 183 381 183 525 c 0,9,10
 183 660 183 660 273 759.5 c 128,-1,11
 363 859 363 859 497 870 c 1,12,-1
 553 877 l 2,13,14
 570 877 570 877 570 891 c 2,15,-1
 578 950 l 2,16,17
 598 1126 598 1126 726.5 1241.5 c 128,-1,18
 855 1357 855 1357 1030 1357 c 0,19,20
 1206 1357 1206 1357 1336.5 1240.5 c 128,-1,21
 1467 1124 1467 1124 1483 950 c 1,22,-1
 1491 888 l 2,23,24
 1495 870 1495 870 1514 870 c 2,25,-1
 1687 870 l 2,26,27
 1831 870 1831 870 1932 769 c 128,-1,28
 2033 668 2033 668 2033 525 c 0,29,30
 2033 392 2033 392 1943 292.5 c 128,-1,31
 1853 193 1853 193 1722 177 c 0,32,33
 1703 177 1703 177 1670 171 c 0,34,35
 1639 168 1639 168 1626 147 c 2,36,-1
 1374 -151 l 2,37,38
 1351 -180 1351 -180 1356.5 -218 c 128,-1,39
 1362 -256 1362 -256 1390 -279 c 1,40,41
 1407 -299 1407 -299 1450 -299 c 0,42,43
 1492 -299 1492 -299 1515 -262 c 1,44,-1
 1741 -2 l 1,45,46
 1940 18 1940 18 2077 170 c 128,-1,47
 2214 322 2214 322 2214 525 c 0,48,49
 2214 633 2214 633 2172.5 731 c 128,-1,50
 2131 829 2131 829 2060.5 899.5 c 128,-1,51
 1990 970 1990 970 1892.5 1012 c 128,-1,52
 1795 1054 1795 1054 1687 1054 c 2,53,-1
 1653 1054 l 1,54,55
 1600 1266 1600 1266 1426.5 1401.5 c 128,-1,56
 1253 1537 1253 1537 1030 1537 c 0,57,58
 881 1537 881 1537 749.5 1473.5 c 128,-1,59
 618 1410 618 1410 528 1296.5 c 128,-1,60
 438 1183 438 1183 407 1038 c 1,61,62
 227 998 227 998 113.5 854.5 c 128,-1,63
 0 711 0 711 0 525 c 0,0,1
361 -330 m 0,64,65
 361 -340 361 -340 367 -362 c 0,66,67
 381 -396 381 -396 414 -409 c 0,68,69
 449 -425 449 -425 485 -411 c 128,-1,70
 521 -397 521 -397 534 -363 c 0,71,72
 550 -328 550 -328 536 -294 c 128,-1,73
 522 -260 522 -260 487 -248 c 1,74,75
 451 -231 451 -231 418 -245 c 128,-1,76
 385 -259 385 -259 369 -295 c 0,77,78
 361 -312 361 -312 361 -330 c 0,64,65
558 -70 m 2,79,-1
 558 -81 l 2,80,81
 561 -117 561 -117 590 -141 c 1,82,83
 626 -161 626 -161 656 -161 c 0,84,85
 692 -161 692 -161 721 -126 c 2,86,-1
 969 169 l 2,87,88
 992 197 992 197 990 239 c 0,89,90
 986 273 986 273 960.5 296 c 128,-1,91
 935 319 935 319 905 319 c 0,92,93
 896 319 896 319 890 318 c 0,94,95
 853 311 853 311 830 283 c 2,96,-1
 578 -13 l 2,97,98
 558 -36 558 -36 558 -70 c 2,79,-1
640 -573 m 128,-1,100
 640 -592 640 -592 648 -607 c 0,101,102
 661 -641 661 -641 695 -657 c 0,103,104
 712 -665 712 -665 730 -665 c 0,105,106
 750 -665 750 -665 763 -657 c 0,107,108
 800 -642 800 -642 813 -613 c 0,109,110
 829 -578 829 -578 815.5 -542 c 128,-1,111
 802 -506 802 -506 768 -493 c 0,112,113
 733 -477 733 -477 696.5 -491 c 128,-1,114
 660 -505 660 -505 648 -539 c 0,115,99
 640 -554 640 -554 640 -573 c 128,-1,100
818 -323 m 2,116,-1
 818 -335 l 1,117,118
 822 -370 822 -370 851 -393.5 c 128,-1,119
 880 -417 880 -417 910 -417 c 0,120,121
 946 -417 946 -417 977 -382 c 2,122,-1
 1441 177 l 2,123,124
 1459 197 1459 197 1459 232 c 2,125,-1
 1459 245 l 1,126,127
 1455 281 1455 281 1430 302 c 128,-1,128
 1405 323 1405 323 1374 323 c 2,129,-1
 1360 323 l 2,130,131
 1323 321 1323 321 1301 290 c 2,132,-1
 837 -265 l 2,133,134
 818 -293 818 -293 818 -323 c 2,116,-1
1193 -446 m 0,135,136
 1193 -460 1193 -460 1199 -478 c 0,137,138
 1213 -513 1213 -513 1248 -528 c 0,139,140
 1270 -534 1270 -534 1281 -534 c 0,141,142
 1304 -534 1304 -534 1317 -526 c 0,143,144
 1353 -512 1353 -512 1366 -481 c 1,145,146
 1382 -454 1382 -454 1368 -410 c 0,147,148
 1355 -377 1355 -377 1321 -363 c 1,149,-1
 1283 -353 l 1,150,151
 1269 -356 1269 -356 1249 -361 c 0,152,153
 1214 -374 1214 -374 1201 -408 c 0,154,155
 1193 -427 1193 -427 1193 -446 c 0,135,136
EndSplineSet
EndChar

StartChar: uniF019
Encoding: 61465 61465 43
Width: 2211
GlyphClass: 2
Flags: W
LayerCount: 2
Fore
SplineSet
0 527 m 0,0,1
 0 711 0 711 115 854.5 c 128,-1,2
 230 998 230 998 406 1039 c 1,3,4
 456 1257 456 1257 631 1397 c 128,-1,5
 806 1537 806 1537 1031 1537 c 0,6,7
 1251 1537 1251 1537 1423.5 1400.5 c 128,-1,8
 1596 1264 1596 1264 1648 1050 c 1,9,-1
 1682 1050 l 2,10,11
 1825 1050 1825 1050 1947 980.5 c 128,-1,12
 2069 911 2069 911 2140 790.5 c 128,-1,13
 2211 670 2211 670 2211 527 c 0,14,15
 2211 387 2211 387 2143.5 266.5 c 128,-1,16
 2076 146 2076 146 1959 74 c 128,-1,17
 1842 2 1842 2 1703 -2 c 0,18,19
 1682 -2 1682 -2 1682 16 c 2,20,-1
 1682 158 l 2,21,22
 1682 177 1682 177 1703 177 c 0,23,24
 1839 184 1839 184 1935.5 286 c 128,-1,25
 2032 388 2032 388 2032 527 c 128,-1,26
 2032 666 2032 666 1928 768.5 c 128,-1,27
 1824 871 1824 871 1682 871 c 2,28,-1
 1510 871 l 2,29,30
 1491 871 1491 871 1491 889 c 2,31,-1
 1483 951 l 1,32,33
 1465 1124 1465 1124 1334.5 1240.5 c 128,-1,34
 1204 1357 1204 1357 1031 1357 c 0,35,36
 856 1357 856 1357 726.5 1240.5 c 128,-1,37
 597 1124 597 1124 581 951 c 1,38,-1
 573 894 l 2,39,40
 573 874 573 874 552 874 c 2,41,-1
 496 871 l 1,42,43
 363 855 363 855 272.5 757 c 128,-1,44
 182 659 182 659 182 527 c 0,45,46
 182 388 182 388 278 286 c 128,-1,47
 374 184 374 184 511 177 c 0,48,49
 529 177 529 177 529 158 c 2,50,-1
 529 16 l 2,51,52
 529 -2 529 -2 511 -2 c 0,53,54
 297 8 297 8 148.5 161 c 128,-1,55
 0 314 0 314 0 527 c 0,0,1
571 -186 m 0,56,57
 571 -179 571 -179 575 -165 c 2,58,-1
 749 450 l 2,59,60
 759 481 759 481 783.5 497 c 128,-1,61
 808 513 808 513 833 513 c 0,62,63
 844 513 844 513 859 510 c 0,64,65
 897 503 897 503 916.5 471 c 128,-1,66
 936 439 936 439 925 400 c 2,67,-1
 751 -211 l 2,68,69
 731 -279 731 -279 663 -279 c 0,70,71
 657 -279 657 -279 651 -277 c 0,72,73
 642 -274 642 -274 640 -274 c 0,74,75
 605 -264 605 -264 588 -238.5 c 128,-1,76
 571 -213 571 -213 571 -186 c 0,56,57
851 -486 m 2,77,-1
 1111 450 l 2,78,79
 1118 481 1118 481 1143 497 c 128,-1,80
 1168 513 1168 513 1195 513 c 0,81,82
 1209 513 1209 513 1224 510 c 0,83,84
 1259 500 1259 500 1276 468.5 c 128,-1,85
 1293 437 1293 437 1283 400 c 2,86,-1
 1024 -537 l 2,87,88
 1018 -564 1018 -564 993 -583 c 128,-1,89
 968 -602 968 -602 939 -602 c 0,90,91
 924 -602 924 -602 912 -597 c 0,92,93
 880 -589 880 -589 857 -555 c 0,94,95
 839 -527 839 -527 851 -486 c 2,77,-1
1291 -189 m 0,96,97
 1291 -183 1291 -183 1295 -165 c 2,98,-1
 1469 450 l 2,99,100
 1478 481 1478 481 1501.5 497 c 128,-1,101
 1525 513 1525 513 1551 513 c 0,102,103
 1564 513 1564 513 1579 510 c 0,104,105
 1612 501 1612 501 1628.5 477 c 128,-1,106
 1645 453 1645 453 1645 427 c 0,107,108
 1645 422 1645 422 1643 412.5 c 128,-1,109
 1641 403 1641 403 1641 400 c 2,110,-1
 1467 -211 l 2,111,112
 1461 -242 1461 -242 1437 -260.5 c 128,-1,113
 1413 -279 1413 -279 1383 -279 c 1,114,-1
 1357 -274 l 2,115,116
 1325 -265 1325 -265 1308 -239.5 c 128,-1,117
 1291 -214 1291 -214 1291 -189 c 0,96,97
EndSplineSet
EndChar

StartChar: uniF01A
Encoding: 61466 61466 44
Width: 2218
GlyphClass: 2
Flags: W
LayerCount: 2
Fore
SplineSet
0 525 m 0,0,1
 0 710 0 710 116 854 c 128,-1,2
 232 998 232 998 413 1039 c 1,3,4
 460 1259 460 1259 634 1400.5 c 128,-1,5
 808 1542 808 1542 1034 1542 c 0,6,7
 1257 1542 1257 1542 1430.5 1406 c 128,-1,8
 1604 1270 1604 1270 1657 1054 c 1,9,-1
 1693 1054 l 2,10,11
 1837 1054 1837 1054 1958 983.5 c 128,-1,12
 2079 913 2079 913 2148.5 791 c 128,-1,13
 2218 669 2218 669 2218 525 c 0,14,15
 2218 311 2218 311 2071.5 158 c 128,-1,16
 1925 5 1925 5 1712 -2 c 0,17,18
 1693 -2 1693 -2 1693 16 c 2,19,-1
 1693 159 l 2,20,21
 1693 177 1693 177 1712 177 c 0,22,23
 1847 188 1847 188 1943 288.5 c 128,-1,24
 2039 389 2039 389 2039 525 c 0,25,26
 2039 668 2039 668 1937 771 c 128,-1,27
 1835 874 1835 874 1693 874 c 2,28,-1
 1519 874 l 2,29,30
 1500 874 1500 874 1496 893 c 2,31,-1
 1488 954 l 2,32,33
 1477 1068 1477 1068 1413.5 1160.5 c 128,-1,34
 1350 1253 1350 1253 1250 1305.5 c 128,-1,35
 1150 1358 1150 1358 1034 1358 c 0,36,37
 858 1358 858 1358 728.5 1241.5 c 128,-1,38
 599 1125 599 1125 582 951 c 2,39,-1
 575 893 l 2,40,41
 575 878 575 878 558 878 c 2,42,-1
 502 870 l 1,43,44
 367 859 367 859 276.5 760 c 128,-1,45
 186 661 186 661 186 525 c 0,46,47
 186 386 186 386 280.5 285.5 c 128,-1,48
 375 185 375 185 512 177 c 0,49,50
 531 177 531 177 531 159 c 2,51,-1
 531 16 l 2,52,53
 531 -2 531 -2 512 -2 c 0,54,55
 407 3 407 3 312 46 c 128,-1,56
 217 89 217 89 148.5 159 c 128,-1,57
 80 229 80 229 40 324.5 c 128,-1,58
 0 420 0 420 0 525 c 0,0,1
578 -197 m 0,59,60
 578 -192 578 -192 580 -183 c 128,-1,61
 582 -174 582 -174 582 -171 c 2,62,-1
 611 -61 l 2,63,64
 622 -25 622 -25 653.5 -6.5 c 128,-1,65
 685 12 685 12 722 1 c 0,66,67
 758 -10 758 -10 777 -41.5 c 128,-1,68
 796 -73 796 -73 785 -110 c 2,69,-1
 759 -218 l 1,70,71
 738 -288 738 -288 678 -288 c 0,72,73
 674 -288 674 -288 668.5 -287.5 c 128,-1,74
 663 -287 663 -287 656.5 -286 c 128,-1,75
 650 -285 650 -285 646 -285 c 0,76,77
 612 -275 612 -275 595 -248.5 c 128,-1,78
 578 -222 578 -222 578 -197 c 0,59,60
719 317 m 0,79,80
 719 321 719 321 720.5 329 c 128,-1,81
 722 337 722 337 722 339 c 2,82,-1
 754 451 l 2,83,84
 764 482 764 482 788 498.5 c 128,-1,85
 812 515 812 515 838 515 c 0,86,87
 842 515 842 515 846.5 514.5 c 128,-1,88
 851 514 851 514 856.5 513 c 128,-1,89
 862 512 862 512 865 512 c 0,90,91
 901 501 901 501 919.5 469.5 c 128,-1,92
 938 438 938 438 927 401 c 2,93,-1
 901 294 l 2,94,95
 890 250 890 250 858 231.5 c 128,-1,96
 826 213 826 213 789 229 c 1,97,98
 754 239 754 239 736.5 265 c 128,-1,99
 719 291 719 291 719 317 c 0,79,80
850 -531 m 0,100,101
 850 -526 850 -526 852 -517.5 c 128,-1,102
 854 -509 854 -509 854 -505 c 2,103,-1
 885 -399 l 2,104,105
 895 -361 895 -361 927.5 -341.5 c 128,-1,106
 960 -322 960 -322 997 -333 c 0,107,108
 1033 -344 1033 -344 1051 -376.5 c 128,-1,109
 1069 -409 1069 -409 1058 -446 c 2,110,-1
 1031 -557 l 2,111,112
 1014 -622 1014 -622 946 -622 c 0,113,114
 938 -622 938 -622 920 -618 c 0,115,116
 885 -612 885 -612 867.5 -585.5 c 128,-1,117
 850 -559 850 -559 850 -531 c 0,100,101
993 -22 m 0,118,119
 993 -13 993 -13 997 5 c 2,120,-1
 1026 115 l 2,121,122
 1037 151 1037 151 1069.5 169.5 c 128,-1,123
 1102 188 1102 188 1139 177 c 0,124,125
 1175 167 1175 167 1193 135.5 c 128,-1,126
 1211 104 1211 104 1199 66 c 2,127,-1
 1173 -40 l 2,128,129
 1153 -112 1153 -112 1096 -112 c 0,130,131
 1089 -112 1089 -112 1063 -106 c 0,132,133
 1028 -99 1028 -99 1010.5 -74.5 c 128,-1,134
 993 -50 993 -50 993 -22 c 0,118,119
1294 -201 m 0,135,136
 1294 -190 1294 -190 1297 -175 c 2,137,-1
 1327 -69 l 2,138,139
 1338 -31 1338 -31 1370.5 -11.5 c 128,-1,140
 1403 8 1403 8 1438 -2 c 0,141,142
 1475 -13 1475 -13 1494.5 -45.5 c 128,-1,143
 1514 -78 1514 -78 1504 -113 c 2,144,-1
 1473 -226 l 2,145,146
 1457 -291 1457 -291 1389 -291 c 0,147,148
 1374 -291 1374 -291 1361 -288 c 0,149,150
 1329 -282 1329 -282 1312 -255.5 c 128,-1,151
 1295 -229 1295 -229 1294 -201 c 0,135,136
1441 307 m 0,152,153
 1441 312 1441 312 1446 335 c 2,154,-1
 1478 445 l 2,155,156
 1484 479 1484 479 1509 495.5 c 128,-1,157
 1534 512 1534 512 1561 510 c 0,158,159
 1568 511 1568 511 1587 507 c 0,160,161
 1622 499 1622 499 1642 466 c 0,162,163
 1661 439 1661 439 1650 397 c 2,164,-1
 1624 287 l 1,165,166
 1603 218 1603 218 1543 218 c 0,167,168
 1533 218 1533 218 1507 224 c 0,169,170
 1474 234 1474 234 1457.5 257.5 c 128,-1,171
 1441 281 1441 281 1441 307 c 0,152,153
EndSplineSet
EndChar

StartChar: uniF01B
Encoding: 61467 61467 45
Width: 2211
GlyphClass: 2
Flags: W
LayerCount: 2
Fore
SplineSet
0 523 m 0,0,1
 0 708 0 708 113.5 851.5 c 128,-1,2
 227 995 227 995 406 1039 c 1,3,4
 456 1257 456 1257 630.5 1397 c 128,-1,5
 805 1537 805 1537 1031 1537 c 0,6,7
 1251 1537 1251 1537 1423.5 1400.5 c 128,-1,8
 1596 1264 1596 1264 1648 1050 c 1,9,-1
 1682 1050 l 2,10,11
 1825 1050 1825 1050 1947 979.5 c 128,-1,12
 2069 909 2069 909 2140 787.5 c 128,-1,13
 2211 666 2211 666 2211 523 c 0,14,15
 2211 311 2211 311 2063 158 c 128,-1,16
 1915 5 1915 5 1703 -2 c 0,17,18
 1682 -2 1682 -2 1682 16 c 2,19,-1
 1682 158 l 2,20,21
 1682 177 1682 177 1703 177 c 0,22,23
 1839 184 1839 184 1935.5 285.5 c 128,-1,24
 2032 387 2032 387 2032 523 c 0,25,26
 2032 665 2032 665 1929 768 c 128,-1,27
 1826 871 1826 871 1682 871 c 2,28,-1
 1510 871 l 2,29,30
 1491 871 1491 871 1491 889 c 2,31,-1
 1483 951 l 1,32,33
 1465 1124 1465 1124 1334.5 1241 c 128,-1,34
 1204 1358 1204 1358 1031 1358 c 0,35,36
 855 1358 855 1358 725.5 1240 c 128,-1,37
 596 1122 596 1122 579 947 c 2,38,-1
 573 894 l 2,39,40
 573 874 573 874 552 874 c 2,41,-1
 496 867 l 1,42,43
 363 856 363 856 272.5 756.5 c 128,-1,44
 182 657 182 657 182 523 c 0,45,46
 182 387 182 387 278.5 285.5 c 128,-1,47
 375 184 375 184 511 177 c 0,48,49
 529 177 529 177 529 158 c 2,50,-1
 529 16 l 2,51,52
 529 -2 529 -2 511 -2 c 0,53,54
 297 5 297 5 148.5 158 c 128,-1,55
 0 311 0 311 0 523 c 0,0,1
679 89 m 0,56,57
 679 125 679 125 704.5 151 c 128,-1,58
 730 177 730 177 767 177 c 128,-1,59
 804 177 804 177 829.5 151 c 128,-1,60
 855 125 855 125 855 89 c 0,61,62
 855 51 855 51 829.5 24.5 c 128,-1,63
 804 -2 804 -2 767 -2 c 128,-1,64
 730 -2 730 -2 704.5 24.5 c 128,-1,65
 679 51 679 51 679 89 c 0,56,57
679 -298 m 128,-1,67
 679 -260 679 -260 705 -234 c 0,68,69
 730 -210 730 -210 767 -210 c 128,-1,70
 804 -210 804 -210 829.5 -235 c 128,-1,71
 855 -260 855 -260 855 -298 c 128,-1,72
 855 -336 855 -336 829.5 -361 c 128,-1,73
 804 -386 804 -386 767 -386 c 128,-1,74
 730 -386 730 -386 704.5 -361 c 128,-1,66
 679 -336 679 -336 679 -298 c 128,-1,67
1019 -117 m 128,-1,76
 1019 -80 1019 -80 1046 -51 c 0,77,78
 1072 -25 1072 -25 1107 -25 c 0,79,80
 1144 -25 1144 -25 1171.5 -52.5 c 128,-1,81
 1199 -80 1199 -80 1199 -117 c 128,-1,82
 1199 -154 1199 -154 1172 -180.5 c 128,-1,83
 1145 -207 1145 -207 1107 -207 c 0,84,85
 1071 -207 1071 -207 1045 -180.5 c 128,-1,75
 1019 -154 1019 -154 1019 -117 c 128,-1,76
1019 269 m 128,-1,87
 1019 306 1019 306 1046 333 c 0,88,89
 1074 359 1074 359 1107 359 c 0,90,91
 1145 359 1145 359 1172 332.5 c 128,-1,92
 1199 306 1199 306 1199 269 c 128,-1,93
 1199 232 1199 232 1172 206.5 c 128,-1,94
 1145 181 1145 181 1107 181 c 0,95,96
 1071 181 1071 181 1045 206.5 c 128,-1,86
 1019 232 1019 232 1019 269 c 128,-1,87
1019 -507 m 0,97,98
 1019 -471 1019 -471 1046 -442 c 0,99,100
 1072 -416 1072 -416 1107 -416 c 0,101,102
 1145 -416 1145 -416 1172 -443 c 128,-1,103
 1199 -470 1199 -470 1199 -507 c 128,-1,104
 1199 -544 1199 -544 1172 -569.5 c 128,-1,105
 1145 -595 1145 -595 1107 -595 c 0,106,107
 1071 -595 1071 -595 1045 -569.5 c 128,-1,108
 1019 -544 1019 -544 1019 -507 c 0,97,98
1363 89 m 0,109,110
 1363 124 1363 124 1390 150.5 c 128,-1,111
 1417 177 1417 177 1454 177 c 128,-1,112
 1491 177 1491 177 1516.5 151 c 128,-1,113
 1542 125 1542 125 1542 89 c 0,114,115
 1542 51 1542 51 1516.5 24.5 c 128,-1,116
 1491 -2 1491 -2 1454 -2 c 0,117,118
 1416 -2 1416 -2 1389.5 25 c 128,-1,119
 1363 52 1363 52 1363 89 c 0,109,110
1363 -298 m 0,120,121
 1363 -263 1363 -263 1390 -234 c 0,122,123
 1416 -210 1416 -210 1454 -210 c 128,-1,124
 1492 -210 1492 -210 1517 -235 c 128,-1,125
 1542 -260 1542 -260 1542 -298 c 128,-1,126
 1542 -336 1542 -336 1517 -361 c 128,-1,127
 1492 -386 1492 -386 1454 -386 c 128,-1,128
 1416 -386 1416 -386 1389.5 -360.5 c 128,-1,129
 1363 -335 1363 -335 1363 -298 c 0,120,121
EndSplineSet
EndChar

StartChar: uniF01C
Encoding: 61468 61468 46
Width: 2210
GlyphClass: 2
Flags: W
LayerCount: 2
Fore
SplineSet
0 527 m 0,0,1
 0 711 0 711 115 854.5 c 128,-1,2
 230 998 230 998 406 1039 c 1,3,4
 455 1257 455 1257 630 1396.5 c 128,-1,5
 805 1536 805 1536 1031 1536 c 0,6,7
 1251 1536 1251 1536 1423 1400 c 128,-1,8
 1595 1264 1595 1264 1648 1050 c 1,9,-1
 1681 1050 l 2,10,11
 1824 1050 1824 1050 1946 980.5 c 128,-1,12
 2068 911 2068 911 2139 790.5 c 128,-1,13
 2210 670 2210 670 2210 527 c 0,14,15
 2210 313 2210 313 2062.5 159 c 128,-1,16
 1915 5 1915 5 1702 -2 c 0,17,18
 1681 -2 1681 -2 1681 16 c 2,19,-1
 1681 158 l 2,20,21
 1681 177 1681 177 1702 177 c 0,22,23
 1839 184 1839 184 1935 286 c 128,-1,24
 2031 388 2031 388 2031 527 c 128,-1,25
 2031 666 2031 666 1927 768.5 c 128,-1,26
 1823 871 1823 871 1681 871 c 2,27,-1
 1510 871 l 2,28,29
 1490 871 1490 871 1490 889 c 2,30,-1
 1483 951 l 2,31,32
 1466 1123 1466 1123 1335.5 1240 c 128,-1,33
 1205 1357 1205 1357 1031 1357 c 0,34,35
 856 1357 856 1357 726 1240.5 c 128,-1,36
 596 1124 596 1124 579 951 c 2,37,-1
 573 893 l 2,38,39
 573 874 573 874 552 874 c 2,40,-1
 496 871 l 2,41,42
 365 865 365 865 273.5 764 c 128,-1,43
 182 663 182 663 182 527 c 0,44,45
 182 388 182 388 278 286 c 128,-1,46
 374 184 374 184 511 177 c 0,47,48
 529 177 529 177 529 158 c 2,49,-1
 529 16 l 2,50,51
 529 -2 529 -2 511 -2 c 0,52,53
 297 8 297 8 148.5 161 c 128,-1,54
 0 314 0 314 0 527 c 0,0,1
632 433 m 0,55,56
 632 472 632 472 671 538.5 c 128,-1,57
 710 605 710 605 744 646 c 0,58,59
 778 684 778 684 785 691 c 1,60,-1
 823 648 l 2,61,62
 864 604 864 604 899.5 539.5 c 128,-1,63
 935 475 935 475 935 433 c 0,64,65
 935 370 935 370 892 328 c 128,-1,66
 849 286 849 286 785 286 c 0,67,68
 722 286 722 286 677 329 c 128,-1,69
 632 372 632 372 632 433 c 0,55,56
950 8 m 0,70,71
 950 52 950 52 975.5 110 c 128,-1,72
 1001 168 1001 168 1038 219 c 0,73,74
 1067 260 1067 260 1109 308.5 c 128,-1,75
 1151 357 1151 357 1173 378 c 0,76,77
 1184 388 1184 388 1199 403 c 1,78,-1
 1225 378 l 2,79,80
 1285 325 1285 325 1361 222 c 0,81,82
 1399 169 1399 169 1424 111 c 128,-1,83
 1449 53 1449 53 1449 8 c 0,84,85
 1449 -95 1449 -95 1376.5 -167.5 c 128,-1,86
 1304 -240 1304 -240 1199 -240 c 0,87,88
 1096 -240 1096 -240 1023 -168 c 128,-1,89
 950 -96 950 -96 950 8 c 0,70,71
1107 718 m 0,90,91
 1107 785 1107 785 1211 889 c 1,92,-1
 1237 862 l 2,93,94
 1265 828 1265 828 1288 786.5 c 128,-1,95
 1311 745 1311 745 1311 718 c 0,96,97
 1311 677 1311 677 1281.5 647.5 c 128,-1,98
 1252 618 1252 618 1211 618 c 0,99,100
 1168 618 1168 618 1137.5 647.5 c 128,-1,101
 1107 677 1107 677 1107 718 c 0,90,91
EndSplineSet
EndChar

StartChar: uniF01D
Encoding: 61469 61469 47
Width: 2212
GlyphClass: 2
Flags: W
LayerCount: 2
Fore
SplineSet
0 527 m 0,0,1
 0 350 0 350 105.5 210 c 128,-1,2
 211 70 211 70 379 19 c 1,3,-1
 310 -160 l 2,4,5
 305 -183 305 -183 325 -183 c 2,6,-1
 552 -183 l 1,7,-1
 441 -586 l 1,8,-1
 471 -586 l 1,9,-1
 894 -29 l 2,10,11
 900 -22 900 -22 896 -14.5 c 128,-1,12
 892 -7 892 -7 881 -7 c 2,13,-1
 649 -7 l 1,14,-1
 913 488 l 2,15,16
 923 510 923 510 898 510 c 2,17,-1
 584 510 l 2,18,19
 569 510 569 510 560 495 c 2,20,-1
 445 189 l 1,21,22
 331 218 331 218 256.5 313 c 128,-1,23
 182 408 182 408 182 527 c 0,24,25
 182 660 182 660 272 757.5 c 128,-1,26
 362 855 362 855 496 871 c 2,27,-1
 552 879 l 2,28,29
 573 879 573 879 573 897 c 2,30,-1
 581 952 l 1,31,32
 597 1125 597 1125 726.5 1242 c 128,-1,33
 856 1359 856 1359 1031 1359 c 0,34,35
 1205 1359 1205 1359 1335.5 1242 c 128,-1,36
 1466 1125 1466 1125 1485 952 c 2,37,-1
 1491 890 l 2,38,39
 1491 871 1491 871 1511 871 c 2,40,-1
 1683 871 l 2,41,42
 1828 871 1828 871 1930.5 770 c 128,-1,43
 2033 669 2033 669 2033 527 c 0,44,45
 2033 391 2033 391 1938 291.5 c 128,-1,46
 1843 192 1843 192 1704 182 c 0,47,48
 1683 182 1683 182 1683 162 c 2,49,-1
 1683 16 l 2,50,51
 1683 -2 1683 -2 1704 -2 c 0,52,53
 1808 1 1808 1 1902.5 45 c 128,-1,54
 1997 89 1997 89 2065 159.5 c 128,-1,55
 2133 230 2133 230 2173 326.5 c 128,-1,56
 2213 423 2213 423 2213 527 c 0,57,58
 2213 671 2213 671 2141.5 792.5 c 128,-1,59
 2070 914 2070 914 1948 984.5 c 128,-1,60
 1826 1055 1826 1055 1683 1055 c 2,61,-1
 1649 1055 l 1,62,63
 1596 1268 1596 1268 1424 1403 c 128,-1,64
 1252 1538 1252 1538 1031 1538 c 0,65,66
 805 1538 805 1538 630 1398 c 128,-1,67
 455 1258 455 1258 406 1040 c 1,68,69
 230 999 230 999 115 855.5 c 128,-1,70
 0 712 0 712 0 527 c 0,0,1
870 -525 m 0,71,72
 870 -550 870 -550 886.5 -574.5 c 128,-1,73
 903 -599 903 -599 936 -609 c 0,74,75
 958 -614 958 -614 963 -614 c 0,76,77
 977 -614 977 -614 1003 -603 c 0,78,79
 1037 -588 1037 -588 1048 -547 c 2,80,-1
 1078 -435 l 2,81,82
 1088 -400 1088 -400 1069.5 -368 c 128,-1,83
 1051 -336 1051 -336 1013 -325 c 0,84,85
 978 -315 978 -315 945.5 -333.5 c 128,-1,86
 913 -352 913 -352 902 -390 c 2,87,-1
 873 -497 l 1,88,89
 870 -524 870 -524 870 -525 c 0,71,72
1013 -16 m 0,90,91
 1013 -39 1013 -39 1029.5 -62.5 c 128,-1,92
 1046 -86 1046 -86 1078 -98 c 0,93,94
 1114 -110 1114 -110 1146 -93 c 128,-1,95
 1178 -76 1178 -76 1189 -37 c 2,96,-1
 1221 74 l 2,97,98
 1231 109 1231 109 1212 141.5 c 128,-1,99
 1193 174 1193 174 1155 185 c 0,100,101
 1119 195 1119 195 1086 176.5 c 128,-1,102
 1053 158 1053 158 1042 121 c 2,103,-1
 1016 13 l 2,104,105
 1013 -14 1013 -14 1013 -16 c 0,90,91
1314 -192 m 0,106,107
 1314 -219 1314 -219 1331.5 -246 c 128,-1,108
 1349 -273 1349 -273 1382 -283 c 0,109,110
 1386 -283 1386 -283 1394.5 -285 c 128,-1,111
 1403 -287 1403 -287 1407 -287 c 0,112,113
 1428 -287 1428 -287 1447 -279 c 0,114,115
 1477 -268 1477 -268 1491 -218 c 2,116,-1
 1518 -110 l 2,117,118
 1529 -73 1529 -73 1511.5 -39.5 c 128,-1,119
 1494 -6 1494 -6 1458 5 c 0,120,121
 1418 15 1418 15 1385.5 -4 c 128,-1,122
 1353 -23 1353 -23 1346 -61 c 2,123,-1
 1317 -171 l 2,124,125
 1314 -180 1314 -180 1314 -192 c 0,106,107
1459 319 m 0,126,127
 1458 294 1458 294 1475 269 c 128,-1,128
 1492 244 1492 244 1527 229 c 0,129,130
 1539 223 1539 223 1555 223 c 0,131,132
 1572 223 1572 223 1591 232 c 0,133,134
 1624 248 1624 248 1638 293 c 2,135,-1
 1669 403 l 2,136,137
 1672 424 1672 424 1672 426 c 0,138,139
 1672 453 1672 453 1654.5 478.5 c 128,-1,140
 1637 504 1637 504 1602 514 c 0,141,142
 1598 514 1598 514 1590 516 c 128,-1,143
 1582 518 1582 518 1578 518 c 0,144,145
 1551 518 1551 518 1526 501.5 c 128,-1,146
 1501 485 1501 485 1491 450 c 2,147,-1
 1462 342 l 2,148,149
 1459 330 1459 330 1459 319 c 0,126,127
EndSplineSet
EndChar

StartChar: uniF01E
Encoding: 61470 61470 48
Width: 2213
GlyphClass: 2
Flags: W
LayerCount: 2
Fore
SplineSet
0 527 m 0,0,1
 0 350 0 350 106 210 c 128,-1,2
 212 70 212 70 381 19 c 1,3,-1
 311 -160 l 2,4,5
 306 -183 306 -183 326 -183 c 2,6,-1
 553 -183 l 1,7,-1
 448 -642 l 1,8,-1
 478 -642 l 1,9,-1
 896 -29 l 2,10,11
 902 -22 902 -22 897.5 -14.5 c 128,-1,12
 893 -7 893 -7 882 -7 c 2,13,-1
 650 -7 l 1,14,-1
 914 488 l 2,15,16
 925 511 925 511 899 511 c 2,17,-1
 585 511 l 2,18,19
 570 511 570 511 560 495 c 2,20,-1
 446 189 l 1,21,22
 332 218 332 218 257 313 c 128,-1,23
 182 408 182 408 182 527 c 0,24,25
 182 660 182 660 272.5 758 c 128,-1,26
 363 856 363 856 497 872 c 2,27,-1
 553 879 l 2,28,29
 574 879 574 879 574 898 c 2,30,-1
 581 952 l 1,31,32
 598 1125 598 1125 727.5 1242 c 128,-1,33
 857 1359 857 1359 1032 1359 c 0,34,35
 1206 1359 1206 1359 1336.5 1242 c 128,-1,36
 1467 1125 1467 1125 1486 952 c 2,37,-1
 1493 890 l 2,38,39
 1493 872 1493 872 1512 872 c 2,40,-1
 1683 872 l 2,41,42
 1828 872 1828 872 1931 770.5 c 128,-1,43
 2034 669 2034 669 2034 527 c 0,44,45
 2034 391 2034 391 1939 291.5 c 128,-1,46
 1844 192 1844 192 1704 181 c 0,47,48
 1683 181 1683 181 1683 162 c 2,49,-1
 1683 16 l 2,50,51
 1683 -2 1683 -2 1704 -2 c 0,52,53
 1917 5 1917 5 2065.5 159 c 128,-1,54
 2214 313 2214 313 2214 527 c 0,55,56
 2214 671 2214 671 2143 792.5 c 128,-1,57
 2072 914 2072 914 1949.5 984.5 c 128,-1,58
 1827 1055 1827 1055 1683 1055 c 2,59,-1
 1650 1055 l 1,60,61
 1597 1268 1597 1268 1424.5 1403 c 128,-1,62
 1252 1538 1252 1538 1032 1538 c 0,63,64
 806 1538 806 1538 631 1398 c 128,-1,65
 456 1258 456 1258 407 1040 c 1,66,67
 230 999 230 999 115 855.5 c 128,-1,68
 0 712 0 712 0 527 c 0,0,1
869 -509 m 0,69,70
 869 -572 869 -572 931 -591 c 0,71,72
 933 -591 933 -591 943 -592.5 c 128,-1,73
 953 -594 953 -594 958 -594 c 0,74,75
 985 -594 985 -594 1010.5 -578.5 c 128,-1,76
 1036 -563 1036 -563 1045 -527 c 2,77,-1
 1285 400 l 2,78,79
 1295 438 1295 438 1278 469 c 128,-1,80
 1261 500 1261 500 1225 511 c 1,81,82
 1198 514 1198 514 1197 514 c 0,83,84
 1171 514 1171 514 1146.5 498 c 128,-1,85
 1122 482 1122 482 1113 450 c 2,86,-1
 872 -480 l 2,87,88
 869 -494 869 -494 869 -509 c 0,69,70
1312 -182 m 0,89,90
 1312 -203 1312 -203 1323 -222 c 0,91,92
 1345 -257 1345 -257 1377 -269 c 0,93,94
 1394 -274 1394 -274 1409 -274 c 128,-1,95
 1424 -274 1424 -274 1443 -266 c 0,96,97
 1476 -252 1476 -252 1488 -205 c 2,98,-1
 1642 400 l 2,99,100
 1647 423 1647 423 1647 429 c 0,101,102
 1647 453 1647 453 1630 477 c 128,-1,103
 1613 501 1613 501 1581 511 c 1,104,105
 1554 514 1554 514 1553 514 c 0,106,107
 1526 514 1526 514 1503 498.5 c 128,-1,108
 1480 483 1480 483 1471 450 c 2,109,-1
 1315 -158 l 2,110,111
 1315 -161 1315 -161 1313.5 -169.5 c 128,-1,112
 1312 -178 1312 -178 1312 -182 c 0,89,90
EndSplineSet
EndChar

StartChar: uniF021
Encoding: 61473 61473 49
Width: 2209
GlyphClass: 2
Flags: W
LayerCount: 2
Fore
SplineSet
0 678 m 0,0,1
 0 714 0 714 25 738 c 128,-1,2
 50 762 50 762 86 762 c 2,3,-1
 1375 762 l 2,4,5
 1410 762 1410 762 1433 738.5 c 128,-1,6
 1456 715 1456 715 1456 678 c 0,7,8
 1456 643 1456 643 1433 620 c 128,-1,9
 1410 597 1410 597 1375 597 c 2,10,-1
 86 597 l 2,11,12
 50 597 50 597 25 620 c 128,-1,13
 0 643 0 643 0 678 c 0,0,1
258 987 m 128,-1,15
 258 1022 258 1022 283 1046 c 0,16,17
 307 1070 307 1070 343 1070 c 2,18,-1
 1633 1070 l 2,19,20
 1667 1070 1667 1070 1690.5 1046 c 128,-1,21
 1714 1022 1714 1022 1714 987 c 128,-1,22
 1714 952 1714 952 1690.5 927.5 c 128,-1,23
 1667 903 1667 903 1633 903 c 2,24,-1
 343 903 l 2,25,26
 308 903 308 903 283 927.5 c 128,-1,14
 258 952 258 952 258 987 c 128,-1,15
430 375 m 0,27,28
 430 409 430 409 456 433 c 0,29,30
 479 456 479 456 514 456 c 2,31,-1
 1805 456 l 2,32,33
 1841 456 1841 456 1865 433 c 128,-1,34
 1889 410 1889 410 1889 375 c 128,-1,35
 1889 340 1889 340 1864.5 315 c 128,-1,36
 1840 290 1840 290 1805 290 c 2,37,-1
 514 290 l 2,38,39
 479 290 479 290 454.5 315 c 128,-1,40
 430 340 430 340 430 375 c 0,27,28
1559 678 m 0,41,42
 1559 715 1559 715 1582.5 738.5 c 128,-1,43
 1606 762 1606 762 1643 762 c 2,44,-1
 2125 762 l 2,45,46
 2162 762 2162 762 2185.5 738 c 128,-1,47
 2209 714 2209 714 2209 678 c 0,48,49
 2209 643 2209 643 2185 620 c 128,-1,50
 2161 597 2161 597 2125 597 c 2,51,-1
 1643 597 l 2,52,53
 1606 597 1606 597 1582.5 620 c 128,-1,54
 1559 643 1559 643 1559 678 c 0,41,42
EndSplineSet
EndChar

StartChar: uniF022
Encoding: 61474 61474 50
Width: 2564
GlyphClass: 2
Flags: W
LayerCount: 2
Fore
SplineSet
0 89 m 128,-1,1
 0 52 0 52 29 25 c 0,2,3
 56 -2 56 -2 94 -2 c 2,4,-1
 706 -2 l 2,5,6
 748 -2 748 -2 779.5 -32.5 c 128,-1,7
 811 -63 811 -63 811 -105 c 0,8,9
 811 -148 811 -148 779.5 -179 c 128,-1,10
 748 -210 748 -210 706 -210 c 0,11,12
 665 -210 665 -210 633 -178 c 0,13,14
 604 -152 604 -152 568 -152 c 0,15,16
 530 -152 530 -152 504 -178 c 128,-1,17
 478 -204 478 -204 478 -242 c 0,18,19
 478 -278 478 -278 504 -306 c 0,20,21
 588 -390 588 -390 706 -390 c 128,-1,22
 824 -390 824 -390 907.5 -307 c 128,-1,23
 991 -224 991 -224 991 -105 c 0,24,25
 991 13 991 13 907.5 97 c 128,-1,26
 824 181 824 181 706 181 c 2,27,-1
 94 181 l 2,28,29
 56 181 56 181 28 153.5 c 128,-1,0
 0 126 0 126 0 89 c 128,-1,1
0 411 m 0,30,31
 0 376 0 376 29 349 c 0,32,33
 57 323 57 323 94 323 c 2,34,-1
 1251 323 l 2,35,36
 1369 323 1369 323 1452.5 406 c 128,-1,37
 1536 489 1536 489 1536 607 c 128,-1,38
 1536 725 1536 725 1452.5 807.5 c 128,-1,39
 1369 890 1369 890 1251 890 c 0,40,41
 1129 890 1129 890 1049 809 c 0,42,43
 1025 784 1025 784 1025 744 c 128,-1,44
 1025 704 1025 704 1049.5 680 c 128,-1,45
 1074 656 1074 656 1112 656 c 256,46,47
 1150 656 1150 656 1178 680 c 0,48,49
 1208 710 1208 710 1251 710 c 0,50,51
 1292 710 1292 710 1323 680 c 128,-1,52
 1354 650 1354 650 1354 607 c 0,53,54
 1354 565 1354 565 1323 534 c 128,-1,55
 1292 503 1292 503 1251 503 c 2,56,-1
 94 503 l 2,57,58
 56 503 56 503 28 475.5 c 128,-1,59
 0 448 0 448 0 411 c 0,30,31
269 662 m 0,60,61
 269 648 269 648 286 648 c 2,62,-1
 439 648 l 2,63,64
 452 648 452 648 462 664 c 0,65,66
 498 751 498 751 573.5 807.5 c 128,-1,67
 649 864 649 864 742 871 c 1,68,-1
 798 879 l 2,69,70
 818 879 818 879 818 897 c 2,71,-1
 826 952 l 1,72,73
 843 1125 843 1125 973 1241.5 c 128,-1,74
 1103 1358 1103 1358 1278 1358 c 128,-1,75
 1453 1358 1453 1358 1582.5 1242 c 128,-1,76
 1712 1126 1712 1126 1730 952 c 2,77,-1
 1737 890 l 2,78,79
 1737 871 1737 871 1757 871 c 2,80,-1
 1930 871 l 2,81,82
 2075 871 2075 871 2177 770 c 128,-1,83
 2279 669 2279 669 2279 527 c 128,-1,84
 2279 385 2279 385 2176.5 283 c 128,-1,85
 2074 181 2074 181 1930 181 c 2,86,-1
 1193 181 l 2,87,88
 1175 181 1175 181 1175 162 c 2,89,-1
 1175 16 l 2,90,91
 1175 -2 1175 -2 1193 -2 c 2,92,-1
 1930 -2 l 2,93,94
 2073 -2 2073 -2 2194.5 69 c 128,-1,95
 2316 140 2316 140 2387 262 c 128,-1,96
 2458 384 2458 384 2458 527 c 0,97,98
 2458 668 2458 668 2385 791 c 1,99,100
 2502 904 2502 904 2546 1066 c 1,101,-1
 2562 1138 l 2,102,103
 2565 1141 2565 1141 2565 1146 c 0,104,105
 2565 1153 2565 1153 2550 1163 c 1,106,-1
 2486 1185 l 1,107,108
 2352 1226 2352 1226 2281.5 1330 c 128,-1,109
 2211 1434 2211 1434 2211 1545 c 0,110,111
 2211 1584 2211 1584 2221 1629 c 2,112,-1
 2235 1695 l 2,113,114
 2239 1711 2239 1711 2221 1719 c 2,115,-1
 2136 1745 l 1,116,117
 2066 1762 2066 1762 2003 1762 c 0,118,119
 1944 1762 1944 1762 1883 1748 c 128,-1,120
 1822 1734 1822 1734 1757.5 1704.5 c 128,-1,121
 1693 1675 1693 1675 1632 1619.5 c 128,-1,122
 1571 1564 1571 1564 1525 1489 c 1,123,124
 1412 1537 1412 1537 1278 1537 c 0,125,126
 1052 1537 1052 1537 878.5 1397 c 128,-1,127
 705 1257 705 1257 658 1040 c 1,128,129
 521 1008 521 1008 416 909 c 128,-1,130
 311 810 311 810 271 674 c 1,131,-1
 271 671 l 2,132,133
 269 668 269 668 269 662 c 0,60,61
1680 1397 m 1,134,135
 1730 1485 1730 1485 1818 1531.5 c 128,-1,136
 1906 1578 1906 1578 2000 1578 c 0,137,138
 2022 1578 2022 1578 2033 1577 c 1,139,140
 2031 1563 2031 1563 2031 1539 c 0,141,142
 2031 1388 2031 1388 2115 1250 c 128,-1,143
 2199 1112 2199 1112 2347 1043 c 1,144,145
 2322 983 2322 983 2267 933 c 1,146,147
 2125 1055 2125 1055 1930 1055 c 2,148,-1
 1895 1055 l 1,149,150
 1852 1256 1852 1256 1680 1397 c 1,134,135
EndSplineSet
EndChar

StartChar: uniF023
Encoding: 61475 61475 51
Width: 2699
GlyphClass: 2
Flags: W
LayerCount: 2
Fore
SplineSet
0 86 m 0,0,1
 0 48 0 48 27 23 c 128,-1,2
 54 -2 54 -2 94 -2 c 2,3,-1
 1097 -2 l 2,4,5
 1135 -2 1135 -2 1160 23 c 128,-1,6
 1185 48 1185 48 1185 86 c 0,7,8
 1185 126 1185 126 1160 151.5 c 128,-1,9
 1135 177 1135 177 1097 177 c 2,10,-1
 94 177 l 2,11,12
 54 177 54 177 27 151 c 128,-1,13
 0 125 0 125 0 86 c 0,0,1
281 411 m 0,14,15
 281 373 281 373 309 347 c 0,16,17
 335 320 335 320 373 320 c 2,18,-1
 1378 320 l 2,19,20
 1415 320 1415 320 1440.5 346.5 c 128,-1,21
 1466 373 1466 373 1466 411 c 0,22,23
 1466 448 1466 448 1441 473.5 c 128,-1,24
 1416 499 1416 499 1378 499 c 2,25,-1
 373 499 l 2,26,27
 335 499 335 499 308 473.5 c 128,-1,28
 281 448 281 448 281 411 c 0,14,15
392 661 m 0,29,30
 392 646 392 646 411 646 c 2,31,-1
 563 646 l 2,32,33
 577 646 577 646 587 661 c 0,34,35
 623 748 623 748 698 805 c 128,-1,36
 773 862 773 862 866 869 c 1,37,-1
 925 877 l 2,38,39
 944 877 944 877 944 895 c 2,40,-1
 951 950 l 1,41,42
 968 1124 968 1124 1098.5 1240.5 c 128,-1,43
 1229 1357 1229 1357 1405 1357 c 0,44,45
 1580 1357 1580 1357 1708 1242 c 128,-1,46
 1836 1127 1836 1127 1858 953 c 2,47,-1
 1866 891 l 2,48,49
 1866 873 1866 873 1885 873 c 2,50,-1
 2057 873 l 2,51,52
 2202 873 2202 873 2304 771 c 128,-1,53
 2406 669 2406 669 2406 525 c 0,54,55
 2406 384 2406 384 2302.5 280.5 c 128,-1,56
 2199 177 2199 177 2057 177 c 2,57,-1
 1320 177 l 2,58,59
 1302 177 1302 177 1302 159 c 2,60,-1
 1302 16 l 2,61,62
 1302 -2 1302 -2 1320 -2 c 2,63,-1
 2057 -2 l 2,64,65
 2201 -2 2201 -2 2323 68 c 128,-1,66
 2445 138 2445 138 2516 259.5 c 128,-1,67
 2587 381 2587 381 2587 525 c 128,-1,68
 2587 669 2587 669 2518 789 c 1,69,70
 2633 892 2633 892 2679 1064 c 2,71,-1
 2698 1137 l 2,72,73
 2699 1139 2699 1139 2699 1144 c 0,74,75
 2699 1157 2699 1157 2683 1161 c 2,76,-1
 2617 1184 l 2,77,78
 2547 1205 2547 1205 2493 1245 c 128,-1,79
 2439 1285 2439 1285 2407.5 1334.5 c 128,-1,80
 2376 1384 2376 1384 2360.5 1435 c 128,-1,81
 2345 1486 2345 1486 2345 1536 c 0,82,83
 2345 1574 2345 1574 2357 1629 c 2,84,-1
 2371 1694 l 2,85,86
 2378 1709 2378 1709 2357 1718 c 2,87,-1
 2269 1744 l 2,88,89
 2199 1761 2199 1761 2136 1761 c 0,90,91
 2076 1761 2076 1761 2015 1747 c 128,-1,92
 1954 1733 1954 1733 1889 1703.5 c 128,-1,93
 1824 1674 1824 1674 1763.5 1618.5 c 128,-1,94
 1703 1563 1703 1563 1658 1488 c 1,95,96
 1534 1539 1534 1539 1405 1539 c 0,97,98
 1179 1539 1179 1539 1004.5 1398.5 c 128,-1,99
 830 1258 830 1258 783 1038 c 1,100,101
 644 1006 644 1006 539.5 907.5 c 128,-1,102
 435 809 435 809 394 672 c 1,103,-1
 394 669 l 2,104,105
 392 667 392 667 392 661 c 0,29,30
469 -245 m 0,106,107
 469 -284 469 -284 496 -309 c 0,108,109
 522 -336 522 -336 560 -336 c 2,110,-1
 1566 -336 l 2,111,112
 1604 -336 1604 -336 1631 -309 c 128,-1,113
 1658 -282 1658 -282 1658 -245 c 128,-1,114
 1658 -208 1658 -208 1631 -182.5 c 128,-1,115
 1604 -157 1604 -157 1566 -157 c 2,116,-1
 560 -157 l 2,117,118
 522 -157 522 -157 495.5 -182.5 c 128,-1,119
 469 -208 469 -208 469 -245 c 0,106,107
1811 1394 m 1,120,121
 1866 1482 1866 1482 1954.5 1530.5 c 128,-1,122
 2043 1579 2043 1579 2136 1577 c 0,123,124
 2154 1577 2154 1577 2163 1576 c 1,125,-1
 2163 1550 l 2,126,127
 2163 1394 2163 1394 2247.5 1252.5 c 128,-1,128
 2332 1111 2332 1111 2479 1041 c 1,129,130
 2451 977 2451 977 2398 927 c 1,131,132
 2257 1053 2257 1053 2057 1053 c 2,133,-1
 2023 1053 l 1,134,135
 1983 1246 1983 1246 1811 1394 c 1,120,121
EndSplineSet
EndChar

StartChar: uniF024
Encoding: 61476 61476 52
Width: 2325
GlyphClass: 2
Flags: W
LayerCount: 2
Fore
SplineSet
0 527 m 0,0,1
 0 314 0 314 148.5 161 c 128,-1,2
 297 8 297 8 511 -2 c 0,3,4
 530 -2 530 -2 530 16 c 2,5,-1
 530 159 l 2,6,7
 530 177 530 177 511 177 c 0,8,9
 374 184 374 184 278 286 c 128,-1,10
 182 388 182 388 182 527 c 0,11,12
 182 660 182 660 272 758 c 128,-1,13
 362 856 362 856 496 872 c 1,14,-1
 552 875 l 2,15,16
 573 875 573 875 573 894 c 2,17,-1
 581 952 l 1,18,19
 598 1125 598 1125 727.5 1242 c 128,-1,20
 857 1359 857 1359 1032 1359 c 0,21,22
 1205 1359 1205 1359 1336 1242 c 128,-1,23
 1467 1125 1467 1125 1485 952 c 1,24,-1
 1493 890 l 2,25,26
 1493 872 1493 872 1511 872 c 2,27,-1
 1683 872 l 2,28,29
 1825 872 1825 872 1929 769.5 c 128,-1,30
 2033 667 2033 667 2033 527 c 0,31,32
 2033 388 2033 388 1937 286 c 128,-1,33
 1841 184 1841 184 1704 177 c 0,34,35
 1683 177 1683 177 1683 159 c 2,36,-1
 1683 16 l 2,37,38
 1683 -2 1683 -2 1704 -2 c 0,39,40
 1917 5 1917 5 2065 159 c 128,-1,41
 2213 313 2213 313 2213 527 c 0,42,43
 2213 664 2213 664 2144 784 c 1,44,45
 2270 903 2270 903 2309 1063 c 1,46,-1
 2323 1136 l 2,47,48
 2326 1138 2326 1138 2326 1143 c 0,49,50
 2326 1155 2326 1155 2309 1160 c 2,51,-1
 2249 1178 l 2,52,53
 2158 1205 2158 1205 2093.5 1268.5 c 128,-1,54
 2029 1332 2029 1332 2002 1401.5 c 128,-1,55
 1975 1471 1975 1471 1975 1542 c 0,56,57
 1974 1581 1974 1581 1983 1626 c 2,58,-1
 1998 1688 l 2,59,60
 2003 1702 2003 1702 1983 1711 c 2,61,-1
 1898 1738 l 2,62,63
 1831 1758 1831 1758 1758 1758 c 0,64,65
 1702 1758 1702 1758 1642.5 1744.5 c 128,-1,66
 1583 1731 1583 1731 1518 1701.5 c 128,-1,67
 1453 1672 1453 1672 1391.5 1616.5 c 128,-1,68
 1330 1561 1330 1561 1285 1486 c 1,69,70
 1165 1538 1165 1538 1032 1538 c 0,71,72
 806 1538 806 1538 631 1398 c 128,-1,73
 456 1258 456 1258 407 1040 c 1,74,75
 230 999 230 999 115 855.5 c 128,-1,76
 0 712 0 712 0 527 c 0,0,1
584 -223 m 0,77,78
 598 -257 598 -257 633 -271 c 0,79,80
 664 -287 664 -287 699 -273.5 c 128,-1,81
 734 -260 734 -260 747 -226 c 0,82,83
 763 -191 763 -191 749.5 -157 c 128,-1,84
 736 -123 736 -123 702 -110 c 0,85,86
 670 -94 670 -94 636 -108 c 128,-1,87
 602 -122 602 -122 586 -157 c 1,88,89
 570 -182 570 -182 584 -223 c 0,77,78
651 79 m 0,90,91
 651 55 651 55 668 31 c 128,-1,92
 685 7 685 7 717 -3 c 0,93,94
 758 -19 758 -19 788.5 -2.5 c 128,-1,95
 819 14 819 14 831 58 c 2,96,-1
 925 400 l 2,97,98
 936 440 936 440 916.5 471.5 c 128,-1,99
 897 503 897 503 859 511 c 0,100,101
 824 522 824 522 792 504 c 128,-1,102
 760 486 760 486 749 450 c 2,103,-1
 655 107 l 2,104,105
 655 104 655 104 653 94 c 128,-1,106
 651 84 651 84 651 79 c 0,90,91
850 -518 m 0,107,108
 850 -538 850 -538 856 -549 c 0,109,110
 870 -584 870 -584 904 -597 c 0,111,112
 919 -605 919 -605 939 -605 c 0,113,114
 949 -605 949 -605 971 -599 c 0,115,116
 1007 -586 1007 -586 1022.5 -551 c 128,-1,117
 1038 -516 1038 -516 1022 -481 c 128,-1,118
 1006 -446 1006 -446 974.5 -432 c 128,-1,119
 943 -418 943 -418 909 -432 c 0,120,121
 878 -445 878 -445 864 -470 c 128,-1,122
 850 -495 850 -495 850 -518 c 0,107,108
929 -235 m 0,123,124
 929 -296 929 -296 997 -318 c 0,125,126
 1012 -323 1012 -323 1022 -323 c 0,127,128
 1040 -323 1040 -323 1059 -314 c 0,129,130
 1096 -301 1096 -301 1109 -253 c 2,131,-1
 1285 400 l 2,132,133
 1295 438 1295 438 1277.5 469 c 128,-1,134
 1260 500 1260 500 1224 511 c 0,135,136
 1187 522 1187 522 1154.5 504 c 128,-1,137
 1122 486 1122 486 1112 450 c 2,138,-1
 933 -208 l 2,139,140
 929 -226 929 -226 929 -235 c 0,123,124
1296 -191 m 0,141,142
 1296 -211 1296 -211 1303 -224 c 0,143,144
 1316 -256 1316 -256 1350 -271 c 0,145,146
 1369 -279 1369 -279 1387 -279 c 0,147,148
 1397 -279 1397 -279 1419 -273 c 0,149,150
 1454 -259 1454 -259 1467 -226 c 0,151,152
 1480 -191 1480 -191 1467.5 -158.5 c 128,-1,153
 1455 -126 1455 -126 1423 -110 c 0,154,155
 1388 -94 1388 -94 1353.5 -107.5 c 128,-1,156
 1319 -121 1319 -121 1303 -157 c 0,157,158
 1296 -170 1296 -170 1296 -191 c 0,141,142
1373 82 m 0,159,160
 1373 56 1373 56 1389.5 33 c 128,-1,161
 1406 10 1406 10 1438 0 c 1,162,163
 1465 -3 1465 -3 1467 -3 c 0,164,165
 1532 -3 1532 -3 1549 62 c 2,166,-1
 1642 400 l 2,167,168
 1652 438 1652 438 1634.5 469 c 128,-1,169
 1617 500 1617 500 1581 511 c 0,170,171
 1544 522 1544 522 1512.5 504 c 128,-1,172
 1481 486 1481 486 1470 450 c 2,173,-1
 1376 111 l 2,174,175
 1373 97 1373 97 1373 82 c 0,159,160
1442 1389 m 1,176,177
 1492 1481 1492 1481 1580.5 1529 c 128,-1,178
 1669 1577 1669 1577 1768 1576 c 0,179,180
 1786 1576 1786 1576 1795 1574 c 1,181,-1
 1795 1541 l 2,182,183
 1795 1385 1795 1385 1878.5 1247.5 c 128,-1,184
 1962 1110 1962 1110 2110 1040 c 1,185,186
 2079 970 2079 970 2030 926 c 1,187,188
 1889 1051 1889 1051 1683 1051 c 2,189,-1
 1649 1051 l 1,190,191
 1608 1251 1608 1251 1442 1389 c 1,176,177
EndSplineSet
EndChar

StartChar: uniF025
Encoding: 61477 61477 53
Width: 2320
GlyphClass: 2
Flags: W
LayerCount: 2
Fore
SplineSet
0 527 m 0,0,1
 0 314 0 314 148.5 161 c 128,-1,2
 297 8 297 8 511 -2 c 0,3,4
 529 -2 529 -2 529 16 c 2,5,-1
 529 162 l 2,6,7
 529 181 529 181 511 181 c 0,8,9
 372 192 372 192 277 291.5 c 128,-1,10
 182 391 182 391 182 527 c 0,11,12
 182 661 182 661 272.5 760.5 c 128,-1,13
 363 860 363 860 496 871 c 1,14,-1
 552 879 l 2,15,16
 573 879 573 879 573 897 c 2,17,-1
 581 952 l 1,18,19
 598 1125 598 1125 727 1241.5 c 128,-1,20
 856 1358 856 1358 1031 1358 c 0,21,22
 1205 1358 1205 1358 1335 1242 c 128,-1,23
 1465 1126 1465 1126 1483 952 c 1,24,-1
 1491 890 l 2,25,26
 1491 871 1491 871 1510 871 c 2,27,-1
 1682 871 l 2,28,29
 1827 871 1827 871 1929.5 770 c 128,-1,30
 2032 669 2032 669 2032 527 c 0,31,32
 2032 391 2032 391 1937 291.5 c 128,-1,33
 1842 192 1842 192 1703 181 c 0,34,35
 1682 181 1682 181 1682 162 c 2,36,-1
 1682 16 l 2,37,38
 1682 -2 1682 -2 1703 -2 c 0,39,40
 1916 5 1916 5 2063.5 159 c 128,-1,41
 2211 313 2211 313 2211 527 c 0,42,43
 2211 670 2211 670 2138 791 c 1,44,45
 2266 907 2266 907 2303 1066 c 2,46,-1
 2319 1143 l 2,47,48
 2320 1144 2320 1144 2320 1150 c 0,49,50
 2320 1162 2320 1162 2303 1167 c 2,51,-1
 2241 1185 l 2,52,53
 2150 1211 2150 1211 2086 1273 c 128,-1,54
 2022 1335 2022 1335 1995 1404.5 c 128,-1,55
 1968 1474 1968 1474 1968 1545 c 0,56,57
 1968 1584 1968 1584 1978 1629 c 2,58,-1
 1993 1695 l 2,59,60
 1998 1710 1998 1710 1978 1719 c 2,61,-1
 1894 1745 l 1,62,63
 1824 1762 1824 1762 1761 1762 c 0,64,65
 1703 1762 1703 1762 1642 1748 c 128,-1,66
 1581 1734 1581 1734 1515 1704.5 c 128,-1,67
 1449 1675 1449 1675 1387 1619.5 c 128,-1,68
 1325 1564 1325 1564 1280 1489 c 1,69,70
 1167 1537 1167 1537 1031 1537 c 0,71,72
 805 1537 805 1537 630.5 1397.5 c 128,-1,73
 456 1258 456 1258 406 1040 c 1,74,75
 230 998 230 998 115 854.5 c 128,-1,76
 0 711 0 711 0 527 c 0,0,1
818 31 m 2,77,78
 810 8 810 8 833 8 c 2,79,-1
 1063 8 l 1,80,-1
 923 -434 l 1,81,-1
 955 -434 l 1,82,-1
 1400 162 l 2,83,84
 1406 169 1406 169 1403 176.5 c 128,-1,85
 1400 184 1400 184 1389 184 c 2,86,-1
 1154 184 l 1,87,-1
 1400 633 l 2,88,89
 1411 656 1411 656 1385 656 c 2,90,-1
 1071 656 l 2,91,92
 1058 656 1058 656 1048 641 c 1,93,-1
 818 31 l 2,77,78
1437 1391 m 1,94,95
 1490 1482 1490 1482 1578.5 1530 c 128,-1,96
 1667 1578 1667 1578 1762 1578 c 0,97,98
 1782 1578 1782 1578 1791 1576 c 1,99,-1
 1791 1543 l 2,100,101
 1791 1389 1791 1389 1874 1252 c 128,-1,102
 1957 1115 1957 1115 2105 1043 c 1,103,104
 2080 984 2080 984 2025 929 c 1,105,106
 1878 1055 1878 1055 1682 1055 c 2,107,-1
 1648 1055 l 1,108,109
 1603 1255 1603 1255 1437 1391 c 1,94,95
EndSplineSet
EndChar

StartChar: uniF026
Encoding: 61478 61478 54
Width: 2332
GlyphClass: 2
Flags: W
LayerCount: 2
Fore
SplineSet
0 525 m 0,0,1
 0 313 0 313 149 159 c 128,-1,2
 298 5 298 5 512 -2 c 0,3,4
 531 -2 531 -2 531 16 c 2,5,-1
 531 159 l 2,6,7
 531 177 531 177 512 177 c 0,8,9
 376 184 376 184 279 287 c 128,-1,10
 182 390 182 390 182 525 c 0,11,12
 182 661 182 661 272.5 760.5 c 128,-1,13
 363 860 363 860 497 871 c 1,14,-1
 554 878 l 2,15,16
 575 878 575 878 575 897 c 2,17,-1
 582 951 l 1,18,19
 599 1127 599 1127 728.5 1244.5 c 128,-1,20
 858 1362 858 1362 1034 1362 c 0,21,22
 1208 1362 1208 1362 1339.5 1245 c 128,-1,23
 1471 1128 1471 1128 1489 955 c 1,24,-1
 1497 894 l 2,25,26
 1497 874 1497 874 1515 874 c 2,27,-1
 1688 874 l 2,28,29
 1833 874 1833 874 1936.5 771 c 128,-1,30
 2040 668 2040 668 2040 525 c 0,31,32
 2040 437 2040 437 1996 358.5 c 128,-1,33
 1952 280 1952 280 1875.5 231 c 128,-1,34
 1799 182 1799 182 1709 177 c 0,35,36
 1688 177 1688 177 1688 159 c 2,37,-1
 1688 16 l 2,38,39
 1688 -2 1688 -2 1709 -2 c 0,40,41
 1850 2 1850 2 1967 74 c 128,-1,42
 2084 146 2084 146 2151.5 265.5 c 128,-1,43
 2219 385 2219 385 2219 525 c 0,44,45
 2219 666 2219 666 2146 793 c 1,46,47
 2279 912 2279 912 2315 1073 c 2,48,-1
 2330 1146 l 2,49,50
 2333 1149 2333 1149 2333 1154 c 0,51,52
 2333 1163 2333 1163 2315 1171 c 2,53,-1
 2256 1190 l 2,54,55
 2164 1217 2164 1217 2099 1280.5 c 128,-1,56
 2034 1344 2034 1344 2006.5 1413.5 c 128,-1,57
 1979 1483 1979 1483 1979 1551 c 0,58,59
 1976 1585 1976 1585 1989 1639 c 2,60,-1
 2003 1701 l 2,61,62
 2010 1717 2010 1717 1989 1726 c 2,63,-1
 1904 1752 l 2,64,65
 1839 1770 1839 1770 1766 1770 c 0,66,67
 1708 1770 1708 1770 1646.5 1756 c 128,-1,68
 1585 1742 1585 1742 1519.5 1712 c 128,-1,69
 1454 1682 1454 1682 1392 1625.5 c 128,-1,70
 1330 1569 1330 1569 1285 1494 c 1,71,72
 1155 1543 1155 1543 1034 1543 c 0,73,74
 808 1543 808 1543 632.5 1402.5 c 128,-1,75
 457 1262 457 1262 407 1043 c 1,76,77
 227 997 227 997 113.5 854 c 128,-1,78
 0 711 0 711 0 525 c 0,0,1
577 -227 m 0,79,80
 577 -254 577 -254 594.5 -281 c 128,-1,81
 612 -308 612 -308 645 -318 c 0,82,83
 682 -329 682 -329 713 -314 c 128,-1,84
 744 -299 744 -299 755 -254 c 2,85,-1
 770 -189 l 2,86,87
 778 -153 778 -153 760 -121.5 c 128,-1,88
 742 -90 742 -90 705 -79 c 0,89,90
 669 -68 669 -68 636.5 -87 c 128,-1,91
 604 -106 604 -106 594 -144 c 2,92,-1
 579 -207 l 2,93,94
 577 -213 577 -213 577 -227 c 0,79,80
658 82 m 0,95,96
 658 48 658 48 685 21 c 0,97,98
 710 -6 710 -6 745 -6 c 0,99,100
 783 -6 783 -6 809 19.5 c 128,-1,101
 835 45 835 45 835 82 c 128,-1,102
 835 119 835 119 809 144.5 c 128,-1,103
 783 170 783 170 745 170 c 0,104,105
 708 170 708 170 683 145 c 128,-1,106
 658 120 658 120 658 82 c 0,95,96
723 325 m 0,107,108
 721 300 721 300 737.5 276.5 c 128,-1,109
 754 253 754 253 789 242 c 0,110,111
 822 232 822 232 855 249.5 c 128,-1,112
 888 267 888 267 899 304 c 2,113,-1
 929 400 l 2,114,115
 941 439 941 439 922 469.5 c 128,-1,116
 903 500 903 500 864 511 c 0,117,118
 829 522 829 522 796.5 504 c 128,-1,119
 764 486 764 486 753 451 c 2,120,-1
 727 353 l 2,121,122
 727 350 727 350 725 340.5 c 128,-1,123
 723 331 723 331 723 325 c 0,107,108
847 -560 m 0,124,125
 847 -588 847 -588 863.5 -613 c 128,-1,126
 880 -638 880 -638 915 -648 c 0,127,128
 928 -651 928 -651 942 -651 c 0,129,130
 1010 -651 1010 -651 1026 -586 c 2,131,-1
 1041 -523 l 2,132,133
 1051 -482 1051 -482 1032 -450 c 128,-1,134
 1013 -418 1013 -418 976 -411 c 1,135,136
 942 -400 942 -400 909 -418.5 c 128,-1,137
 876 -437 876 -437 865 -473 c 2,138,-1
 850 -536 l 2,139,140
 847 -550 847 -550 847 -560 c 0,124,125
930 -250 m 0,141,142
 930 -285 930 -285 957 -312 c 0,143,144
 983 -338 983 -338 1018 -338 c 0,145,146
 1056 -338 1056 -338 1081 -313 c 128,-1,147
 1106 -288 1106 -288 1106 -250 c 0,148,149
 1106 -213 1106 -213 1081 -188 c 128,-1,150
 1056 -163 1056 -163 1018 -163 c 128,-1,151
 980 -163 980 -163 955 -188 c 128,-1,152
 930 -213 930 -213 930 -250 c 0,141,142
997 -8 m 0,153,154
 995 -32 995 -32 1011 -58 c 128,-1,155
 1027 -84 1027 -84 1059 -90 c 0,156,157
 1096 -100 1096 -100 1127 -84 c 128,-1,158
 1158 -68 1158 -68 1171 -24 c 2,159,-1
 1200 72 l 2,160,161
 1211 107 1211 107 1192.5 139 c 128,-1,162
 1174 171 1174 171 1136 182 c 0,163,164
 1101 193 1101 193 1068 173.5 c 128,-1,165
 1035 154 1035 154 1024 117 c 2,166,-1
 1000 21 l 2,167,168
 997 8 997 8 997 -8 c 0,153,154
1291 -237 m 0,169,170
 1291 -263 1291 -263 1307.5 -288 c 128,-1,171
 1324 -313 1324 -313 1357 -323 c 0,172,173
 1362 -323 1362 -323 1371.5 -325 c 128,-1,174
 1381 -327 1381 -327 1386 -327 c 0,175,176
 1451 -327 1451 -327 1467 -257 c 2,177,-1
 1482 -193 l 2,178,179
 1493 -159 1493 -159 1475 -126 c 128,-1,180
 1457 -93 1457 -93 1421 -82 c 0,181,182
 1381 -72 1381 -72 1348.5 -90.5 c 128,-1,183
 1316 -109 1316 -109 1305 -147 c 1,184,-1
 1295 -210 l 2,185,186
 1295 -214 1295 -214 1293 -223 c 128,-1,187
 1291 -232 1291 -232 1291 -237 c 0,169,170
1370 78 m 0,188,189
 1370 42 1370 42 1397 17 c 0,190,191
 1421 -9 1421 -9 1458 -9 c 0,192,193
 1496 -9 1496 -9 1521 16 c 128,-1,194
 1546 41 1546 41 1546 78 c 0,195,196
 1546 116 1546 116 1521 141 c 128,-1,197
 1496 166 1496 166 1458 166 c 128,-1,198
 1420 166 1420 166 1395 141 c 128,-1,199
 1370 116 1370 116 1370 78 c 0,188,189
1435 325 m 0,200,201
 1435 298 1435 298 1452.5 273.5 c 128,-1,202
 1470 249 1470 249 1505 239 c 0,203,204
 1508 239 1508 239 1518 237 c 128,-1,205
 1528 235 1528 235 1533 235 c 0,206,207
 1549 235 1549 235 1571 245 c 0,208,209
 1605 263 1605 263 1615 301 c 2,210,-1
 1641 397 l 2,211,212
 1651 433 1651 433 1633 464.5 c 128,-1,213
 1615 496 1615 496 1579 507 c 0,214,215
 1542 518 1542 518 1511 501 c 128,-1,216
 1480 484 1480 484 1469 447 c 2,217,-1
 1439 350 l 2,218,219
 1439 346 1439 346 1437 337.5 c 128,-1,220
 1435 329 1435 329 1435 325 c 0,200,201
1442 1397 m 1,221,222
 1493 1489 1493 1489 1582 1539.5 c 128,-1,223
 1671 1590 1671 1590 1766 1589 c 0,224,225
 1781 1589 1781 1589 1798 1586 c 1,226,-1
 1798 1552 l 2,227,228
 1796 1395 1796 1395 1880.5 1257.5 c 128,-1,229
 1965 1120 1965 1120 2117 1051 c 1,230,231
 2086 986 2086 986 2032 933 c 1,232,233
 1884 1055 1884 1055 1688 1055 c 2,234,-1
 1655 1055 l 1,235,236
 1605 1263 1605 1263 1442 1397 c 1,221,222
EndSplineSet
EndChar

StartChar: uniF027
Encoding: 61479 61479 55
Width: 2333
GlyphClass: 2
Flags: W
LayerCount: 2
Fore
SplineSet
0 525 m 0,0,1
 0 346 0 346 106.5 204.5 c 128,-1,2
 213 63 213 63 381 16 c 0,3,4
 395 13 395 13 407 24 c 2,5,-1
 527 174 l 1,6,7
 387 174 387 174 284.5 278 c 128,-1,8
 182 382 182 382 182 525 c 0,9,10
 182 659 182 659 272 756.5 c 128,-1,11
 362 854 362 854 497 866 c 1,12,-1
 550 873 l 2,13,14
 570 873 570 873 570 893 c 2,15,-1
 578 950 l 1,16,17
 598 1124 598 1124 728 1241 c 128,-1,18
 858 1358 858 1358 1033 1358 c 0,19,20
 1207 1358 1207 1358 1338 1240.5 c 128,-1,21
 1469 1123 1469 1123 1488 950 c 2,22,-1
 1495 888 l 2,23,24
 1495 870 1495 870 1514 870 c 2,25,-1
 1687 870 l 2,26,27
 1828 870 1828 870 1930.5 768 c 128,-1,28
 2033 666 2033 666 2033 525 c 0,29,30
 2033 389 2033 389 1943 288.5 c 128,-1,31
 1853 188 1853 188 1722 177 c 0,32,33
 1650 168 1650 168 1630 147 c 2,34,-1
 1381 -163 l 2,35,36
 1356 -191 1356 -191 1361 -230 c 0,37,38
 1365 -268 1365 -268 1394.5 -293 c 128,-1,39
 1424 -318 1424 -318 1455 -318 c 0,40,41
 1491 -318 1491 -318 1523 -278 c 2,42,-1
 1741 -2 l 1,43,44
 1840 8 1840 8 1928.5 53.5 c 128,-1,45
 2017 99 2017 99 2080 169 c 128,-1,46
 2143 239 2143 239 2180 332 c 128,-1,47
 2217 425 2217 425 2217 525 c 0,48,49
 2217 664 2217 664 2144 785 c 1,50,51
 2274 903 2274 903 2313 1065 c 1,52,-1
 2313 1075 l 1,53,-1
 2334 1157 l 1,54,-1
 2253 1185 l 1,55,56
 2161 1212 2161 1212 2096.5 1274 c 128,-1,57
 2032 1336 2032 1336 2004.5 1405 c 128,-1,58
 1977 1474 1977 1474 1977 1545 c 0,59,60
 1977 1586 1977 1586 1986 1630 c 2,61,-1
 2006 1713 l 1,62,-1
 1917 1738 l 2,63,64
 1916 1738 1916 1738 1914 1739.5 c 128,-1,65
 1912 1741 1912 1741 1910 1742 c 128,-1,66
 1908 1743 1908 1743 1905.5 1744 c 128,-1,67
 1903 1745 1903 1745 1902 1745 c 0,68,69
 1832 1762 1832 1762 1769 1762 c 0,70,71
 1708 1761 1708 1761 1646.5 1747 c 128,-1,72
 1585 1733 1585 1733 1518.5 1703 c 128,-1,73
 1452 1673 1452 1673 1390 1617 c 128,-1,74
 1328 1561 1328 1561 1283 1485 c 1,75,76
 1163 1537 1163 1537 1033 1537 c 0,77,78
 807 1537 807 1537 632 1397 c 128,-1,79
 457 1257 457 1257 407 1039 c 1,80,81
 226 995 226 995 113 852.5 c 128,-1,82
 0 710 0 710 0 525 c 0,0,1
395 -327 m 128,-1,84
 395 -348 395 -348 402 -360 c 0,85,86
 416 -395 416 -395 448 -409 c 0,87,88
 483 -425 483 -425 519 -412 c 128,-1,89
 555 -399 555 -399 568 -365 c 0,90,91
 584 -330 584 -330 569.5 -293.5 c 128,-1,92
 555 -257 555 -257 521 -245 c 0,93,94
 486 -229 486 -229 450.5 -242.5 c 128,-1,95
 415 -256 415 -256 402 -291 c 0,96,83
 395 -306 395 -306 395 -327 c 128,-1,84
592 -66 m 2,97,-1
 592 -78 l 2,98,99
 595 -114 595 -114 627 -137 c 1,100,101
 648 -161 648 -161 685 -160 c 128,-1,102
 722 -159 722 -159 755 -126 c 1,103,-1
 1003 185 l 2,104,105
 1025 213 1025 213 1021 251.5 c 128,-1,106
 1017 290 1017 290 989 313 c 128,-1,107
 961 336 961 336 922 332 c 128,-1,108
 883 328 883 328 861 296 c 2,109,-1
 613 -9 l 2,110,111
 592 -33 592 -33 592 -66 c 2,97,-1
653 -622 m 0,112,113
 667 -656 667 -656 702 -670 c 0,114,115
 719 -678 719 -678 737 -678 c 0,116,117
 747 -678 747 -678 769 -672 c 0,118,119
 803 -658 803 -658 816 -625 c 0,120,121
 829 -590 829 -590 817 -556 c 128,-1,122
 805 -522 805 -522 770 -505 c 0,123,124
 735 -492 735 -492 703 -505.5 c 128,-1,125
 671 -519 671 -519 655 -552 c 0,126,127
 638 -582 638 -582 653 -622 c 0,112,113
823 -338 m 2,128,-1
 823 -347 l 1,129,130
 827 -383 827 -383 857 -408.5 c 128,-1,131
 887 -434 887 -434 917 -434 c 0,132,133
 952 -434 952 -434 981 -398 c 2,134,-1
 1441 174 l 2,135,136
 1464 201 1464 201 1461 240 c 128,-1,137
 1458 279 1458 279 1430 302 c 0,138,139
 1398 325 1398 325 1359.5 321.5 c 128,-1,140
 1321 318 1321 318 1299 290 c 2,141,-1
 843 -282 l 2,142,143
 823 -307 823 -307 823 -338 c 2,128,-1
1197 -456 m 0,144,145
 1197 -474 1197 -474 1205 -491 c 0,146,147
 1218 -527 1218 -527 1255 -541 c 0,148,149
 1291 -555 1291 -555 1320 -543 c 0,150,151
 1355 -529 1355 -529 1369 -494 c 0,152,153
 1385 -459 1385 -459 1372.5 -425.5 c 128,-1,154
 1360 -392 1360 -392 1325 -376 c 0,155,156
 1290 -363 1290 -363 1255.5 -376 c 128,-1,157
 1221 -389 1221 -389 1205 -421 c 0,158,159
 1197 -440 1197 -440 1197 -456 c 0,144,145
1441 1391 m 1,160,161
 1491 1483 1491 1483 1579.5 1531.5 c 128,-1,162
 1668 1580 1668 1580 1767 1578 c 0,163,164
 1786 1578 1786 1578 1795 1577 c 1,165,-1
 1795 1545 l 2,166,167
 1795 1390 1795 1390 1880.5 1251.5 c 128,-1,168
 1966 1113 1966 1113 2114 1042 c 1,169,170
 2074 967 2074 967 2030 923 c 1,171,172
 1888 1049 1888 1049 1687 1049 c 2,173,-1
 1653 1049 l 1,174,175
 1605 1254 1605 1254 1441 1391 c 1,160,161
EndSplineSet
EndChar

StartChar: uniF028
Encoding: 61480 61480 56
Width: 2331
GlyphClass: 2
Flags: W
LayerCount: 2
Fore
SplineSet
0 528 m 0,0,1
 0 315 0 315 149 161.5 c 128,-1,2
 298 8 298 8 512 -2 c 0,3,4
 531 -2 531 -2 531 16 c 2,5,-1
 531 159 l 2,6,7
 531 177 531 177 512 177 c 0,8,9
 375 185 375 185 278.5 287 c 128,-1,10
 182 389 182 389 182 528 c 0,11,12
 182 661 182 661 272.5 759.5 c 128,-1,13
 363 858 363 858 497 874 c 1,14,-1
 554 878 l 2,15,16
 575 878 575 878 575 896 c 2,17,-1
 582 954 l 2,18,19
 599 1127 599 1127 729 1244.5 c 128,-1,20
 859 1362 859 1362 1034 1362 c 0,21,22
 1208 1362 1208 1362 1339 1244.5 c 128,-1,23
 1470 1127 1470 1127 1488 954 c 1,24,-1
 1496 893 l 2,25,26
 1496 874 1496 874 1514 874 c 2,27,-1
 1687 874 l 2,28,29
 1830 874 1830 874 1934.5 771.5 c 128,-1,30
 2039 669 2039 669 2039 528 c 0,31,32
 2039 389 2039 389 1942.5 287 c 128,-1,33
 1846 185 1846 185 1709 177 c 0,34,35
 1687 177 1687 177 1687 159 c 2,36,-1
 1687 16 l 2,37,38
 1687 -2 1687 -2 1709 -2 c 0,39,40
 1922 5 1922 5 2070 159.5 c 128,-1,41
 2218 314 2218 314 2218 528 c 0,42,43
 2218 669 2218 669 2145 790 c 1,44,45
 2274 907 2274 907 2314 1069 c 1,46,-1
 2329 1146 l 2,47,48
 2331 1147 2331 1147 2331 1153 c 0,49,50
 2331 1165 2331 1165 2314 1170 c 2,51,-1
 2254 1189 l 2,52,53
 2163 1215 2163 1215 2098 1277.5 c 128,-1,54
 2033 1340 2033 1340 2005.5 1409 c 128,-1,55
 1978 1478 1978 1478 1978 1546 c 0,56,57
 1975 1582 1975 1582 1987 1634 c 2,58,-1
 2002 1699 l 2,59,60
 2009 1715 2009 1715 1987 1725 c 2,61,-1
 1903 1751 l 1,62,63
 1831 1767 1831 1767 1768 1767 c 0,64,65
 1708 1767 1708 1767 1646 1753 c 128,-1,66
 1584 1739 1584 1739 1518 1709.5 c 128,-1,67
 1452 1680 1452 1680 1390 1624.5 c 128,-1,68
 1328 1569 1328 1569 1283 1494 c 1,69,70
 1151 1542 1151 1542 1034 1542 c 0,71,72
 808 1542 808 1542 632.5 1401.5 c 128,-1,73
 457 1261 457 1261 407 1042 c 1,74,75
 230 1001 230 1001 115 857 c 128,-1,76
 0 713 0 713 0 528 c 0,0,1
593 -201 m 0,77,78
 593 -228 593 -228 610.5 -253.5 c 128,-1,79
 628 -279 628 -279 663 -289 c 0,80,81
 700 -300 700 -300 731.5 -284.5 c 128,-1,82
 763 -269 763 -269 774 -225 c 2,83,-1
 927 401 l 2,84,85
 937 441 937 441 918 473 c 128,-1,86
 899 505 899 505 862 512 c 1,87,88
 827 523 827 523 794.5 505 c 128,-1,89
 762 487 762 487 751 451 c 2,90,-1
 597 -178 l 2,91,92
 597 -180 597 -180 595 -188 c 128,-1,93
 593 -196 593 -196 593 -201 c 0,77,78
871 -529 m 0,94,95
 871 -554 871 -554 887.5 -578 c 128,-1,96
 904 -602 904 -602 935 -611 c 0,97,98
 953 -615 953 -615 961 -615 c 0,99,100
 1031 -615 1031 -615 1048 -552 c 2,101,-1
 1288 401 l 2,102,103
 1298 440 1298 440 1280.5 470.5 c 128,-1,104
 1263 501 1263 501 1227 512 c 0,105,106
 1190 523 1190 523 1156.5 504.5 c 128,-1,107
 1123 486 1123 486 1115 451 c 2,108,-1
 874 -501 l 2,109,110
 874 -503 874 -503 872.5 -513.5 c 128,-1,111
 871 -524 871 -524 871 -529 c 0,94,95
1315 -210 m 0,112,113
 1315 -267 1315 -267 1382 -289 c 0,114,115
 1404 -295 1404 -295 1414 -295 c 0,116,117
 1432 -295 1432 -295 1451 -287 c 0,118,119
 1484 -274 1484 -274 1493 -225 c 2,120,-1
 1646 401 l 2,121,122
 1656 439 1656 439 1638 470 c 128,-1,123
 1620 501 1620 501 1584 512 c 0,124,125
 1547 523 1547 523 1514 505 c 128,-1,126
 1481 487 1481 487 1473 451 c 2,127,-1
 1320 -178 l 2,128,129
 1315 -206 1315 -206 1315 -210 c 0,112,113
1441 1395 m 1,130,131
 1492 1488 1492 1488 1580.5 1536.5 c 128,-1,132
 1669 1585 1669 1585 1768 1583 c 0,133,134
 1787 1583 1787 1583 1797 1582 c 1,135,-1
 1797 1550 l 2,136,137
 1795 1395 1795 1395 1879 1257 c 128,-1,138
 1963 1119 1963 1119 2115 1047 c 1,139,140
 2079 974 2079 974 2031 933 c 1,141,142
 1884 1054 1884 1054 1687 1054 c 2,143,-1
 1654 1054 l 1,144,145
 1610 1257 1610 1257 1441 1395 c 1,130,131
EndSplineSet
EndChar

StartChar: uniF029
Encoding: 61481 61481 57
Width: 2331
GlyphClass: 2
Flags: W
LayerCount: 2
Fore
SplineSet
0 527 m 0,0,1
 0 314 0 314 148.5 161 c 128,-1,2
 297 8 297 8 511 -2 c 0,3,4
 529 -2 529 -2 529 16 c 2,5,-1
 529 162 l 2,6,7
 529 181 529 181 511 181 c 0,8,9
 372 192 372 192 277 291.5 c 128,-1,10
 182 391 182 391 182 527 c 0,11,12
 182 659 182 659 272 757 c 128,-1,13
 362 855 362 855 496 871 c 2,14,-1
 552 879 l 2,15,16
 573 879 573 879 573 897 c 2,17,-1
 581 952 l 1,18,19
 598 1125 598 1125 727 1241.5 c 128,-1,20
 856 1358 856 1358 1031 1358 c 0,21,22
 1205 1358 1205 1358 1335 1242 c 128,-1,23
 1465 1126 1465 1126 1483 952 c 1,24,-1
 1491 890 l 2,25,26
 1491 871 1491 871 1510 871 c 2,27,-1
 1682 871 l 2,28,29
 1826 871 1826 871 1929 770 c 128,-1,30
 2032 669 2032 669 2032 527 c 0,31,32
 2032 391 2032 391 1937 291.5 c 128,-1,33
 1842 192 1842 192 1703 181 c 0,34,35
 1682 181 1682 181 1682 162 c 2,36,-1
 1682 16 l 2,37,38
 1682 -2 1682 -2 1703 -2 c 0,39,40
 1916 5 1916 5 2063.5 159 c 128,-1,41
 2211 313 2211 313 2211 527 c 0,42,43
 2211 666 2211 666 2142 786 c 1,44,45
 2272 903 2272 903 2311 1065 c 1,46,-1
 2311 1079 l 1,47,-1
 2331 1163 l 1,48,-1
 2250 1185 l 2,49,50
 2120 1224 2120 1224 2048 1329.5 c 128,-1,51
 1976 1435 1976 1435 1976 1546 c 0,52,53
 1976 1588 1976 1588 1985 1629 c 2,54,-1
 2006 1714 l 1,55,-1
 1915 1741 l 1,56,-1
 1901 1745 l 1,57,58
 1826 1760 1826 1760 1768 1760 c 0,59,60
 1708 1760 1708 1760 1646 1746 c 128,-1,61
 1584 1732 1584 1732 1517.5 1702 c 128,-1,62
 1451 1672 1451 1672 1389.5 1616.5 c 128,-1,63
 1328 1561 1328 1561 1283 1485 c 1,64,65
 1164 1537 1164 1537 1031 1537 c 0,66,67
 805 1537 805 1537 631.5 1397 c 128,-1,68
 458 1257 458 1257 411 1039 c 1,69,70
 231 998 231 998 115.5 855 c 128,-1,71
 0 712 0 712 0 527 c 0,0,1
576 -195 m 0,72,73
 576 -219 576 -219 592 -242.5 c 128,-1,74
 608 -266 608 -266 640 -278 c 0,75,76
 675 -290 675 -290 708 -272.5 c 128,-1,77
 741 -255 741 -255 752 -218 c 2,78,-1
 782 -105 l 2,79,80
 793 -72 793 -72 774.5 -39 c 128,-1,81
 756 -6 756 -6 720 5 c 0,82,83
 683 15 683 15 650.5 -4 c 128,-1,84
 618 -23 618 -23 606 -61 c 2,85,-1
 581 -167 l 2,86,87
 576 -192 576 -192 576 -195 c 0,72,73
714 310 m 0,88,89
 714 292 714 292 725 272 c 0,90,91
 737 244 737 244 782 231 c 0,92,93
 821 221 821 221 852 237.5 c 128,-1,94
 883 254 883 254 895 293 c 2,95,-1
 925 403 l 2,96,97
 936 440 936 440 917.5 471.5 c 128,-1,98
 899 503 899 503 863 513 c 0,99,100
 824 523 824 523 792 505.5 c 128,-1,101
 760 488 760 488 749 450 c 2,102,-1
 720 342 l 2,103,104
 714 320 714 320 714 310 c 0,88,89
848 -528 m 0,105,106
 848 -555 848 -555 864.5 -580.5 c 128,-1,107
 881 -606 881 -606 913 -616 c 0,108,109
 930 -621 930 -621 937 -621 c 0,110,111
 951 -621 951 -621 977 -610 c 0,112,113
 1009 -597 1009 -597 1023 -551 c 2,114,-1
 1055 -439 l 2,115,116
 1066 -405 1066 -405 1047.5 -372 c 128,-1,117
 1029 -339 1029 -339 993 -328 c 0,118,119
 954 -318 954 -318 921.5 -336.5 c 128,-1,120
 889 -355 889 -355 878 -393 c 2,121,-1
 851 -501 l 2,122,123
 848 -514 848 -514 848 -528 c 0,105,106
990 -19 m 2,124,125
 990 -43 990 -43 1006 -66.5 c 128,-1,126
 1022 -90 1022 -90 1055 -102 c 0,127,128
 1091 -113 1091 -113 1123 -96 c 128,-1,129
 1155 -79 1155 -79 1166 -40 c 2,130,-1
 1195 71 l 2,131,132
 1206 105 1206 105 1188.5 137.5 c 128,-1,133
 1171 170 1171 170 1136 181 c 0,134,135
 1097 191 1097 191 1063.5 172 c 128,-1,136
 1030 153 1030 153 1019 115 c 2,137,-1
 993 8 l 1,138,-1
 990 -19 l 2,124,125
1289 -207 m 0,139,140
 1289 -267 1289 -267 1357 -287 c 0,141,142
 1371 -290 1371 -290 1383 -290 c 0,143,144
 1407 -290 1407 -290 1422 -283 c 0,145,146
 1456 -270 1456 -270 1469 -222 c 2,147,-1
 1498 -113 l 2,148,149
 1508 -73 1508 -73 1489.5 -41.5 c 128,-1,150
 1471 -10 1471 -10 1433 -2 c 0,151,152
 1396 9 1396 9 1364.5 -9.5 c 128,-1,153
 1333 -28 1333 -28 1322 -64 c 2,154,-1
 1293 -175 l 2,155,156
 1293 -179 1293 -179 1291 -190.5 c 128,-1,157
 1289 -202 1289 -202 1289 -207 c 0,139,140
1437 307 m 0,158,159
 1437 282 1437 282 1453.5 258 c 128,-1,160
 1470 234 1470 234 1503 224 c 0,161,162
 1526 219 1526 219 1528 219 c 0,163,164
 1542 219 1542 219 1568 230 c 0,165,166
 1601 243 1601 243 1615 289 c 2,167,-1
 1645 400 l 2,168,169
 1655 435 1655 435 1636 467 c 128,-1,170
 1617 499 1617 499 1579 510 c 0,171,172
 1544 521 1544 521 1512 502.5 c 128,-1,173
 1480 484 1480 484 1469 447 c 2,174,-1
 1441 334 l 2,175,176
 1437 316 1437 316 1437 307 c 0,158,159
1441 1391 m 1,177,178
 1492 1481 1492 1481 1582.5 1531 c 128,-1,179
 1673 1581 1673 1581 1776 1581 c 2,180,-1
 1798 1581 l 1,181,182
 1797 1567 1797 1567 1797 1541 c 0,183,184
 1797 1389 1797 1389 1880.5 1252 c 128,-1,185
 1964 1115 1964 1115 2112 1043 c 1,186,187
 2077 974 2077 974 2029 926 c 1,188,189
 1880 1055 1880 1055 1682 1055 c 2,190,-1
 1648 1055 l 1,191,192
 1608 1244 1608 1244 1441 1391 c 1,177,178
EndSplineSet
EndChar

StartChar: uniF02A
Encoding: 61482 61482 58
Width: 2331
GlyphClass: 2
Flags: W
LayerCount: 2
Fore
SplineSet
0 525 m 0,0,1
 0 313 0 313 149 159 c 128,-1,2
 298 5 298 5 512 -2 c 0,3,4
 531 -2 531 -2 531 16 c 2,5,-1
 531 159 l 2,6,7
 531 177 531 177 512 177 c 0,8,9
 376 184 376 184 279 286.5 c 128,-1,10
 182 389 182 389 182 525 c 128,-1,11
 182 661 182 661 272.5 760 c 128,-1,12
 363 859 363 859 497 870 c 1,13,-1
 554 878 l 2,14,15
 575 878 575 878 575 896 c 2,16,-1
 582 951 l 1,17,18
 599 1126 599 1126 728.5 1244 c 128,-1,19
 858 1362 858 1362 1034 1362 c 0,20,21
 1208 1362 1208 1362 1339 1244.5 c 128,-1,22
 1470 1127 1470 1127 1488 954 c 1,23,-1
 1496 893 l 2,24,25
 1496 874 1496 874 1514 874 c 2,26,-1
 1687 874 l 2,27,28
 1832 874 1832 874 1935.5 771 c 128,-1,29
 2039 668 2039 668 2039 525 c 0,30,31
 2039 389 2039 389 1942 286.5 c 128,-1,32
 1845 184 1845 184 1709 177 c 0,33,34
 1687 177 1687 177 1687 159 c 2,35,-1
 1687 16 l 2,36,37
 1687 -2 1687 -2 1709 -2 c 0,38,39
 1849 2 1849 2 1966 74 c 128,-1,40
 2083 146 2083 146 2150.5 266 c 128,-1,41
 2218 386 2218 386 2218 525 c 0,42,43
 2218 671 2218 671 2149 790 c 1,44,45
 2267 896 2267 896 2311 1065 c 1,46,-1
 2329 1142 l 2,47,48
 2331 1144 2331 1144 2331 1150 c 0,49,50
 2331 1162 2331 1162 2314 1167 c 2,51,-1
 2249 1185 l 2,52,53
 2179 1206 2179 1206 2124.5 1246 c 128,-1,54
 2070 1286 2070 1286 2038.5 1335.5 c 128,-1,55
 2007 1385 2007 1385 1991.5 1436.5 c 128,-1,56
 1976 1488 1976 1488 1976 1538 c 0,57,58
 1976 1581 1976 1581 1987 1630 c 2,59,-1
 1999 1696 l 2,60,61
 2003 1711 2003 1711 1984 1720 c 2,62,-1
 1899 1746 l 1,63,64
 1829 1763 1829 1763 1766 1763 c 0,65,66
 1707 1763 1707 1763 1646 1749 c 128,-1,67
 1585 1735 1585 1735 1520 1705 c 128,-1,68
 1455 1675 1455 1675 1394 1619.5 c 128,-1,69
 1333 1564 1333 1564 1288 1489 c 1,70,71
 1159 1542 1159 1542 1034 1542 c 0,72,73
 808 1542 808 1542 632.5 1401.5 c 128,-1,74
 457 1261 457 1261 407 1042 c 1,75,76
 227 997 227 997 113.5 854 c 128,-1,77
 0 711 0 711 0 525 c 0,0,1
681 89 m 0,78,79
 681 51 681 51 706.5 24.5 c 128,-1,80
 732 -2 732 -2 769 -2 c 0,81,82
 807 -2 807 -2 832.5 24.5 c 128,-1,83
 858 51 858 51 858 89 c 0,84,85
 858 125 858 125 832.5 151 c 128,-1,86
 807 177 807 177 769 177 c 0,87,88
 732 177 732 177 706.5 151 c 128,-1,89
 681 125 681 125 681 89 c 0,78,79
681 -299 m 0,90,91
 681 -335 681 -335 707 -361 c 128,-1,92
 733 -387 733 -387 769 -387 c 0,93,94
 807 -387 807 -387 832.5 -362 c 128,-1,95
 858 -337 858 -337 858 -299 c 128,-1,96
 858 -261 858 -261 832.5 -236 c 128,-1,97
 807 -211 807 -211 769 -211 c 128,-1,98
 731 -211 731 -211 706 -236 c 128,-1,99
 681 -261 681 -261 681 -299 c 0,90,91
1023 -118 m 0,100,101
 1023 -157 1023 -157 1049 -181 c 0,102,103
 1075 -207 1075 -207 1111 -207 c 0,104,105
 1149 -207 1149 -207 1176 -181 c 128,-1,106
 1203 -155 1203 -155 1203 -118 c 0,107,108
 1203 -80 1203 -80 1176 -52.5 c 128,-1,109
 1149 -25 1149 -25 1111 -25 c 0,110,111
 1076 -25 1076 -25 1049.5 -52.5 c 128,-1,112
 1023 -80 1023 -80 1023 -118 c 0,100,101
1023 270 m 0,113,114
 1023 232 1023 232 1049 208 c 0,115,116
 1075 182 1075 182 1111 182 c 0,117,118
 1150 182 1150 182 1176.5 207 c 128,-1,119
 1203 232 1203 232 1203 270 c 0,120,121
 1203 307 1203 307 1176 333.5 c 128,-1,122
 1149 360 1149 360 1111 360 c 0,123,124
 1075 360 1075 360 1049 333.5 c 128,-1,125
 1023 307 1023 307 1023 270 c 0,113,114
1023 -510 m 0,126,127
 1023 -545 1023 -545 1049 -571 c 0,128,129
 1076 -598 1076 -598 1111 -598 c 0,130,131
 1149 -598 1149 -598 1176 -572.5 c 128,-1,132
 1203 -547 1203 -547 1203 -510 c 0,133,134
 1203 -472 1203 -472 1176 -444.5 c 128,-1,135
 1149 -417 1149 -417 1111 -417 c 0,136,137
 1076 -417 1076 -417 1049.5 -444.5 c 128,-1,138
 1023 -472 1023 -472 1023 -510 c 0,126,127
1368 89 m 0,139,140
 1368 51 1368 51 1394.5 24.5 c 128,-1,141
 1421 -2 1421 -2 1458 -2 c 128,-1,142
 1495 -2 1495 -2 1520.5 24.5 c 128,-1,143
 1546 51 1546 51 1546 89 c 0,144,145
 1546 125 1546 125 1520.5 151 c 128,-1,146
 1495 177 1495 177 1458 177 c 128,-1,147
 1421 177 1421 177 1394.5 151 c 128,-1,148
 1368 125 1368 125 1368 89 c 0,139,140
1368 -299 m 0,149,150
 1368 -335 1368 -335 1394 -361 c 128,-1,151
 1420 -387 1420 -387 1458 -387 c 128,-1,152
 1496 -387 1496 -387 1521 -361.5 c 128,-1,153
 1546 -336 1546 -336 1546 -299 c 0,154,155
 1546 -261 1546 -261 1521 -236 c 128,-1,156
 1496 -211 1496 -211 1458 -211 c 128,-1,157
 1420 -211 1420 -211 1394 -236 c 128,-1,158
 1368 -261 1368 -261 1368 -299 c 0,149,150
1441 1395 m 1,159,160
 1491 1482 1491 1482 1579.5 1529.5 c 128,-1,161
 1668 1577 1668 1577 1762 1579 c 0,162,163
 1786 1579 1786 1579 1797 1577 c 1,164,-1
 1797 1544 l 2,165,166
 1797 1389 1797 1389 1880.5 1251.5 c 128,-1,167
 1964 1114 1964 1114 2112 1042 c 1,168,169
 2087 984 2087 984 2031 928 c 1,170,171
 1889 1054 1889 1054 1687 1054 c 2,172,-1
 1654 1054 l 1,173,174
 1610 1251 1610 1251 1441 1395 c 1,159,160
EndSplineSet
EndChar

StartChar: uniF02B
Encoding: 61483 61483 59
Width: 2323
GlyphClass: 2
Flags: W
LayerCount: 2
Fore
SplineSet
0 529 m 0,0,1
 0 316 0 316 148.5 163 c 128,-1,2
 297 10 297 10 511 -1 c 0,3,4
 530 -1 530 -1 530 18 c 2,5,-1
 530 160 l 2,6,7
 530 179 530 179 511 179 c 0,8,9
 374 186 374 186 278 288 c 128,-1,10
 182 390 182 390 182 529 c 0,11,12
 182 662 182 662 272 760 c 128,-1,13
 362 858 362 858 496 874 c 1,14,-1
 552 878 l 2,15,16
 573 878 573 878 573 897 c 2,17,-1
 581 955 l 1,18,19
 598 1128 598 1128 727.5 1244.5 c 128,-1,20
 857 1361 857 1361 1032 1361 c 0,21,22
 1206 1361 1206 1361 1337 1244 c 128,-1,23
 1468 1127 1468 1127 1486 955 c 2,24,-1
 1493 894 l 2,25,26
 1493 874 1493 874 1512 874 c 2,27,-1
 1685 874 l 2,28,29
 1827 874 1827 874 1930.5 771.5 c 128,-1,30
 2034 669 2034 669 2034 529 c 0,31,32
 2034 390 2034 390 1938 288 c 128,-1,33
 1842 186 1842 186 1705 179 c 0,34,35
 1685 179 1685 179 1685 160 c 2,36,-1
 1685 18 l 2,37,38
 1685 -1 1685 -1 1705 -1 c 0,39,40
 1845 4 1845 4 1962.5 76 c 128,-1,41
 2080 148 2080 148 2147.5 268.5 c 128,-1,42
 2215 389 2215 389 2215 529 c 0,43,44
 2215 668 2215 668 2142 790 c 1,45,46
 2267 909 2267 909 2306 1065 c 1,47,-1
 2321 1143 l 2,48,49
 2323 1144 2323 1144 2323 1150 c 0,50,51
 2323 1162 2323 1162 2306 1167 c 2,52,-1
 2245 1185 l 2,53,54
 2154 1211 2154 1211 2089 1272.5 c 128,-1,55
 2024 1334 2024 1334 1996.5 1402 c 128,-1,56
 1969 1470 1969 1470 1969 1539 c 0,57,58
 1969 1585 1969 1585 1981 1630 c 2,59,-1
 1995 1695 l 2,60,61
 1999 1711 1999 1711 1981 1720 c 2,62,-1
 1896 1746 l 1,63,64
 1824 1762 1824 1762 1761 1762 c 0,65,66
 1703 1762 1703 1762 1642 1748 c 128,-1,67
 1581 1734 1581 1734 1515.5 1705 c 128,-1,68
 1450 1676 1450 1676 1388 1621 c 128,-1,69
 1326 1566 1326 1566 1281 1493 c 1,70,71
 1151 1542 1151 1542 1032 1542 c 0,72,73
 806 1542 806 1542 631 1401.5 c 128,-1,74
 456 1261 456 1261 406 1043 c 1,75,76
 229 1001 229 1001 114.5 857.5 c 128,-1,77
 0 714 0 714 0 529 c 0,0,1
633 435 m 0,78,79
 633 374 633 374 677.5 331 c 128,-1,80
 722 288 722 288 786 288 c 128,-1,81
 850 288 850 288 893 330.5 c 128,-1,82
 936 373 936 373 936 435 c 0,83,84
 936 476 936 476 899 544 c 128,-1,85
 862 612 862 612 830 649 c 0,86,87
 813 668 813 668 786 695 c 1,88,-1
 749 651 l 2,89,90
 706 604 706 604 669.5 540.5 c 128,-1,91
 633 477 633 477 633 435 c 0,78,79
952 10 m 0,92,93
 952 -95 952 -95 1025 -167 c 128,-1,94
 1098 -239 1098 -239 1201 -239 c 0,95,96
 1306 -239 1306 -239 1378.5 -166 c 128,-1,97
 1451 -93 1451 -93 1451 10 c 0,98,99
 1451 98 1451 98 1366 223 c 1,100,101
 1295 316 1295 316 1229 382 c 0,102,103
 1216 391 1216 391 1201 406 c 1,104,-1
 1176 382 l 2,105,106
 1113 324 1113 324 1040 224 c 0,107,108
 1002 171 1002 171 977 113 c 128,-1,109
 952 55 952 55 952 10 c 0,92,93
1109 721 m 0,110,111
 1109 680 1109 680 1139.5 651 c 128,-1,112
 1170 622 1170 622 1214 622 c 0,113,114
 1255 622 1255 622 1284 651 c 128,-1,115
 1313 680 1313 680 1313 721 c 0,116,117
 1313 789 1313 789 1214 894 c 1,118,-1
 1187 865 l 2,119,120
 1158 833 1158 833 1133.5 790.5 c 128,-1,121
 1109 748 1109 748 1109 721 c 0,110,111
1435 1395 m 1,122,123
 1491 1486 1491 1486 1578 1532.5 c 128,-1,124
 1665 1579 1665 1579 1761 1579 c 0,125,126
 1780 1579 1780 1579 1790 1577 c 1,127,-1
 1790 1545 l 2,128,129
 1790 1391 1790 1391 1874 1253 c 128,-1,130
 1958 1115 1958 1115 2107 1043 c 1,131,132
 2082 983 2082 983 2027 933 c 1,133,134
 1879 1055 1879 1055 1685 1055 c 2,135,-1
 1650 1055 l 1,136,137
 1601 1265 1601 1265 1435 1395 c 1,122,123
EndSplineSet
EndChar

StartChar: uniF02C
Encoding: 61484 61484 60
Width: 2328
GlyphClass: 2
Flags: W
LayerCount: 2
Fore
SplineSet
0 529 m 0,0,1
 0 352 0 352 106 212.5 c 128,-1,2
 212 73 212 73 381 22 c 1,3,-1
 312 -159 l 2,4,5
 305 -181 305 -181 327 -181 c 2,6,-1
 553 -181 l 1,7,-1
 415 -627 l 1,8,-1
 445 -627 l 1,9,-1
 896 -27 l 2,10,11
 902 -20 902 -20 898 -12.5 c 128,-1,12
 894 -5 894 -5 883 -5 c 2,13,-1
 651 -5 l 1,14,-1
 915 490 l 2,15,16
 926 513 926 513 901 513 c 2,17,-1
 585 513 l 2,18,19
 571 513 571 513 561 497 c 2,20,-1
 447 190 l 1,21,22
 333 219 333 219 257.5 314.5 c 128,-1,23
 182 410 182 410 182 529 c 0,24,25
 182 662 182 662 272.5 760 c 128,-1,26
 363 858 363 858 497 874 c 2,27,-1
 553 882 l 2,28,29
 574 882 574 882 574 901 c 2,30,-1
 582 955 l 1,31,32
 599 1128 599 1128 728.5 1245 c 128,-1,33
 858 1362 858 1362 1033 1362 c 0,34,35
 1207 1362 1207 1362 1338 1244.5 c 128,-1,36
 1469 1127 1469 1127 1487 955 c 1,37,-1
 1495 894 l 2,38,39
 1495 874 1495 874 1513 874 c 2,40,-1
 1686 874 l 2,41,42
 1831 874 1831 874 1934 772.5 c 128,-1,43
 2037 671 2037 671 2037 529 c 0,44,45
 2037 393 2037 393 1941 293 c 128,-1,46
 1845 193 1845 193 1706 183 c 0,47,48
 1686 183 1686 183 1686 163 c 2,49,-1
 1686 18 l 2,50,51
 1686 -1 1686 -1 1706 -1 c 0,52,53
 1919 6 1919 6 2067.5 160.5 c 128,-1,54
 2216 315 2216 315 2216 529 c 0,55,56
 2216 668 2216 668 2146 790 c 1,57,58
 2268 908 2268 908 2307 1070 c 1,59,-1
 2327 1143 l 2,60,61
 2328 1144 2328 1144 2328 1150 c 0,62,63
 2328 1163 2328 1163 2312 1167 c 2,64,-1
 2246 1185 l 2,65,66
 2154 1212 2154 1212 2090 1274.5 c 128,-1,67
 2026 1337 2026 1337 1999.5 1404.5 c 128,-1,68
 1973 1472 1973 1472 1974 1539 c 0,69,70
 1974 1583 1974 1583 1985 1630 c 2,71,-1
 1997 1695 l 2,72,73
 2001 1711 2001 1711 1982 1720 c 2,74,-1
 1897 1746 l 1,75,76
 1822 1761 1822 1761 1765 1761 c 0,77,78
 1706 1762 1706 1762 1644.5 1748.5 c 128,-1,79
 1583 1735 1583 1735 1518 1705.5 c 128,-1,80
 1453 1676 1453 1676 1392.5 1621.5 c 128,-1,81
 1332 1567 1332 1567 1287 1493 c 1,82,83
 1151 1542 1151 1542 1033 1542 c 0,84,85
 807 1542 807 1542 632 1401.5 c 128,-1,86
 457 1261 457 1261 407 1043 c 1,87,88
 230 1001 230 1001 115 857.5 c 128,-1,89
 0 714 0 714 0 529 c 0,0,1
872 -523 m 2,90,91
 872 -548 872 -548 888.5 -573 c 128,-1,92
 905 -598 905 -598 937 -608 c 0,93,94
 962 -613 962 -613 966 -613 c 0,95,96
 981 -613 981 -613 1005 -602 c 0,97,98
 1038 -586 1038 -586 1050 -546 c 2,99,-1
 1080 -434 l 2,100,101
 1090 -399 1090 -399 1071.5 -366.5 c 128,-1,102
 1053 -334 1053 -334 1015 -323 c 0,103,104
 980 -313 980 -313 947.5 -332 c 128,-1,105
 915 -351 915 -351 904 -389 c 2,106,-1
 875 -496 l 1,107,-1
 872 -523 l 2,90,91
1015 -16 m 0,108,109
 1015 -85 1015 -85 1080 -96 c 0,110,111
 1102 -101 1102 -101 1109 -101 c 0,112,113
 1169 -101 1169 -101 1191 -34 c 2,114,-1
 1223 75 l 2,115,116
 1233 110 1233 110 1214 142.5 c 128,-1,117
 1195 175 1195 175 1157 186 c 0,118,119
 1121 197 1121 197 1088.5 178.5 c 128,-1,120
 1056 160 1056 160 1045 122 c 2,121,-1
 1018 14 l 2,122,123
 1015 0 1015 0 1015 -16 c 0,108,109
1314 -194 m 0,124,125
 1316 -221 1316 -221 1333 -245.5 c 128,-1,126
 1350 -270 1350 -270 1384 -282 c 0,127,128
 1410 -288 1410 -288 1419 -288 c 0,129,130
 1474 -288 1474 -288 1495 -216 c 2,131,-1
 1521 -107 l 2,132,133
 1532 -70 1532 -70 1514.5 -37 c 128,-1,134
 1497 -4 1497 -4 1461 7 c 0,135,136
 1421 17 1421 17 1388.5 -2 c 128,-1,137
 1356 -21 1356 -21 1349 -59 c 2,138,-1
 1318 -169 l 2,139,140
 1318 -173 1318 -173 1316 -181.5 c 128,-1,141
 1314 -190 1314 -190 1314 -194 c 0,124,125
1440 1395 m 1,142,143
 1493 1484 1493 1484 1583 1532.5 c 128,-1,144
 1673 1581 1673 1581 1771 1581 c 2,145,-1
 1794 1581 l 1,146,-1
 1794 1547 l 2,147,148
 1794 1445 1794 1445 1830 1349 c 128,-1,149
 1866 1253 1866 1253 1938.5 1172 c 128,-1,150
 2011 1091 2011 1091 2110 1043 c 1,151,152
 2083 983 2083 983 2029 933 c 1,153,154
 1883 1058 1883 1058 1686 1058 c 2,155,-1
 1651 1058 l 1,156,157
 1606 1259 1606 1259 1440 1395 c 1,142,143
1461 318 m 0,158,159
 1461 249 1461 249 1530 230 c 0,160,161
 1552 226 1552 226 1562 226 c 0,162,163
 1620 226 1620 226 1641 295 c 2,164,-1
 1671 406 l 2,165,166
 1672 414 1672 414 1672 429 c 0,167,168
 1674 456 1674 456 1657 481.5 c 128,-1,169
 1640 507 1640 507 1605 517 c 0,170,171
 1603 517 1603 517 1594.5 518.5 c 128,-1,172
 1586 520 1586 520 1581 520 c 0,173,174
 1555 520 1555 520 1530 503.5 c 128,-1,175
 1505 487 1505 487 1495 453 c 2,176,-1
 1464 344 l 2,177,178
 1464 343 1464 343 1462.5 333 c 128,-1,179
 1461 323 1461 323 1461 318 c 0,158,159
EndSplineSet
EndChar

StartChar: uniF02D
Encoding: 61485 61485 61
Width: 2330
GlyphClass: 2
Flags: W
LayerCount: 2
Fore
SplineSet
0 531 m 0,0,1
 0 353 0 353 106 213.5 c 128,-1,2
 212 74 212 74 381 23 c 1,3,-1
 311 -157 l 1,4,5
 307 -179 307 -179 327 -179 c 2,6,-1
 553 -179 l 1,7,-1
 449 -553 l 1,8,-1
 480 -553 l 1,9,-1
 897 -26 l 2,10,11
 903 -18 903 -18 898.5 -10.5 c 128,-1,12
 894 -3 894 -3 883 -3 c 2,13,-1
 651 -3 l 1,14,-1
 915 491 l 2,15,16
 926 514 926 514 901 514 c 2,17,-1
 585 514 l 2,18,19
 571 514 571 514 561 499 c 1,20,-1
 447 192 l 1,21,22
 332 221 332 221 257 316.5 c 128,-1,23
 182 412 182 412 182 531 c 0,24,25
 182 664 182 664 272.5 762.5 c 128,-1,26
 363 861 363 861 497 877 c 2,27,-1
 553 885 l 2,28,29
 574 885 574 885 574 903 c 2,30,-1
 582 958 l 1,31,32
 599 1131 599 1131 728.5 1248 c 128,-1,33
 858 1365 858 1365 1033 1365 c 0,34,35
 1206 1365 1206 1365 1337.5 1247.5 c 128,-1,36
 1469 1130 1469 1130 1488 958 c 2,37,-1
 1495 895 l 2,38,39
 1495 877 1495 877 1514 877 c 2,40,-1
 1687 877 l 2,41,42
 1832 877 1832 877 1935 775.5 c 128,-1,43
 2038 674 2038 674 2038 531 c 0,44,45
 2038 395 2038 395 1942 295 c 128,-1,46
 1846 195 1846 195 1707 184 c 0,47,48
 1687 184 1687 184 1687 166 c 2,49,-1
 1687 19 l 2,50,51
 1687 0 1687 0 1707 0 c 0,52,53
 1847 5 1847 5 1964.5 77 c 128,-1,54
 2082 149 2082 149 2149.5 269.5 c 128,-1,55
 2217 390 2217 390 2217 531 c 0,56,57
 2217 670 2217 670 2147 792 c 1,58,59
 2274 913 2274 913 2313 1072 c 1,60,-1
 2328 1149 l 2,61,62
 2330 1151 2330 1151 2330 1157 c 0,63,64
 2330 1168 2330 1168 2313 1173 c 2,65,-1
 2253 1192 l 2,66,67
 2162 1218 2162 1218 2097 1279.5 c 128,-1,68
 2032 1341 2032 1341 2004.5 1411 c 128,-1,69
 1977 1481 1977 1481 1977 1552 c 0,70,71
 1977 1594 1977 1594 1986 1637 c 2,72,-1
 2001 1702 l 2,73,74
 2008 1718 2008 1718 1986 1727 c 0,75,76
 1952 1741 1952 1741 1889.5 1755 c 128,-1,77
 1827 1769 1827 1769 1767 1769 c 0,78,79
 1709 1769 1709 1769 1648 1755 c 128,-1,80
 1587 1741 1587 1741 1521.5 1711.5 c 128,-1,81
 1456 1682 1456 1682 1394 1626.5 c 128,-1,82
 1332 1571 1332 1571 1287 1496 c 1,83,84
 1155 1544 1155 1544 1033 1544 c 0,85,86
 807 1544 807 1544 632 1404 c 128,-1,87
 457 1264 457 1264 407 1046 c 1,88,89
 230 1004 230 1004 115 860 c 128,-1,90
 0 716 0 716 0 531 c 0,0,1
864 -517 m 0,91,92
 864 -543 864 -543 879.5 -566.5 c 128,-1,93
 895 -590 895 -590 927 -599 c 0,94,95
 944 -602 944 -602 959 -602 c 0,96,97
 1024 -602 1024 -602 1040 -535 c 2,98,-1
 1287 403 l 2,99,100
 1297 441 1297 441 1279.5 472.5 c 128,-1,101
 1262 504 1262 504 1226 514 c 0,102,103
 1189 525 1189 525 1156.5 507.5 c 128,-1,104
 1124 490 1124 490 1114 455 c 2,105,-1
 867 -488 l 2,106,107
 864 -502 864 -502 864 -517 c 0,91,92
1309 -195 m 0,108,109
 1309 -221 1309 -221 1324.5 -244 c 128,-1,110
 1340 -267 1340 -267 1374 -277 c 0,111,112
 1379 -277 1379 -277 1390.5 -278.5 c 128,-1,113
 1402 -280 1402 -280 1408 -280 c 0,114,115
 1469 -280 1469 -280 1485 -213 c 2,116,-1
 1645 403 l 2,117,118
 1655 442 1655 442 1637 473 c 128,-1,119
 1619 504 1619 504 1583 514 c 0,120,121
 1546 525 1546 525 1514 508 c 128,-1,122
 1482 491 1482 491 1472 455 c 2,123,-1
 1312 -166 l 2,124,125
 1309 -182 1309 -182 1309 -195 c 0,108,109
1441 1398 m 1,126,127
 1494 1489 1494 1489 1582.5 1537 c 128,-1,128
 1671 1585 1671 1585 1770 1585 c 0,129,130
 1790 1585 1790 1585 1799 1584 c 1,131,-1
 1799 1550 l 2,132,133
 1799 1396 1799 1396 1882.5 1259 c 128,-1,134
 1966 1122 1966 1122 2114 1049 c 1,135,136
 2085 982 2085 982 2030 935 c 1,137,138
 1883 1061 1883 1061 1687 1061 c 2,139,-1
 1653 1061 l 1,140,141
 1608 1260 1608 1260 1441 1398 c 1,126,127
EndSplineSet
EndChar

StartChar: uniF02E
Encoding: 61486 61486 62
Width: 1512
GlyphClass: 2
Flags: W
LayerCount: 2
Fore
SplineSet
0 786 m 0,0,1
 0 939 0 939 60 1079 c 128,-1,2
 120 1219 120 1219 221.5 1320.5 c 128,-1,3
 323 1422 323 1422 463.5 1482.5 c 128,-1,4
 604 1543 604 1543 757 1543 c 2,5,-1
 879 1543 l 1,6,7
 904 1536 904 1536 904 1513 c 2,8,-1
 909 1419 l 1,9,10
 915 1216 915 1216 1055 1073 c 128,-1,11
 1195 930 1195 930 1395 922 c 1,12,-1
 1483 915 l 2,13,14
 1509 915 1509 915 1509 890 c 2,15,-1
 1509 786 l 2,16,17
 1510 581 1510 581 1409.5 406.5 c 128,-1,18
 1309 232 1309 232 1135.5 130.5 c 128,-1,19
 962 29 962 29 757 29 c 0,20,21
 601 29 601 29 460.5 89 c 128,-1,22
 320 149 320 149 219.5 250.5 c 128,-1,23
 119 352 119 352 59.5 492 c 128,-1,24
 0 632 0 632 0 786 c 0,0,1
195 786 m 0,25,26
 195 664 195 664 243.5 556 c 128,-1,27
 292 448 292 448 370.5 375 c 128,-1,28
 449 302 449 302 550.5 259.5 c 128,-1,29
 652 217 652 217 757 217 c 0,30,31
 850 217 850 217 944.5 253.5 c 128,-1,32
 1039 290 1039 290 1120 355.5 c 128,-1,33
 1201 421 1201 421 1259.5 523 c 128,-1,34
 1318 625 1318 625 1335 746 c 1,35,36
 1074 800 1074 800 916.5 969.5 c 128,-1,37
 759 1139 759 1139 735 1368 c 1,38,39
 584 1360 584 1360 458.5 1275 c 128,-1,40
 333 1190 333 1190 264 1059.5 c 128,-1,41
 195 929 195 929 195 786 c 0,25,26
EndSplineSet
EndChar

StartChar: uniF02F
Encoding: 61487 61487 63
Width: 2548
GlyphClass: 2
Flags: W
LayerCount: 2
Fore
SplineSet
0 93 m 0,0,1
 0 55 0 55 29 29 c 0,2,3
 58 0 58 0 94 0 c 2,4,-1
 721 0 l 2,5,6
 763 0 763 0 794.5 -30 c 128,-1,7
 826 -60 826 -60 826 -103 c 0,8,9
 826 -144 826 -144 794 -175.5 c 128,-1,10
 762 -207 762 -207 721 -207 c 0,11,12
 681 -207 681 -207 649 -175 c 0,13,14
 619 -147 619 -147 583 -147 c 0,15,16
 546 -147 546 -147 520 -174 c 128,-1,17
 494 -201 494 -201 494 -239 c 128,-1,18
 494 -277 494 -277 520 -303 c 0,19,20
 603 -386 603 -386 721 -386 c 0,21,22
 840 -386 840 -386 923 -303.5 c 128,-1,23
 1006 -221 1006 -221 1006 -103 c 0,24,25
 1006 16 1006 16 922.5 100 c 128,-1,26
 839 184 839 184 721 184 c 2,27,-1
 94 184 l 2,28,29
 56 184 56 184 28 157 c 128,-1,30
 0 130 0 130 0 93 c 0,0,1
0 414 m 0,31,32
 0 378 0 378 29 352 c 0,33,34
 53 326 53 326 94 326 c 2,35,-1
 1266 326 l 2,36,37
 1384 326 1384 326 1467.5 409 c 128,-1,38
 1551 492 1551 492 1551 610 c 128,-1,39
 1551 728 1551 728 1467.5 810.5 c 128,-1,40
 1384 893 1384 893 1266 893 c 0,41,42
 1144 893 1144 893 1064 813 c 0,43,44
 1040 786 1040 786 1040 746 c 0,45,46
 1040 708 1040 708 1064 683.5 c 128,-1,47
 1088 659 1088 659 1128 659 c 128,-1,48
 1168 659 1168 659 1193 683 c 0,49,50
 1223 713 1223 713 1266 713 c 0,51,52
 1307 713 1307 713 1338 683 c 128,-1,53
 1369 653 1369 653 1369 610 c 128,-1,54
 1369 567 1369 567 1338 536 c 128,-1,55
 1307 505 1307 505 1266 505 c 2,56,-1
 94 505 l 2,57,58
 56 505 56 505 28 478 c 128,-1,59
 0 451 0 451 0 414 c 0,31,32
283 664 m 0,60,61
 283 651 283 651 301 651 c 2,62,-1
 454 651 l 2,63,64
 467 651 467 651 477 666 c 0,65,66
 513 753 513 753 588.5 810 c 128,-1,67
 664 867 664 867 758 874 c 1,68,-1
 814 881 l 2,69,70
 834 881 834 881 834 901 c 2,71,-1
 841 954 l 1,72,73
 858 1127 858 1127 988 1243.5 c 128,-1,74
 1118 1360 1118 1360 1293 1360 c 128,-1,75
 1468 1360 1468 1360 1597 1244.5 c 128,-1,76
 1726 1129 1726 1129 1745 954 c 2,77,-1
 1752 893 l 2,78,79
 1752 874 1752 874 1771 874 c 2,80,-1
 1945 874 l 2,81,82
 2089 874 2089 874 2191 773 c 128,-1,83
 2293 672 2293 672 2293 530 c 0,84,85
 2293 387 2293 387 2191 285.5 c 128,-1,86
 2089 184 2089 184 1945 184 c 2,87,-1
 1208 184 l 2,88,89
 1190 184 1190 184 1190 165 c 2,90,-1
 1190 19 l 2,91,92
 1190 0 1190 0 1208 0 c 2,93,-1
 1945 0 l 2,94,95
 2088 0 2088 0 2209.5 71 c 128,-1,96
 2331 142 2331 142 2401.5 264 c 128,-1,97
 2472 386 2472 386 2472 530 c 0,98,99
 2472 649 2472 649 2427 746 c 1,100,101
 2549 906 2549 906 2549 1101 c 0,102,103
 2549 1215 2549 1215 2504.5 1318.5 c 128,-1,104
 2460 1422 2460 1422 2385 1496.5 c 128,-1,105
 2310 1571 2310 1571 2206.5 1615 c 128,-1,106
 2103 1659 2103 1659 1990 1659 c 0,107,108
 1743 1659 1743 1659 1576 1474 c 1,109,110
 1451 1539 1451 1539 1293 1539 c 0,111,112
 1067 1539 1067 1539 893.5 1399.5 c 128,-1,113
 720 1260 720 1260 673 1042 c 1,114,115
 537 1010 537 1010 432 911 c 128,-1,116
 327 812 327 812 286 678 c 1,117,-1
 286 674 l 2,118,119
 283 666 283 666 283 664 c 0,60,61
1726 1371 m 1,120,121
 1841 1480 1841 1480 1990 1480 c 0,122,123
 2146 1480 2146 1480 2257.5 1368 c 128,-1,124
 2369 1256 2369 1256 2369 1101 c 0,125,126
 2369 1004 2369 1004 2315 904 c 1,127,128
 2162 1057 2162 1057 1945 1057 c 2,129,-1
 1910 1057 l 1,130,131
 1873 1228 1873 1228 1726 1371 c 1,120,121
EndSplineSet
EndChar

StartChar: uniF030
Encoding: 61488 61488 64
Width: 2681
GlyphClass: 2
Flags: W
LayerCount: 2
Fore
SplineSet
0 91 m 0,0,1
 0 51 0 51 29 27 c 1,2,3
 56 -1 56 -1 94 -1 c 2,4,-1
 1112 -1 l 2,5,6
 1149 -1 1149 -1 1174.5 26 c 128,-1,7
 1200 53 1200 53 1200 91 c 128,-1,8
 1200 129 1200 129 1174.5 156 c 128,-1,9
 1149 183 1149 183 1112 183 c 2,10,-1
 94 183 l 2,11,12
 56 183 56 183 28 155.5 c 128,-1,13
 0 128 0 128 0 91 c 0,0,1
281 414 m 0,14,15
 281 378 281 378 310 352 c 0,16,17
 336 326 336 326 374 326 c 2,18,-1
 1393 326 l 2,19,20
 1431 326 1431 326 1456 351 c 128,-1,21
 1481 376 1481 376 1481 414 c 128,-1,22
 1481 452 1481 452 1455.5 478.5 c 128,-1,23
 1430 505 1430 505 1393 505 c 2,24,-1
 374 505 l 2,25,26
 336 505 336 505 308.5 478 c 128,-1,27
 281 451 281 451 281 414 c 0,14,15
403 663 m 2,28,29
 403 651 403 651 424 651 c 2,30,-1
 576 651 l 2,31,32
 590 651 590 651 600 666 c 0,33,34
 636 753 636 753 712 810 c 128,-1,35
 788 867 788 867 881 874 c 1,36,-1
 939 882 l 2,37,38
 958 882 958 882 958 901 c 2,39,-1
 966 955 l 1,40,41
 983 1128 983 1128 1113 1245 c 128,-1,42
 1243 1362 1243 1362 1419 1362 c 128,-1,43
 1595 1362 1595 1362 1725 1246 c 128,-1,44
 1855 1130 1855 1130 1873 955 c 1,45,-1
 1881 894 l 2,46,47
 1881 874 1881 874 1899 874 c 2,48,-1
 2072 874 l 2,49,50
 2218 874 2218 874 2320.5 773 c 128,-1,51
 2423 672 2423 672 2423 529 c 0,52,53
 2423 387 2423 387 2320.5 285 c 128,-1,54
 2218 183 2218 183 2072 183 c 2,55,-1
 1335 183 l 2,56,57
 1317 183 1317 183 1317 165 c 2,58,-1
 1317 18 l 2,59,60
 1317 -1 1317 -1 1335 -1 c 2,61,-1
 2072 -1 l 2,62,63
 2217 -1 2217 -1 2339.5 70 c 128,-1,64
 2462 141 2462 141 2533.5 263 c 128,-1,65
 2605 385 2605 385 2605 529 c 0,66,67
 2605 642 2605 642 2558 743 c 1,68,69
 2681 904 2681 904 2681 1094 c 0,70,71
 2681 1246 2681 1246 2605.5 1375.5 c 128,-1,72
 2530 1505 2530 1505 2401 1580 c 128,-1,73
 2272 1655 2272 1655 2119 1655 c 0,74,75
 1875 1655 1875 1655 1709 1477 c 1,76,77
 1573 1542 1573 1542 1419 1542 c 0,78,79
 1270 1542 1270 1542 1138.5 1479 c 128,-1,80
 1007 1416 1007 1416 917.5 1302 c 128,-1,81
 828 1188 828 1188 797 1043 c 1,82,83
 657 1011 657 1011 552.5 914.5 c 128,-1,84
 448 818 448 818 407 683 c 1,85,-1
 403 663 l 2,28,29
469 -239 m 128,-1,87
 469 -276 469 -276 497 -301 c 0,88,89
 523 -327 523 -327 561 -327 c 2,90,-1
 1581 -327 l 2,91,92
 1619 -327 1619 -327 1645.5 -302 c 128,-1,93
 1672 -277 1672 -277 1672 -239 c 128,-1,94
 1672 -201 1672 -201 1645 -174 c 128,-1,95
 1618 -147 1618 -147 1581 -147 c 2,96,-1
 561 -147 l 2,97,98
 524 -147 524 -147 496.5 -174.5 c 128,-1,86
 469 -202 469 -202 469 -239 c 128,-1,87
1856 1369 m 1,99,100
 1964 1473 1964 1473 2119 1473 c 0,101,102
 2277 1473 2277 1473 2388 1362.5 c 128,-1,103
 2499 1252 2499 1252 2499 1094 c 0,104,105
 2499 993 2499 993 2447 905 c 1,106,107
 2290 1058 2290 1058 2072 1058 c 2,108,-1
 2038 1058 l 1,109,110
 1999 1233 1999 1233 1856 1369 c 1,99,100
EndSplineSet
EndChar

StartChar: uniF031
Encoding: 61489 61489 65
Width: 2282
GlyphClass: 2
Flags: W
LayerCount: 2
Fore
SplineSet
0 529 m 0,0,1
 0 386 0 386 70 264.5 c 128,-1,2
 140 143 140 143 261 72 c 128,-1,3
 382 1 382 1 525 1 c 2,4,-1
 1678 1 l 2,5,6
 1821 1 1821 1 1942.5 72 c 128,-1,7
 2064 143 2064 143 2135 264.5 c 128,-1,8
 2206 386 2206 386 2206 529 c 0,9,10
 2206 631 2206 631 2161 742 c 1,11,12
 2282 890 2282 890 2282 1094 c 0,13,14
 2282 1246 2282 1246 2208 1374.5 c 128,-1,15
 2134 1503 2134 1503 2005.5 1578 c 128,-1,16
 1877 1653 1877 1653 1725 1653 c 0,17,18
 1486 1653 1486 1653 1312 1467 c 1,19,20
 1190 1536 1190 1536 1025 1536 c 0,21,22
 800 1536 800 1536 627.5 1397 c 128,-1,23
 455 1258 455 1258 406 1040 c 1,24,25
 227 1000 227 1000 113.5 857 c 128,-1,26
 0 714 0 714 0 529 c 0,0,1
182 529 m 0,27,28
 182 662 182 662 271 759 c 128,-1,29
 360 856 360 856 495 872 c 1,30,-1
 568 875 l 1,31,-1
 575 952 l 1,32,33
 597 1125 597 1125 725 1241.5 c 128,-1,34
 853 1358 853 1358 1025 1358 c 0,35,36
 1200 1358 1200 1358 1330 1241 c 128,-1,37
 1460 1124 1460 1124 1477 952 c 1,38,-1
 1488 872 l 1,39,-1
 1678 872 l 2,40,41
 1819 872 1819 872 1921 770.5 c 128,-1,42
 2023 669 2023 669 2023 529 c 0,43,44
 2023 385 2023 385 1921.5 282 c 128,-1,45
 1820 179 1820 179 1678 179 c 2,46,-1
 525 179 l 2,47,48
 386 179 386 179 284 283 c 128,-1,49
 182 387 182 387 182 529 c 0,27,28
1465 1365 m 1,50,51
 1575 1471 1575 1471 1725 1471 c 0,52,53
 1883 1471 1883 1471 1993.5 1361.5 c 128,-1,54
 2104 1252 2104 1252 2104 1094 c 0,55,56
 2104 995 2104 995 2049 898 c 1,57,58
 1896 1051 1896 1051 1678 1051 c 2,59,-1
 1645 1051 l 1,60,61
 1601 1229 1601 1229 1465 1365 c 1,50,51
EndSplineSet
EndChar

StartChar: uniF032
Encoding: 61490 61490 66
Width: 2294
GlyphClass: 2
Flags: W
LayerCount: 2
Fore
SplineSet
0 529 m 0,0,1
 0 316 0 316 148.5 163 c 128,-1,2
 297 10 297 10 511 -1 c 0,3,4
 530 -1 530 -1 530 18 c 2,5,-1
 530 160 l 2,6,7
 530 179 530 179 511 179 c 0,8,9
 374 186 374 186 278 288 c 128,-1,10
 182 390 182 390 182 529 c 0,11,12
 182 662 182 662 272 760 c 128,-1,13
 362 858 362 858 496 874 c 2,14,-1
 552 882 l 2,15,16
 573 882 573 882 573 901 c 2,17,-1
 581 955 l 1,18,19
 598 1128 598 1128 727.5 1244.5 c 128,-1,20
 857 1361 857 1361 1032 1361 c 0,21,22
 1206 1361 1206 1361 1337 1244 c 128,-1,23
 1468 1127 1468 1127 1486 955 c 2,24,-1
 1493 893 l 2,25,26
 1493 874 1493 874 1512 874 c 2,27,-1
 1685 874 l 2,28,29
 1830 874 1830 874 1932 773 c 128,-1,30
 2034 672 2034 672 2034 529 c 0,31,32
 2034 390 2034 390 1938 288 c 128,-1,33
 1842 186 1842 186 1705 179 c 0,34,35
 1685 179 1685 179 1685 160 c 2,36,-1
 1685 18 l 2,37,38
 1685 -1 1685 -1 1705 -1 c 0,39,40
 1845 4 1845 4 1962.5 76 c 128,-1,41
 2080 148 2080 148 2147.5 268.5 c 128,-1,42
 2215 389 2215 389 2215 529 c 0,43,44
 2215 647 2215 647 2169 743 c 1,45,46
 2295 896 2295 896 2295 1097 c 0,47,48
 2295 1248 2295 1248 2219.5 1377 c 128,-1,49
 2144 1506 2144 1506 2015 1581.5 c 128,-1,50
 1886 1657 1886 1657 1735 1657 c 0,51,52
 1486 1657 1486 1657 1321 1472 c 1,53,54
 1190 1542 1190 1542 1032 1542 c 0,55,56
 806 1542 806 1542 631 1401.5 c 128,-1,57
 456 1261 456 1261 406 1043 c 1,58,59
 230 1001 230 1001 115 857.5 c 128,-1,60
 0 714 0 714 0 529 c 0,0,1
573 -215 m 0,61,62
 587 -250 587 -250 622 -264 c 0,63,64
 654 -280 654 -280 688.5 -266.5 c 128,-1,65
 723 -253 723 -253 736 -219 c 0,66,67
 750 -184 750 -184 737 -149.5 c 128,-1,68
 724 -115 724 -115 690 -99 c 0,69,70
 658 -86 658 -86 624.5 -100 c 128,-1,71
 591 -114 591 -114 575 -146 c 0,72,73
 559 -173 559 -173 573 -215 c 0,61,62
640 87 m 2,74,75
 640 62 640 62 656.5 38 c 128,-1,76
 673 14 673 14 706 5 c 0,77,78
 742 -6 742 -6 775 11 c 128,-1,79
 808 28 808 28 821 70 c 2,80,-1
 926 402 l 2,81,82
 938 441 938 441 918 473 c 128,-1,83
 898 505 898 505 859 513 c 0,84,85
 824 524 824 524 792.5 506.5 c 128,-1,86
 761 489 761 489 750 453 c 2,87,-1
 643 114 l 1,88,-1
 640 87 l 2,74,75
839 -511 m 0,89,90
 839 -522 839 -522 845 -542 c 0,91,92
 860 -578 860 -578 894 -590 c 0,93,94
 907 -598 907 -598 929 -598 c 0,95,96
 939 -598 939 -598 961 -592 c 0,97,98
 996 -579 996 -579 1011.5 -543.5 c 128,-1,99
 1027 -508 1027 -508 1011 -473 c 128,-1,100
 995 -438 995 -438 963 -424 c 128,-1,101
 931 -410 931 -410 897 -423 c 0,102,103
 866 -436 866 -436 852.5 -461.5 c 128,-1,104
 839 -487 839 -487 839 -511 c 0,89,90
918 -226 m 0,105,106
 918 -254 918 -254 934 -277 c 128,-1,107
 950 -300 950 -300 985 -307 c 0,108,109
 988 -307 988 -307 997 -309 c 128,-1,110
 1006 -311 1006 -311 1011 -311 c 0,111,112
 1080 -306 1080 -306 1097 -245 c 2,113,-1
 1285 402 l 2,114,115
 1296 441 1296 441 1278.5 471.5 c 128,-1,116
 1261 502 1261 502 1225 513 c 0,117,118
 1188 524 1188 524 1156 506.5 c 128,-1,119
 1124 489 1124 489 1113 453 c 2,120,-1
 921 -194 l 2,121,122
 921 -198 921 -198 920 -204.5 c 128,-1,123
 919 -211 919 -211 918.5 -216.5 c 128,-1,124
 918 -222 918 -222 918 -226 c 0,105,106
1285 -183 m 0,125,126
 1285 -199 1285 -199 1290 -217 c 0,127,128
 1303 -251 1303 -251 1339 -264 c 0,129,130
 1354 -271 1354 -271 1377 -271 c 0,131,132
 1396 -271 1396 -271 1408 -265 c 0,133,134
 1444 -251 1444 -251 1457 -219 c 0,135,136
 1470 -184 1470 -184 1457.5 -150 c 128,-1,137
 1445 -116 1445 -116 1413 -99 c 1,138,139
 1378 -86 1378 -86 1343.5 -100 c 128,-1,140
 1309 -114 1309 -114 1293 -146 c 0,141,142
 1285 -163 1285 -163 1285 -183 c 0,125,126
1361 88 m 0,143,144
 1361 31 1361 31 1427 8 c 0,145,146
 1449 2 1449 2 1459 2 c 0,147,148
 1478 2 1478 2 1495 11 c 0,149,150
 1523 25 1523 25 1538 70 c 2,151,-1
 1643 402 l 2,152,153
 1655 439 1655 439 1636.5 470.5 c 128,-1,154
 1618 502 1618 502 1582 513 c 0,155,156
 1545 524 1545 524 1514 506.5 c 128,-1,157
 1483 489 1483 489 1471 453 c 2,158,-1
 1366 119 l 2,159,160
 1361 91 1361 91 1361 88 c 0,143,144
1471 1369 m 1,161,162
 1581 1475 1581 1475 1735 1475 c 0,163,164
 1891 1475 1891 1475 2001.5 1364 c 128,-1,165
 2112 1253 2112 1253 2112 1097 c 0,166,167
 2112 998 2112 998 2057 901 c 1,168,169
 1900 1058 1900 1058 1685 1058 c 2,170,-1
 1650 1058 l 1,171,172
 1601 1243 1601 1243 1471 1369 c 1,161,162
EndSplineSet
EndChar

